<svg width="1041" height="354" viewBox="0 0 1041 354" fill="none" xmlns="http://www.w3.org/2000/svg">
<path d="M0 1H1040V113V353H0V1Z" fill="white"/>
<path d="M1040 176C1040 126.294 1040.01 122.505 1040.01 81.0049C990.372 81.0049 860.616 126.893 860.5 176.5L1040 176Z" fill="#BAE0E9"/>
<path fill-rule="evenodd" clip-rule="evenodd" d="M1040.01 81.0049C990.372 81.0049 860.616 126.893 860.5 176.5L0.00545933 176.505V136.505C39.8673 74.4622 122.164 66.0714 239.5 41.5C247.693 41.9717 198.514 39.1539 206.937 39.6341C351.384 47.8686 553.91 14.5971 614 41.5C671.243 67.1283 725.84 85.8949 814.138 80.3232C884.718 75.8695 961.819 71.0043 1040.01 81.0049Z" fill="#BAE0E9"/>
<path d="M0 0L0.00545933 136.505C39.8673 74.4622 122.164 66.0714 239.5 41.5C147.355 36.1947 19.0294 8.93595 0 0Z" fill="url(#paint0_linear_261_3)"/>
<path d="M0.0108643 175.504C0.0108643 225.209 0.00537109 228.999 0.00537109 270.499C49.6392 270.499 179.395 224.61 179.511 175.004L0.0108643 175.504Z" fill="#BAE0E9"/>
<path fill-rule="evenodd" clip-rule="evenodd" d="M0.00537109 270.499C49.6392 270.499 179.395 224.61 179.511 175.004L1040.01 174.999L1040.01 270.499C1000.14 332.541 450.511 253 385.511 353C386.511 353 836.491 331.848 828.069 331.367C683.622 323.133 505.09 342.282 445 315.379C387.757 289.751 299.798 309.808 211.5 315.379C140.92 319.833 78.1919 280.499 0.00537109 270.499Z" fill="#BAE0E9"/>
<path d="M1040.01 353.502V270.499C1000.14 332.541 450.511 253 385.511 353C477.011 353 1018.01 353.502 1040.01 353.502Z" fill="url(#paint1_linear_261_3)"/>
<path d="M216.13 143.923C215.35 144.353 214.53 144.543 213.67 144.503C212.81 144.463 211.96 144.163 211.14 143.613L213.11 140.943C213.42 141.113 213.72 141.203 214.02 141.223C214.31 141.243 214.59 141.183 214.84 141.063C215.09 140.943 215.31 140.743 215.51 140.483C215.87 139.993 216.01 139.513 215.94 139.043C215.86 138.573 215.58 138.153 215.08 137.793L214.76 137.553C214.24 137.173 213.76 136.983 213.31 136.993C212.87 137.003 212.5 137.203 212.2 137.613L211.35 138.773L208.86 136.943L209.71 135.783C209.95 135.453 210.01 135.113 209.9 134.753C209.78 134.393 209.5 134.043 209.05 133.713L208.81 133.543C208.39 133.233 207.99 133.093 207.61 133.123C207.23 133.153 206.91 133.343 206.65 133.703C206.48 133.933 206.38 134.193 206.36 134.473C206.34 134.753 206.39 135.043 206.52 135.343C206.65 135.643 206.85 135.933 207.13 136.233L205.17 138.893C204.39 138.203 203.83 137.443 203.5 136.623C203.17 135.803 203.07 134.973 203.19 134.133C203.32 133.293 203.65 132.503 204.2 131.763C205.09 130.553 206.09 129.843 207.2 129.633C208.31 129.423 209.43 129.743 210.57 130.583L210.99 130.893C211.63 131.363 212.06 131.933 212.3 132.593C212.54 133.263 212.55 133.973 212.35 134.743C212.99 134.193 213.71 133.933 214.52 133.973C215.33 134.013 216.15 134.333 216.99 134.953L217.41 135.263C218.21 135.853 218.78 136.513 219.11 137.243C219.44 137.973 219.54 138.753 219.39 139.573C219.24 140.393 218.85 141.233 218.23 142.083C217.6 142.873 216.9 143.493 216.13 143.923Z" fill="#1C5B73"/>
<path d="M224.819 133.434C223.999 133.634 223.179 133.573 222.379 133.263C221.569 132.953 220.809 132.393 220.079 131.583L220.069 131.573C219.659 131.113 219.279 130.584 218.929 129.964C218.579 129.354 218.279 128.693 218.029 127.983C217.989 127.863 217.949 127.744 217.899 127.624C217.859 127.504 217.819 127.383 217.789 127.263L215.459 119.493L218.159 117.063L220.789 126.124L219.909 126.353C219.809 125.953 219.829 125.543 219.969 125.143C220.109 124.743 220.369 124.373 220.739 124.043C221.439 123.413 222.169 123.033 222.929 122.883C223.689 122.733 224.449 122.833 225.219 123.163C225.989 123.493 226.729 124.063 227.439 124.853L227.449 124.863C228.179 125.673 228.659 126.504 228.889 127.344C229.119 128.184 229.099 129.003 228.809 129.803C228.529 130.603 227.989 131.353 227.209 132.063C226.449 132.783 225.649 133.234 224.819 133.434ZM225.809 128.533C225.819 128.083 225.619 127.623 225.209 127.173L225.199 127.163C224.729 126.643 224.249 126.343 223.769 126.263C223.289 126.183 222.829 126.343 222.409 126.723C221.989 127.103 221.799 127.533 221.829 128.023C221.859 128.523 222.109 129.023 222.569 129.543L222.579 129.553C222.989 130.003 223.419 130.253 223.859 130.293C224.309 130.333 224.739 130.163 225.159 129.783C225.579 129.403 225.799 128.983 225.809 128.533Z" fill="#1C5B73"/>
<path d="M234.359 124.843C233.179 124.533 232.209 123.723 231.459 122.413L227.589 115.703C226.829 114.373 226.609 113.133 226.939 111.963C227.269 110.793 228.149 109.793 229.589 108.973C231.029 108.143 232.339 107.873 233.509 108.173C234.679 108.473 235.649 109.283 236.419 110.623L240.289 117.333C241.049 118.663 241.269 119.903 240.939 121.073C240.609 122.243 239.719 123.243 238.289 124.063C236.849 124.893 235.539 125.153 234.359 124.843ZM237.649 120.093C237.689 119.563 237.509 118.933 237.089 118.213L234.039 112.923C233.629 112.203 233.179 111.733 232.689 111.503C232.209 111.273 231.679 111.323 231.119 111.643C230.559 111.963 230.249 112.393 230.209 112.933C230.169 113.473 230.349 114.093 230.759 114.813L233.809 120.103C234.219 120.823 234.669 121.293 235.159 121.523C235.639 121.753 236.169 121.703 236.729 121.383C237.309 121.053 237.609 120.633 237.649 120.093Z" fill="#1C5B73"/>
<path d="M242.749 109.293C241.949 108.923 241.369 108.213 240.999 107.173C240.639 106.123 240.659 105.213 241.059 104.423C241.459 103.633 242.219 103.053 243.329 102.673C244.439 102.293 245.389 102.283 246.189 102.653C246.989 103.023 247.569 103.733 247.939 104.783C248.299 105.823 248.279 106.733 247.869 107.523C247.459 108.313 246.709 108.893 245.609 109.273C244.499 109.653 243.549 109.663 242.749 109.293ZM245.439 106.543C245.529 106.293 245.519 105.993 245.399 105.633C245.279 105.293 245.109 105.063 244.879 104.933C244.649 104.803 244.389 104.793 244.089 104.893C243.799 104.993 243.599 105.173 243.509 105.413C243.419 105.653 243.429 105.953 243.549 106.303C243.669 106.653 243.849 106.903 244.069 107.033C244.289 107.163 244.549 107.183 244.849 107.083C245.139 106.963 245.339 106.793 245.439 106.543Z" fill="#1C5B73"/>
<path d="M260.95 102.813L263.35 102.633L264.3 115.383L261.9 115.563L260.95 102.813ZM262.31 108.053L266.74 107.723C266.99 107.703 267.2 107.623 267.37 107.493C267.55 107.353 267.68 107.173 267.77 106.933C267.85 106.693 267.89 106.433 267.87 106.133C267.85 105.833 267.78 105.573 267.66 105.353C267.54 105.133 267.38 104.963 267.19 104.863C266.99 104.753 266.77 104.713 266.52 104.723L262.09 105.053L261.92 102.743L266.55 102.403C267.25 102.353 267.88 102.463 268.43 102.743C268.98 103.023 269.43 103.433 269.76 103.993C270.09 104.543 270.29 105.203 270.35 105.963C270.41 106.723 270.31 107.403 270.06 108.003C269.81 108.603 269.43 109.073 268.92 109.433C268.41 109.783 267.81 109.993 267.11 110.043L262.48 110.383L262.31 108.053ZM265.13 109.773L267.67 109.183L271.55 114.853L268.64 115.073L265.13 109.773Z" fill="#1C5B73"/>
<path d="M276.5 114.774C275.84 114.304 275.37 113.694 275.07 112.944C274.77 112.194 274.67 111.354 274.78 110.414L275.2 106.814C275.31 105.884 275.6 105.084 276.07 104.424C276.54 103.764 277.14 103.284 277.89 102.974C278.64 102.664 279.47 102.574 280.39 102.684C281.31 102.794 282.1 103.084 282.75 103.554C283.41 104.024 283.88 104.634 284.18 105.384C284.48 106.134 284.58 106.974 284.47 107.914L284.05 111.514C283.94 112.444 283.65 113.244 283.18 113.904C282.71 114.564 282.1 115.044 281.36 115.354C280.61 115.654 279.78 115.754 278.86 115.644C277.94 115.534 277.15 115.244 276.5 114.774ZM280.31 113.114C280.66 112.964 280.94 112.734 281.16 112.424C281.38 112.104 281.51 111.724 281.56 111.284L282 107.564C282.05 107.124 282.01 106.724 281.87 106.364C281.73 106.004 281.51 105.714 281.21 105.494C280.91 105.274 280.54 105.134 280.11 105.084C279.68 105.034 279.29 105.084 278.94 105.224C278.59 105.374 278.31 105.604 278.09 105.914C277.87 106.234 277.74 106.614 277.69 107.054L277.25 110.774C277.2 111.214 277.24 111.614 277.38 111.974C277.52 112.334 277.74 112.624 278.04 112.844C278.34 113.064 278.71 113.204 279.14 113.254C279.57 113.304 279.96 113.254 280.31 113.114Z" fill="#1C5B73"/>
<path d="M288.83 116.953C288.27 116.373 287.92 115.683 287.76 114.883C287.61 114.083 287.67 113.243 287.95 112.353L289.04 108.903C289.32 108.013 289.75 107.283 290.34 106.723C290.93 106.163 291.61 105.803 292.4 105.643C293.19 105.483 294.03 105.543 294.91 105.823C295.79 106.103 296.51 106.533 297.07 107.113C297.62 107.693 297.98 108.383 298.13 109.183C298.28 109.973 298.22 110.823 297.94 111.713L296.85 115.163C296.57 116.053 296.13 116.783 295.55 117.343C294.97 117.903 294.28 118.263 293.49 118.423C292.7 118.583 291.86 118.523 290.98 118.243C290.11 117.973 289.39 117.543 288.83 116.953ZM292.89 116.033C293.26 115.953 293.58 115.783 293.85 115.513C294.12 115.243 294.33 114.893 294.46 114.473L295.59 110.903C295.72 110.483 295.76 110.073 295.69 109.703C295.62 109.323 295.46 109.003 295.2 108.723C294.94 108.453 294.61 108.243 294.19 108.113C293.78 107.983 293.39 107.953 293.02 108.033C292.65 108.113 292.33 108.283 292.06 108.553C291.79 108.823 291.58 109.173 291.45 109.593L290.32 113.163C290.19 113.583 290.15 113.993 290.22 114.363C290.29 114.743 290.45 115.063 290.71 115.343C290.97 115.613 291.3 115.823 291.72 115.953C292.13 116.083 292.52 116.113 292.89 116.033Z" fill="#1C5B73"/>
<path d="M304.5 109.593L306.63 110.713L300.71 122.033L298.58 120.913L304.5 109.593ZM302.78 114.773L308.58 117.813L307.5 119.873L301.7 116.833L302.78 114.773ZM305.28 110.003L311.94 113.483L310.86 115.543L304.2 112.063L305.28 110.003Z" fill="#1C5B73"/>
<path d="M316.28 117.743L318.22 119.173L311.27 128.623L309.33 127.193L316.28 117.743ZM314.1 114.843L321.65 120.393L320.28 122.263L312.73 116.713L314.1 114.843Z" fill="#1C5B73"/>
<path d="M317.11 132.973C316.9 132.193 316.91 131.423 317.15 130.643C317.39 129.873 317.85 129.153 318.52 128.503L321.11 125.973C321.78 125.323 322.51 124.883 323.29 124.663C324.07 124.443 324.85 124.453 325.62 124.683C326.39 124.913 327.1 125.363 327.75 126.033C328.39 126.693 328.83 127.413 329.04 128.193C329.25 128.973 329.24 129.743 329 130.523C328.76 131.293 328.3 132.013 327.63 132.663L325.03 135.183C324.36 135.833 323.63 136.273 322.85 136.493C322.07 136.713 321.29 136.703 320.52 136.473C319.75 136.243 319.04 135.793 318.39 135.123C317.76 134.473 317.33 133.753 317.11 132.973ZM321.12 134.083C321.48 134.193 321.84 134.183 322.21 134.083C322.58 133.973 322.92 133.763 323.24 133.453L325.92 130.843C326.24 130.533 326.46 130.193 326.58 129.833C326.7 129.473 326.71 129.103 326.61 128.743C326.51 128.383 326.31 128.043 326.01 127.733C325.71 127.423 325.38 127.213 325.01 127.103C324.65 126.993 324.28 126.993 323.92 127.103C323.55 127.213 323.21 127.423 322.89 127.733L320.21 130.343C319.89 130.653 319.67 130.993 319.55 131.353C319.43 131.723 319.42 132.083 319.52 132.443C319.62 132.803 319.82 133.143 320.12 133.453C320.42 133.763 320.76 133.973 321.12 134.083Z" fill="#1C5B73"/>
<path d="M334.509 134.003L335.839 136.013L325.189 143.073L323.859 141.063L334.509 134.003ZM330.529 137.963L332.789 141.373C332.949 141.613 333.139 141.783 333.369 141.893C333.599 142.003 333.849 142.043 334.119 142.013C334.389 141.983 334.649 141.883 334.909 141.713C335.169 141.543 335.369 141.333 335.509 141.103C335.649 140.873 335.709 140.623 335.699 140.363C335.689 140.103 335.599 139.853 335.439 139.613L333.179 136.203L335.109 134.923L337.329 138.283C337.769 138.943 338.019 139.623 338.079 140.303C338.139 140.993 338.019 141.633 337.709 142.243C337.399 142.843 336.919 143.363 336.269 143.793C335.619 144.223 334.959 144.463 334.279 144.503C333.599 144.553 332.969 144.413 332.359 144.083C331.759 143.753 331.239 143.263 330.789 142.593L328.569 139.233L330.529 137.963Z" fill="#1C5B73"/>
<path d="M222.6 225.264L224.34 226.934L215.5 236.174L213.76 234.504L222.6 225.264ZM219.62 229.774L222.83 232.844C223.01 233.014 223.21 233.124 223.43 233.164C223.65 233.204 223.88 233.174 224.11 233.084C224.34 232.994 224.56 232.834 224.77 232.624C224.98 232.404 225.12 232.184 225.21 231.944C225.29 231.704 225.31 231.484 225.26 231.264C225.21 231.044 225.09 230.844 224.91 230.674L221.7 227.604L223.3 225.924L226.65 229.134C227.16 229.624 227.5 230.164 227.66 230.754C227.83 231.354 227.82 231.964 227.63 232.584C227.44 233.204 227.09 233.784 226.56 234.334C226.03 234.884 225.46 235.264 224.85 235.484C224.24 235.694 223.63 235.734 223.02 235.594C222.41 235.454 221.86 235.144 221.35 234.654L218 231.444L219.62 229.774ZM220.23 233.024L222.37 234.514L220.75 241.194L218.64 239.174L220.23 233.024Z" fill="#1C5B73"/>
<path d="M231.92 233.663L233.93 234.983L226.92 245.673L224.91 244.353L231.92 233.663ZM226.91 242.893L233.34 247.113L232.07 249.053L225.64 244.833L226.91 242.893ZM229.75 238.553L235.37 242.243L234.1 244.183L228.48 240.493L229.75 238.553ZM232.65 234.143L239.08 238.363L237.81 240.303L231.38 236.083L232.65 234.143Z" fill="#1C5B73"/>
<path d="M238.81 252.323C238.32 251.983 237.89 251.603 237.51 251.183C237.13 250.763 236.82 250.323 236.58 249.853L238.38 248.463C238.67 249.033 239.08 249.533 239.58 249.993C240.09 250.443 240.65 250.803 241.28 251.073C242 251.383 242.62 251.493 243.12 251.423C243.62 251.343 243.97 251.083 244.16 250.633V250.623C244.29 250.313 244.31 250.023 244.21 249.763C244.11 249.503 243.94 249.273 243.69 249.063C243.44 248.853 243.11 248.623 242.69 248.363C242.68 248.353 242.66 248.343 242.65 248.333C242.64 248.323 242.62 248.313 242.61 248.303L242.44 248.203C241.7 247.743 241.12 247.313 240.68 246.903C240.24 246.493 239.94 245.983 239.78 245.363C239.62 244.743 239.72 244.003 240.08 243.143V243.133C240.4 242.373 240.85 241.793 241.42 241.403C241.99 241.003 242.66 240.803 243.42 240.793C244.19 240.783 245.03 240.973 245.95 241.363C246.37 241.543 246.78 241.773 247.18 242.053C247.58 242.333 247.95 242.663 248.29 243.023C248.63 243.383 248.94 243.773 249.21 244.193L247.47 245.673C247.15 245.173 246.78 244.723 246.36 244.343C245.94 243.963 245.5 243.673 245.05 243.483C244.37 243.193 243.8 243.083 243.33 243.153C242.86 243.223 242.54 243.453 242.37 243.863V243.873C242.23 244.213 242.21 244.523 242.32 244.803C242.43 245.083 242.61 245.333 242.86 245.543C243.11 245.753 243.47 246.023 243.94 246.343C243.96 246.353 243.98 246.373 244 246.383C244.02 246.393 244.04 246.403 244.06 246.423C244.09 246.443 244.12 246.463 244.14 246.483C244.17 246.503 244.19 246.523 244.22 246.543C244.9 247.003 245.45 247.443 245.86 247.863C246.27 248.283 246.54 248.793 246.68 249.393C246.82 249.993 246.72 250.693 246.38 251.493L246.37 251.513C246.05 252.263 245.6 252.833 245.03 253.213C244.46 253.593 243.77 253.793 242.98 253.783C242.19 253.773 241.32 253.573 240.38 253.173C239.83 252.953 239.3 252.663 238.81 252.323Z" fill="#1C5B73"/>
<path d="M251.03 243.573L260.13 245.793L259.58 248.043L250.48 245.823L251.03 243.573ZM254.17 245.413L256.51 245.983L253.73 257.383L251.39 256.813L254.17 245.413Z" fill="#1C5B73"/>
<path d="M265.6 246.323L267.13 246.433L271.07 259.533L268.48 259.343L266.06 250.413L262.37 258.893L259.79 258.703L265.6 246.323ZM262.45 254.533L269.16 255.023L268.99 257.333L262.28 256.843L262.45 254.533Z" fill="#1C5B73"/>
<path d="M277.8 258.673C277.06 258.383 276.47 257.903 276.03 257.243C275.59 256.583 275.31 255.743 275.19 254.753L274.24 246.653L276.63 246.373L277.58 254.533C277.66 255.263 277.93 255.803 278.36 256.163C278.8 256.523 279.37 256.653 280.08 256.573C280.8 256.493 281.33 256.223 281.67 255.773C282.01 255.323 282.15 254.733 282.06 254.013L281.11 245.853L283.5 245.573L284.45 253.673C284.57 254.673 284.48 255.543 284.2 256.293C283.92 257.043 283.45 257.643 282.8 258.093C282.15 258.543 281.33 258.823 280.35 258.943C279.37 259.063 278.53 258.963 277.8 258.673Z" fill="#1C5B73"/>
<path d="M286.95 244.803L289.24 244.073L293.13 256.253L290.84 256.983L286.95 244.803ZM289.48 249.583L293.72 248.233C293.95 248.163 294.14 248.033 294.28 247.863C294.42 247.693 294.51 247.473 294.53 247.233C294.56 246.983 294.53 246.713 294.44 246.433C294.35 246.153 294.22 245.913 294.05 245.723C293.88 245.533 293.69 245.413 293.47 245.353C293.25 245.293 293.03 245.303 292.79 245.373L288.55 246.723L287.84 244.513L292.26 243.103C292.93 242.893 293.57 242.853 294.17 242.993C294.77 243.133 295.3 243.433 295.76 243.893C296.21 244.353 296.56 244.943 296.79 245.673C297.02 246.403 297.09 247.083 296.98 247.723C296.88 248.363 296.62 248.913 296.2 249.383C295.79 249.843 295.25 250.183 294.58 250.393L290.16 251.803L289.48 249.583ZM292.63 250.593L294.96 249.423L300.05 254.033L297.27 254.923L292.63 250.593Z" fill="#1C5B73"/>
<path d="M302.05 238.873L303.39 238.133L313.82 246.993L311.55 248.243L304.67 242.063L306.18 251.183L303.91 252.433L302.05 238.873ZM303.86 247.473L309.76 244.243L310.88 246.273L304.98 249.503L303.86 247.473Z" fill="#1C5B73"/>
<path d="M309.67 234.333L311.92 232.443L321.86 236.883L321.85 237.193L315.4 229.523L317.16 228.043L325.38 237.823L323.11 239.733L313.28 235.403L313.29 235.093L319.64 242.653L317.88 244.133L309.67 234.333Z" fill="#1C5B73"/>
<path d="M318.47 226.703L324.5 219.533L326.28 221.023L320.25 228.193L318.47 226.703ZM321.51 224.713L323.06 222.873L332.04 230.423L330.49 232.263L321.51 224.713Z" fill="#1C5B73"/>
<path d="M250.339 160.583L271.199 186.963L292.429 160.583H250.339Z" stroke="#1C5B73" stroke-width="2" stroke-miterlimit="10"/>
<path d="M271.199 186.963L271.389 201.163L264.409 209.583H278.229L271.389 201.163" stroke="#1C5B73" stroke-width="2" stroke-miterlimit="10"/>
<path d="M252.279 160.823V152.133H257.609V159.983H259.119V155.323L260.299 152.133L261.799 155.243V160.823H264.189V148.223H268.249V160.823H268.679L269.559 160.103H270.279V160.493H270.839V148.223H274.669V159.593H276.759V161.063H278.399V160.133H279.809V156.103L282.619 155.003L284.979 156.013V160.343H286.389V152.503H290.509V161.063" fill="#1C5B73"/>
<path d="M276.319 159.593V154.953H278.229V159.593" fill="#1C5B73"/>
<path d="M279.069 159.592V152.982H282.349H283.069V159.592" fill="#1C5B73"/>
<path d="M261.799 155.242H263.129V159.592H261.799" fill="#1C5B73"/>
<path d="M268.25 156.982H270.84V159.592H268.25" fill="#1C5B73"/>
<path d="M287.109 167.692H255.959" stroke="#1C5B73" stroke-width="2" stroke-miterlimit="10"/>
<path d="M483.371 164.293C481.717 164.293 480.253 163.993 478.977 163.395C477.701 162.796 476.678 161.923 475.91 160.777C475.155 159.618 474.706 158.238 474.562 156.637H479.348C479.452 157.34 479.667 157.926 479.992 158.395C480.318 158.85 480.741 159.195 481.262 159.43C481.783 159.664 482.388 159.781 483.078 159.781C484.25 159.781 485.155 159.469 485.793 158.844C486.431 158.206 486.75 157.307 486.75 156.148V155.387C486.75 154.137 486.464 153.173 485.891 152.496C485.331 151.806 484.523 151.461 483.469 151.461H481.262V147.008H483.469C484.367 147.008 485.057 146.715 485.539 146.129C486.034 145.53 486.281 144.697 486.281 143.629V142.945C486.281 141.943 486.014 141.174 485.48 140.641C484.96 140.094 484.217 139.82 483.254 139.82C482.668 139.82 482.141 139.944 481.672 140.191C481.216 140.439 480.826 140.816 480.5 141.324C480.174 141.819 479.94 142.431 479.797 143.16H475.031C475.24 141.52 475.715 140.107 476.457 138.922C477.212 137.737 478.176 136.839 479.348 136.227C480.533 135.615 481.867 135.309 483.352 135.309C485.826 135.309 487.74 135.953 489.094 137.242C490.461 138.531 491.145 140.348 491.145 142.691V143.355C491.145 144.723 490.786 145.914 490.07 146.93C489.354 147.945 488.339 148.694 487.023 149.176C488.482 149.501 489.608 150.243 490.402 151.402C491.21 152.548 491.613 154.013 491.613 155.797V156.461C491.613 158.115 491.288 159.527 490.637 160.699C489.999 161.871 489.061 162.763 487.824 163.375C486.587 163.987 485.103 164.293 483.371 164.293ZM504.426 164.293C502.72 164.293 501.262 163.961 500.051 163.297C498.84 162.62 497.915 161.643 497.277 160.367C496.639 159.078 496.32 157.529 496.32 155.719V155.699C496.32 154.658 496.444 153.564 496.691 152.418C496.952 151.259 497.316 150.107 497.785 148.961C497.863 148.766 497.941 148.577 498.02 148.395C498.111 148.199 498.202 148.01 498.293 147.828L504.27 135.602H509.426L502.395 149.762L501.73 149.059C502.056 148.447 502.531 147.971 503.156 147.633C503.781 147.294 504.51 147.125 505.344 147.125C506.854 147.125 508.15 147.457 509.23 148.121C510.311 148.785 511.132 149.755 511.691 151.031C512.264 152.294 512.551 153.818 512.551 155.602V155.621C512.551 157.444 512.232 159.007 511.594 160.309C510.956 161.611 510.025 162.6 508.801 163.277C507.59 163.954 506.132 164.293 504.426 164.293ZM504.426 159.801C505.533 159.801 506.385 159.469 506.984 158.805C507.583 158.141 507.883 157.19 507.883 155.953V155.934C507.883 154.553 507.577 153.492 506.965 152.75C506.353 151.995 505.474 151.617 504.328 151.617C503.26 151.617 502.434 151.995 501.848 152.75C501.275 153.505 500.988 154.573 500.988 155.953V155.973C500.988 157.21 501.288 158.16 501.887 158.824C502.486 159.475 503.332 159.801 504.426 159.801ZM525.754 164.293C523.046 164.293 520.982 163.583 519.562 162.164C518.156 160.745 517.453 158.766 517.453 156.227V143.316C517.453 140.764 518.163 138.785 519.582 137.379C521.001 135.96 523.059 135.25 525.754 135.25C528.462 135.25 530.52 135.953 531.926 137.359C533.345 138.766 534.055 140.751 534.055 143.316V156.227C534.055 158.779 533.345 160.764 531.926 162.184C530.507 163.59 528.449 164.293 525.754 164.293ZM525.754 159.82C527.004 159.82 527.922 159.456 528.508 158.727C529.094 157.984 529.387 156.923 529.387 155.543V144C529.387 142.62 529.094 141.565 528.508 140.836C527.922 140.094 527.004 139.723 525.754 139.723C524.504 139.723 523.586 140.094 523 140.836C522.414 141.565 522.121 142.62 522.121 144V155.543C522.121 156.923 522.414 157.984 523 158.727C523.586 159.456 524.504 159.82 525.754 159.82Z" fill="#1C5B73"/>
<path d="M549.727 162.43H553.582C555.16 162.43 556.34 162.062 557.121 161.328C557.91 160.586 558.305 159.473 558.305 157.988V152.973C558.305 151.488 557.91 150.379 557.121 149.645C556.34 148.902 555.16 148.531 553.582 148.531H549.727V146.961H553.512C554.957 146.961 556.16 147.188 557.121 147.641C558.082 148.086 558.801 148.762 559.277 149.668C559.754 150.574 559.992 151.707 559.992 153.066V157.895C559.992 159.254 559.75 160.387 559.266 161.293C558.789 162.191 558.07 162.867 557.109 163.32C556.148 163.773 554.945 164 553.5 164H549.727V162.43ZM548.109 146.961H549.797V164H548.109V146.961ZM563.859 146.961H565.547V164H563.859V146.961ZM565.02 162.43H574.805V164H565.02V162.43ZM565.02 154.754H573.516V156.324H565.02V154.754ZM565.02 146.961H574.805V148.531H565.02V146.961ZM589.852 155.293V157.801C589.852 159.223 589.629 160.406 589.184 161.352C588.746 162.297 588.086 163.004 587.203 163.473C586.32 163.941 585.215 164.176 583.887 164.176C582.543 164.176 581.422 163.953 580.523 163.508C579.633 163.062 578.965 162.398 578.52 161.516C578.074 160.625 577.852 159.512 577.852 158.176V153.148C577.852 151.727 578.07 150.547 578.508 149.609C578.953 148.664 579.617 147.957 580.5 147.488C581.383 147.02 582.488 146.785 583.816 146.785C584.918 146.785 585.867 146.973 586.664 147.348C587.461 147.723 588.113 148.285 588.621 149.035C589.129 149.777 589.492 150.715 589.711 151.848H587.883C587.68 151.066 587.395 150.418 587.027 149.902C586.668 149.387 586.219 149 585.68 148.742C585.148 148.484 584.527 148.355 583.816 148.355C582.863 148.355 582.07 148.535 581.438 148.895C580.805 149.246 580.328 149.777 580.008 150.488C579.695 151.191 579.539 152.078 579.539 153.148V158.176C579.539 159.168 579.699 159.992 580.02 160.648C580.34 161.297 580.82 161.785 581.461 162.113C582.109 162.441 582.918 162.605 583.887 162.605C584.832 162.605 585.609 162.438 586.219 162.102C586.836 161.766 587.297 161.246 587.602 160.543C587.914 159.84 588.07 158.938 588.07 157.836V156.863H583.945V155.293H589.852ZM594.762 155.223H600.574C601.207 155.223 601.762 155.086 602.238 154.812C602.723 154.531 603.094 154.137 603.352 153.629C603.617 153.121 603.754 152.535 603.762 151.871C603.762 151.207 603.629 150.621 603.363 150.113C603.105 149.605 602.734 149.215 602.25 148.941C601.773 148.66 601.215 148.52 600.574 148.52H594.762V146.949H600.48C601.465 146.949 602.328 147.152 603.07 147.559C603.82 147.965 604.398 148.543 604.805 149.293C605.219 150.035 605.426 150.895 605.426 151.871C605.426 152.848 605.219 153.711 604.805 154.461C604.398 155.203 603.82 155.777 603.07 156.184C602.32 156.59 601.457 156.793 600.48 156.793H594.762V155.223ZM593.719 146.949H595.406V164H593.719V146.949ZM600.223 156.266L601.781 155.727L606.141 164H604.125L600.223 156.266ZM609.375 146.961H611.062V164H609.375V146.961ZM610.535 162.43H620.32V164H610.535V162.43ZM610.535 154.754H619.031V156.324H610.535V154.754ZM610.535 146.961H620.32V148.531H610.535V146.961ZM623.719 146.961H625.406V164H623.719V146.961ZM624.879 162.43H634.664V164H624.879V162.43ZM624.879 154.754H633.375V156.324H624.879V154.754ZM624.879 146.961H634.664V148.531H624.879V146.961ZM643.184 164.176C642.363 164.176 641.586 164.098 640.852 163.941C640.117 163.785 639.43 163.551 638.789 163.238C638.156 162.926 637.562 162.535 637.008 162.066L638.027 160.73C638.738 161.355 639.523 161.824 640.383 162.137C641.242 162.449 642.176 162.605 643.184 162.605C644.645 162.605 645.773 162.316 646.57 161.738C647.375 161.16 647.777 160.348 647.777 159.301V159.289C647.777 158.641 647.602 158.121 647.25 157.73C646.906 157.34 646.457 157.047 645.902 156.852C645.355 156.656 644.648 156.477 643.781 156.312C643.758 156.305 643.73 156.301 643.699 156.301C643.676 156.293 643.648 156.285 643.617 156.277L643.277 156.207C642.082 155.98 641.125 155.746 640.406 155.504C639.688 155.254 639.074 154.836 638.566 154.25C638.066 153.656 637.816 152.836 637.816 151.789V151.777C637.816 150.723 638.051 149.824 638.52 149.082C638.996 148.332 639.688 147.762 640.594 147.371C641.5 146.98 642.59 146.785 643.863 146.785C644.465 146.785 645.059 146.852 645.645 146.984C646.238 147.117 646.82 147.316 647.391 147.582C647.969 147.84 648.539 148.168 649.102 148.566L648.105 149.891C647.371 149.375 646.652 148.992 645.949 148.742C645.246 148.484 644.551 148.355 643.863 148.355C642.473 148.355 641.395 148.648 640.629 149.234C639.863 149.82 639.48 150.645 639.48 151.707V151.719C639.48 152.359 639.672 152.867 640.055 153.242C640.438 153.609 640.91 153.883 641.473 154.062C642.043 154.242 642.82 154.43 643.805 154.625C643.836 154.633 643.867 154.641 643.898 154.648C643.938 154.656 643.977 154.664 644.016 154.672C644.062 154.68 644.105 154.691 644.145 154.707C644.191 154.715 644.238 154.723 644.285 154.73C645.355 154.949 646.246 155.199 646.957 155.48C647.668 155.762 648.258 156.203 648.727 156.805C649.203 157.398 649.441 158.203 649.441 159.219V159.242C649.441 160.281 649.195 161.172 648.703 161.914C648.211 162.648 647.496 163.211 646.559 163.602C645.629 163.984 644.504 164.176 643.184 164.176Z" fill="#1C5B73"/>
<path d="M475.109 178.961H476.797V196H475.109V178.961ZM476.305 194.43H486.055V196H476.305V194.43ZM488.867 178.961H490.555V196H488.867V178.961ZM490.027 194.43H499.812V196H490.027V194.43ZM490.027 186.754H498.523V188.324H490.027V186.754ZM490.027 178.961H499.812V180.531H490.027V178.961ZM507.312 178.961H509.012L518.902 194.312L518.211 193.844V178.961H519.898V195.988H518.176L508.086 180.52L509 181.188V195.988H507.312V178.961ZM529.754 196.176C528.488 196.176 527.406 195.93 526.508 195.438C525.617 194.945 524.938 194.23 524.469 193.293C524 192.355 523.766 191.223 523.766 189.895V185.066C523.766 183.738 524 182.605 524.469 181.668C524.938 180.73 525.617 180.016 526.508 179.523C527.406 179.031 528.488 178.785 529.754 178.785C531.02 178.785 532.098 179.031 532.988 179.523C533.887 180.016 534.57 180.73 535.039 181.668C535.508 182.605 535.742 183.738 535.742 185.066V189.895C535.742 191.223 535.508 192.355 535.039 193.293C534.57 194.23 533.887 194.945 532.988 195.438C532.098 195.93 531.02 196.176 529.754 196.176ZM529.754 194.605C530.66 194.605 531.434 194.426 532.074 194.066C532.723 193.699 533.215 193.172 533.551 192.484C533.887 191.789 534.055 190.953 534.055 189.977V184.984C534.055 184.008 533.887 183.176 533.551 182.488C533.215 181.793 532.723 181.266 532.074 180.906C531.434 180.539 530.66 180.355 529.754 180.355C528.848 180.355 528.07 180.539 527.422 180.906C526.781 181.266 526.293 181.793 525.957 182.488C525.621 183.176 525.453 184.008 525.453 184.984V189.977C525.453 190.953 525.621 191.789 525.957 192.484C526.293 193.172 526.781 193.699 527.422 194.066C528.07 194.426 528.848 194.605 529.754 194.605ZM545.352 196.176C544.016 196.176 542.906 195.945 542.023 195.484C541.141 195.023 540.477 194.336 540.031 193.422C539.594 192.5 539.375 191.344 539.375 189.953V178.961H541.062V190.035C541.062 191.527 541.418 192.648 542.129 193.398C542.84 194.141 543.914 194.512 545.352 194.512C546.789 194.512 547.867 194.141 548.586 193.398C549.305 192.648 549.664 191.527 549.664 190.035V178.961H551.352V189.953C551.352 191.344 551.129 192.5 550.684 193.422C550.246 194.336 549.582 195.023 548.691 195.484C547.801 195.945 546.688 196.176 545.352 196.176ZM553.344 178.961H555.125L560.035 193.609L564.945 178.961H566.727L560.82 196H559.25L553.344 178.961ZM569.188 178.961H570.875V196H569.188V178.961ZM570.348 194.43H580.133V196H570.348V194.43ZM570.348 186.754H578.844V188.324H570.348V186.754ZM570.348 178.961H580.133V180.531H570.348V178.961ZM588.172 178.961H590.211L596.492 196H594.617L589.191 180.73L583.766 196H581.891L588.172 178.961ZM584.785 190.293H593.75V191.863H584.785V190.293ZM604.461 196.176C603.125 196.176 602.016 195.945 601.133 195.484C600.25 195.023 599.586 194.336 599.141 193.422C598.703 192.5 598.484 191.344 598.484 189.953V178.961H600.172V190.035C600.172 191.527 600.527 192.648 601.238 193.398C601.949 194.141 603.023 194.512 604.461 194.512C605.898 194.512 606.977 194.141 607.695 193.398C608.414 192.648 608.773 191.527 608.773 190.035V178.961H610.461V189.953C610.461 191.344 610.238 192.5 609.793 193.422C609.355 194.336 608.691 195.023 607.801 195.484C606.91 195.945 605.797 196.176 604.461 196.176ZM619.953 194.43H624.629C626.074 194.43 627.125 194.16 627.781 193.621C628.445 193.074 628.777 192.309 628.777 191.324V191.289C628.777 190.617 628.652 190.039 628.402 189.555C628.16 189.07 627.773 188.699 627.242 188.441C626.719 188.176 626.043 188.043 625.215 188.043H619.953V186.473H625.215C626.324 186.473 627.156 186.227 627.711 185.734C628.273 185.242 628.555 184.512 628.555 183.543C628.555 182.535 628.25 181.781 627.641 181.281C627.031 180.781 626.113 180.531 624.887 180.531H619.953V178.961H625.262C626.363 178.961 627.285 179.148 628.027 179.523C628.77 179.898 629.324 180.43 629.691 181.117C630.059 181.805 630.242 182.625 630.242 183.578C630.242 184.156 630.129 184.703 629.902 185.219C629.676 185.727 629.328 186.164 628.859 186.531C628.398 186.898 627.824 187.145 627.137 187.27C627.824 187.371 628.418 187.617 628.918 188.008C629.418 188.391 629.801 188.871 630.066 189.449C630.332 190.027 630.465 190.652 630.465 191.324V191.359C630.465 192.281 630.262 193.094 629.855 193.797C629.449 194.5 628.867 195.043 628.109 195.426C627.352 195.809 626.469 196 625.461 196H619.953V194.43ZM618.547 178.961H620.234V196H618.547V178.961ZM638.68 178.961H640.719L647 196H645.125L639.699 180.73L634.273 196H632.398L638.68 178.961ZM635.293 190.293H644.258V191.863H635.293V190.293ZM650.621 187.223H656.434C657.066 187.223 657.621 187.086 658.098 186.812C658.582 186.531 658.953 186.137 659.211 185.629C659.477 185.121 659.613 184.535 659.621 183.871C659.621 183.207 659.488 182.621 659.223 182.113C658.965 181.605 658.594 181.215 658.109 180.941C657.633 180.66 657.074 180.52 656.434 180.52H650.621V178.949H656.34C657.324 178.949 658.188 179.152 658.93 179.559C659.68 179.965 660.258 180.543 660.664 181.293C661.078 182.035 661.285 182.895 661.285 183.871C661.285 184.848 661.078 185.711 660.664 186.461C660.258 187.203 659.68 187.777 658.93 188.184C658.18 188.59 657.316 188.793 656.34 188.793H650.621V187.223ZM649.578 178.949H651.266V196H649.578V178.949ZM656.082 188.266L657.641 187.727L662 196H659.984L656.082 188.266ZM669.336 178.961H671.023V196H669.336V178.961ZM670.531 194.43H680.281V196H670.531V194.43ZM688.73 196.176C687.465 196.176 686.383 195.93 685.484 195.438C684.594 194.945 683.914 194.23 683.445 193.293C682.977 192.355 682.742 191.223 682.742 189.895V185.066C682.742 183.738 682.977 182.605 683.445 181.668C683.914 180.73 684.594 180.016 685.484 179.523C686.383 179.031 687.465 178.785 688.73 178.785C689.996 178.785 691.074 179.031 691.965 179.523C692.863 180.016 693.547 180.73 694.016 181.668C694.484 182.605 694.719 183.738 694.719 185.066V189.895C694.719 191.223 694.484 192.355 694.016 193.293C693.547 194.23 692.863 194.945 691.965 195.438C691.074 195.93 689.996 196.176 688.73 196.176ZM688.73 194.605C689.637 194.605 690.41 194.426 691.051 194.066C691.699 193.699 692.191 193.172 692.527 192.484C692.863 191.789 693.031 190.953 693.031 189.977V184.984C693.031 184.008 692.863 183.176 692.527 182.488C692.191 181.793 691.699 181.266 691.051 180.906C690.41 180.539 689.637 180.355 688.73 180.355C687.824 180.355 687.047 180.539 686.398 180.906C685.758 181.266 685.27 181.793 684.934 182.488C684.598 183.176 684.43 184.008 684.43 184.984V189.977C684.43 190.953 684.598 191.789 684.934 192.484C685.27 193.172 685.758 193.699 686.398 194.066C687.047 194.426 687.824 194.605 688.73 194.605ZM704.328 196.176C702.992 196.176 701.883 195.945 701 195.484C700.117 195.023 699.453 194.336 699.008 193.422C698.57 192.5 698.352 191.344 698.352 189.953V178.961H700.039V190.035C700.039 191.527 700.395 192.648 701.105 193.398C701.816 194.141 702.891 194.512 704.328 194.512C705.766 194.512 706.844 194.141 707.562 193.398C708.281 192.648 708.641 191.527 708.641 190.035V178.961H710.328V189.953C710.328 191.344 710.105 192.5 709.66 193.422C709.223 194.336 708.559 195.023 707.668 195.484C706.777 195.945 705.664 196.176 704.328 196.176ZM714.312 178.961H716.012L725.902 194.312L725.211 193.844V178.961H726.898V195.988H725.176L715.086 180.52L716 181.188V195.988H714.312V178.961ZM742.766 187.293V189.801C742.766 191.223 742.543 192.406 742.098 193.352C741.66 194.297 741 195.004 740.117 195.473C739.234 195.941 738.129 196.176 736.801 196.176C735.457 196.176 734.336 195.953 733.438 195.508C732.547 195.062 731.879 194.398 731.434 193.516C730.988 192.625 730.766 191.512 730.766 190.176V185.148C730.766 183.727 730.984 182.547 731.422 181.609C731.867 180.664 732.531 179.957 733.414 179.488C734.297 179.02 735.402 178.785 736.73 178.785C737.832 178.785 738.781 178.973 739.578 179.348C740.375 179.723 741.027 180.285 741.535 181.035C742.043 181.777 742.406 182.715 742.625 183.848H740.797C740.594 183.066 740.309 182.418 739.941 181.902C739.582 181.387 739.133 181 738.594 180.742C738.062 180.484 737.441 180.355 736.73 180.355C735.777 180.355 734.984 180.535 734.352 180.895C733.719 181.246 733.242 181.777 732.922 182.488C732.609 183.191 732.453 184.078 732.453 185.148V190.176C732.453 191.168 732.613 191.992 732.934 192.648C733.254 193.297 733.734 193.785 734.375 194.113C735.023 194.441 735.832 194.605 736.801 194.605C737.746 194.605 738.523 194.438 739.133 194.102C739.75 193.766 740.211 193.246 740.516 192.543C740.828 191.84 740.984 190.938 740.984 189.836V188.863H736.859V187.293H742.766ZM746.633 178.961H748.32V196H746.633V178.961ZM747.793 194.43H757.578V196H747.793V194.43ZM747.793 186.754H756.289V188.324H747.793V186.754ZM747.793 178.961H757.578V180.531H747.793V178.961ZM765.078 178.961H766.766V196H765.078V178.961ZM766.238 194.43H776.023V196H766.238V194.43ZM766.238 186.754H774.734V188.324H766.238V186.754ZM766.238 178.961H776.023V180.531H766.238V178.961ZM782.246 179.652H783.934V196H782.246V179.652ZM777.078 178.961H789.102V180.531H777.078V178.961ZM796.121 187.223H801.934C802.566 187.223 803.121 187.086 803.598 186.812C804.082 186.531 804.453 186.137 804.711 185.629C804.977 185.121 805.113 184.535 805.121 183.871C805.121 183.207 804.988 182.621 804.723 182.113C804.465 181.605 804.094 181.215 803.609 180.941C803.133 180.66 802.574 180.52 801.934 180.52H796.121V178.949H801.84C802.824 178.949 803.688 179.152 804.43 179.559C805.18 179.965 805.758 180.543 806.164 181.293C806.578 182.035 806.785 182.895 806.785 183.871C806.785 184.848 806.578 185.711 806.164 186.461C805.758 187.203 805.18 187.777 804.43 188.184C803.68 188.59 802.816 188.793 801.84 188.793H796.121V187.223ZM795.078 178.949H796.766V196H795.078V178.949ZM801.582 188.266L803.141 187.727L807.5 196H805.484L801.582 188.266ZM816.371 196.176C815.105 196.176 814.023 195.93 813.125 195.438C812.234 194.945 811.555 194.23 811.086 193.293C810.617 192.355 810.383 191.223 810.383 189.895V185.066C810.383 183.738 810.617 182.605 811.086 181.668C811.555 180.73 812.234 180.016 813.125 179.523C814.023 179.031 815.105 178.785 816.371 178.785C817.637 178.785 818.715 179.031 819.605 179.523C820.504 180.016 821.188 180.73 821.656 181.668C822.125 182.605 822.359 183.738 822.359 185.066V189.895C822.359 191.223 822.125 192.355 821.656 193.293C821.188 194.23 820.504 194.945 819.605 195.438C818.715 195.93 817.637 196.176 816.371 196.176ZM816.371 194.605C817.277 194.605 818.051 194.426 818.691 194.066C819.34 193.699 819.832 193.172 820.168 192.484C820.504 191.789 820.672 190.953 820.672 189.977V184.984C820.672 184.008 820.504 183.176 820.168 182.488C819.832 181.793 819.34 181.266 818.691 180.906C818.051 180.539 817.277 180.355 816.371 180.355C815.465 180.355 814.688 180.539 814.039 180.906C813.398 181.266 812.91 181.793 812.574 182.488C812.238 183.176 812.07 184.008 812.07 184.984V189.977C812.07 190.953 812.238 191.789 812.574 192.484C812.91 193.172 813.398 193.699 814.039 194.066C814.688 194.426 815.465 194.605 816.371 194.605ZM831.863 196.176C830.598 196.176 829.516 195.93 828.617 195.438C827.727 194.945 827.047 194.23 826.578 193.293C826.109 192.355 825.875 191.223 825.875 189.895V185.066C825.875 183.738 826.109 182.605 826.578 181.668C827.047 180.73 827.727 180.016 828.617 179.523C829.516 179.031 830.598 178.785 831.863 178.785C833.129 178.785 834.207 179.031 835.098 179.523C835.996 180.016 836.68 180.73 837.148 181.668C837.617 182.605 837.852 183.738 837.852 185.066V189.895C837.852 191.223 837.617 192.355 837.148 193.293C836.68 194.23 835.996 194.945 835.098 195.438C834.207 195.93 833.129 196.176 831.863 196.176ZM831.863 194.605C832.77 194.605 833.543 194.426 834.184 194.066C834.832 193.699 835.324 193.172 835.66 192.484C835.996 191.789 836.164 190.953 836.164 189.977V184.984C836.164 184.008 835.996 183.176 835.66 182.488C835.324 181.793 834.832 181.266 834.184 180.906C833.543 180.539 832.77 180.355 831.863 180.355C830.957 180.355 830.18 180.539 829.531 180.906C828.891 181.266 828.402 181.793 828.066 182.488C827.73 183.176 827.562 184.008 827.562 184.984V189.977C827.562 190.953 827.73 191.789 828.066 192.484C828.402 193.172 828.891 193.699 829.531 194.066C830.18 194.426 830.957 194.605 831.863 194.605ZM841.719 178.961H843.406V196H841.719V178.961ZM842.891 186.906H851.152V188.477H842.891V186.906ZM842.891 178.961H852.441V180.531H842.891V178.961ZM857.973 179.652H859.66V196H857.973V179.652ZM852.805 178.961H864.828V180.531H852.805V178.961ZM872.34 196.176C871.074 196.176 869.992 195.93 869.094 195.438C868.203 194.945 867.523 194.23 867.055 193.293C866.586 192.355 866.352 191.223 866.352 189.895V185.066C866.352 183.738 866.586 182.605 867.055 181.668C867.523 180.73 868.203 180.016 869.094 179.523C869.992 179.031 871.074 178.785 872.34 178.785C873.605 178.785 874.684 179.031 875.574 179.523C876.473 180.016 877.156 180.73 877.625 181.668C878.094 182.605 878.328 183.738 878.328 185.066V189.895C878.328 191.223 878.094 192.355 877.625 193.293C877.156 194.23 876.473 194.945 875.574 195.438C874.684 195.93 873.605 196.176 872.34 196.176ZM872.34 194.605C873.246 194.605 874.02 194.426 874.66 194.066C875.309 193.699 875.801 193.172 876.137 192.484C876.473 191.789 876.641 190.953 876.641 189.977V184.984C876.641 184.008 876.473 183.176 876.137 182.488C875.801 181.793 875.309 181.266 874.66 180.906C874.02 180.539 873.246 180.355 872.34 180.355C871.434 180.355 870.656 180.539 870.008 180.906C869.367 181.266 868.879 181.793 868.543 182.488C868.207 183.176 868.039 184.008 868.039 184.984V189.977C868.039 190.953 868.207 191.789 868.543 192.484C868.879 193.172 869.367 193.699 870.008 194.066C870.656 194.426 871.434 194.605 872.34 194.605ZM883.426 187.82H888.875C889.539 187.82 890.125 187.668 890.633 187.363C891.141 187.059 891.531 186.633 891.805 186.086C892.086 185.539 892.227 184.906 892.227 184.188C892.227 183.461 892.086 182.824 891.805 182.277C891.531 181.723 891.141 181.293 890.633 180.988C890.125 180.684 889.539 180.531 888.875 180.531H883.426V178.961H888.793C889.809 178.961 890.703 179.18 891.477 179.617C892.25 180.047 892.848 180.656 893.27 181.445C893.699 182.234 893.914 183.148 893.914 184.188C893.914 185.219 893.699 186.129 893.27 186.918C892.848 187.699 892.25 188.309 891.477 188.746C890.703 189.176 889.809 189.391 888.793 189.391H883.426V187.82ZM882.195 178.961H883.883V196H882.195V178.961ZM477.934 208.652H479.621V225H477.934V208.652ZM472.766 207.961H484.789V209.531H472.766V207.961ZM491.07 207.961H493.109L499.391 225H497.516L492.09 209.73L486.664 225H484.789L491.07 207.961ZM487.684 219.293H496.648V220.863H487.684V219.293ZM503.199 216.82H508.648C509.312 216.82 509.898 216.668 510.406 216.363C510.914 216.059 511.305 215.633 511.578 215.086C511.859 214.539 512 213.906 512 213.188C512 212.461 511.859 211.824 511.578 211.277C511.305 210.723 510.914 210.293 510.406 209.988C509.898 209.684 509.312 209.531 508.648 209.531H503.199V207.961H508.566C509.582 207.961 510.477 208.18 511.25 208.617C512.023 209.047 512.621 209.656 513.043 210.445C513.473 211.234 513.688 212.148 513.688 213.188C513.688 214.219 513.473 215.129 513.043 215.918C512.621 216.699 512.023 217.309 511.25 217.746C510.477 218.176 509.582 218.391 508.566 218.391H503.199V216.82ZM501.969 207.961H503.656V225H501.969V207.961ZM520.508 207.961H522.547L528.828 225H526.953L521.527 209.73L516.102 225H514.227L520.508 207.961ZM517.121 219.293H526.086V220.863H517.121V219.293ZM536.176 225.176C535.355 225.176 534.578 225.098 533.844 224.941C533.109 224.785 532.422 224.551 531.781 224.238C531.148 223.926 530.555 223.535 530 223.066L531.02 221.73C531.73 222.355 532.516 222.824 533.375 223.137C534.234 223.449 535.168 223.605 536.176 223.605C537.637 223.605 538.766 223.316 539.562 222.738C540.367 222.16 540.77 221.348 540.77 220.301V220.289C540.77 219.641 540.594 219.121 540.242 218.73C539.898 218.34 539.449 218.047 538.895 217.852C538.348 217.656 537.641 217.477 536.773 217.312C536.75 217.305 536.723 217.301 536.691 217.301C536.668 217.293 536.641 217.285 536.609 217.277L536.27 217.207C535.074 216.98 534.117 216.746 533.398 216.504C532.68 216.254 532.066 215.836 531.559 215.25C531.059 214.656 530.809 213.836 530.809 212.789V212.777C530.809 211.723 531.043 210.824 531.512 210.082C531.988 209.332 532.68 208.762 533.586 208.371C534.492 207.98 535.582 207.785 536.855 207.785C537.457 207.785 538.051 207.852 538.637 207.984C539.23 208.117 539.812 208.316 540.383 208.582C540.961 208.84 541.531 209.168 542.094 209.566L541.098 210.891C540.363 210.375 539.645 209.992 538.941 209.742C538.238 209.484 537.543 209.355 536.855 209.355C535.465 209.355 534.387 209.648 533.621 210.234C532.855 210.82 532.473 211.645 532.473 212.707V212.719C532.473 213.359 532.664 213.867 533.047 214.242C533.43 214.609 533.902 214.883 534.465 215.062C535.035 215.242 535.812 215.43 536.797 215.625C536.828 215.633 536.859 215.641 536.891 215.648C536.93 215.656 536.969 215.664 537.008 215.672C537.055 215.68 537.098 215.691 537.137 215.707C537.184 215.715 537.23 215.723 537.277 215.73C538.348 215.949 539.238 216.199 539.949 216.48C540.66 216.762 541.25 217.203 541.719 217.805C542.195 218.398 542.434 219.203 542.434 220.219V220.242C542.434 221.281 542.188 222.172 541.695 222.914C541.203 223.648 540.488 224.211 539.551 224.602C538.621 224.984 537.496 225.176 536.176 225.176ZM549.945 207.961H551.633V225H549.945V207.961ZM551.105 223.43H560.891V225H551.105V223.43ZM551.105 215.754H559.602V217.324H551.105V215.754ZM551.105 207.961H560.891V209.531H551.105V207.961ZM567.113 208.652H568.801V225H567.113V208.652ZM561.945 207.961H573.969V209.531H561.945V207.961ZM585.523 225.176C584.344 225.176 583.305 224.914 582.406 224.391C581.516 223.867 580.824 223.125 580.332 222.164C579.84 221.203 579.594 220.09 579.594 218.824V214.148C579.594 212.883 579.84 211.77 580.332 210.809C580.824 209.848 581.516 209.105 582.406 208.582C583.305 208.051 584.344 207.785 585.523 207.785C586.5 207.785 587.398 207.984 588.219 208.383C589.039 208.781 589.723 209.348 590.27 210.082C590.824 210.809 591.199 211.652 591.395 212.613H589.707C589.52 211.973 589.211 211.406 588.781 210.914C588.359 210.422 587.863 210.039 587.293 209.766C586.723 209.492 586.133 209.355 585.523 209.355C584.68 209.355 583.938 209.555 583.297 209.953C582.656 210.352 582.16 210.914 581.809 211.641C581.457 212.359 581.281 213.195 581.281 214.148V218.824C581.281 219.777 581.457 220.617 581.809 221.344C582.16 222.062 582.656 222.621 583.297 223.02C583.938 223.41 584.68 223.605 585.523 223.605C586.133 223.605 586.723 223.477 587.293 223.219C587.863 222.961 588.359 222.586 588.781 222.094C589.211 221.602 589.52 221.02 589.707 220.348H591.395C591.199 221.309 590.824 222.156 590.27 222.891C589.715 223.617 589.027 224.18 588.207 224.578C587.387 224.977 586.492 225.176 585.523 225.176ZM600.441 225.176C599.176 225.176 598.094 224.93 597.195 224.438C596.305 223.945 595.625 223.23 595.156 222.293C594.688 221.355 594.453 220.223 594.453 218.895V214.066C594.453 212.738 594.688 211.605 595.156 210.668C595.625 209.73 596.305 209.016 597.195 208.523C598.094 208.031 599.176 207.785 600.441 207.785C601.707 207.785 602.785 208.031 603.676 208.523C604.574 209.016 605.258 209.73 605.727 210.668C606.195 211.605 606.43 212.738 606.43 214.066V218.895C606.43 220.223 606.195 221.355 605.727 222.293C605.258 223.23 604.574 223.945 603.676 224.438C602.785 224.93 601.707 225.176 600.441 225.176ZM600.441 223.605C601.348 223.605 602.121 223.426 602.762 223.066C603.41 222.699 603.902 222.172 604.238 221.484C604.574 220.789 604.742 219.953 604.742 218.977V213.984C604.742 213.008 604.574 212.176 604.238 211.488C603.902 210.793 603.41 210.266 602.762 209.906C602.121 209.539 601.348 209.355 600.441 209.355C599.535 209.355 598.758 209.539 598.109 209.906C597.469 210.266 596.98 210.793 596.645 211.488C596.309 212.176 596.141 213.008 596.141 213.984V218.977C596.141 219.953 596.309 220.789 596.645 221.484C596.98 222.172 597.469 222.699 598.109 223.066C598.758 223.426 599.535 223.605 600.441 223.605ZM615.875 225.176C614.695 225.176 613.656 224.914 612.758 224.391C611.867 223.867 611.176 223.125 610.684 222.164C610.191 221.203 609.945 220.09 609.945 218.824V214.148C609.945 212.883 610.191 211.77 610.684 210.809C611.176 209.848 611.867 209.105 612.758 208.582C613.656 208.051 614.695 207.785 615.875 207.785C616.852 207.785 617.75 207.984 618.57 208.383C619.391 208.781 620.074 209.348 620.621 210.082C621.176 210.809 621.551 211.652 621.746 212.613H620.059C619.871 211.973 619.562 211.406 619.133 210.914C618.711 210.422 618.215 210.039 617.645 209.766C617.074 209.492 616.484 209.355 615.875 209.355C615.031 209.355 614.289 209.555 613.648 209.953C613.008 210.352 612.512 210.914 612.16 211.641C611.809 212.359 611.633 213.195 611.633 214.148V218.824C611.633 219.777 611.809 220.617 612.16 221.344C612.512 222.062 613.008 222.621 613.648 223.02C614.289 223.41 615.031 223.605 615.875 223.605C616.484 223.605 617.074 223.477 617.645 223.219C618.215 222.961 618.711 222.586 619.133 222.094C619.562 221.602 619.871 221.02 620.059 220.348H621.746C621.551 221.309 621.176 222.156 620.621 222.891C620.066 223.617 619.379 224.18 618.559 224.578C617.738 224.977 616.844 225.176 615.875 225.176ZM625.977 219.809L635.316 207.961H637.496L626.68 221.109L625.977 219.809ZM625.156 207.961H626.844V225H625.156V207.961ZM630.781 215.906L631.754 214.16L638.211 225H636.195L630.781 215.906ZM643.379 208.652H645.066V225H643.379V208.652ZM638.211 207.961H650.234V209.531H638.211V207.961ZM656.516 207.961H658.555L664.836 225H662.961L657.535 209.73L652.109 225H650.234L656.516 207.961ZM653.129 219.293H662.094V220.863H653.129V219.293ZM669.453 225H667.766V207.961H669.453V225ZM674.023 207.961H675.711V225H674.023V207.961ZM675.219 223.43H684.969V225H675.219V223.43ZM692.902 225.176C692.082 225.176 691.305 225.098 690.57 224.941C689.836 224.785 689.148 224.551 688.508 224.238C687.875 223.926 687.281 223.535 686.727 223.066L687.746 221.73C688.457 222.355 689.242 222.824 690.102 223.137C690.961 223.449 691.895 223.605 692.902 223.605C694.363 223.605 695.492 223.316 696.289 222.738C697.094 222.16 697.496 221.348 697.496 220.301V220.289C697.496 219.641 697.32 219.121 696.969 218.73C696.625 218.34 696.176 218.047 695.621 217.852C695.074 217.656 694.367 217.477 693.5 217.312C693.477 217.305 693.449 217.301 693.418 217.301C693.395 217.293 693.367 217.285 693.336 217.277L692.996 217.207C691.801 216.98 690.844 216.746 690.125 216.504C689.406 216.254 688.793 215.836 688.285 215.25C687.785 214.656 687.535 213.836 687.535 212.789V212.777C687.535 211.723 687.77 210.824 688.238 210.082C688.715 209.332 689.406 208.762 690.312 208.371C691.219 207.98 692.309 207.785 693.582 207.785C694.184 207.785 694.777 207.852 695.363 207.984C695.957 208.117 696.539 208.316 697.109 208.582C697.688 208.84 698.258 209.168 698.82 209.566L697.824 210.891C697.09 210.375 696.371 209.992 695.668 209.742C694.965 209.484 694.27 209.355 693.582 209.355C692.191 209.355 691.113 209.648 690.348 210.234C689.582 210.82 689.199 211.645 689.199 212.707V212.719C689.199 213.359 689.391 213.867 689.773 214.242C690.156 214.609 690.629 214.883 691.191 215.062C691.762 215.242 692.539 215.43 693.523 215.625C693.555 215.633 693.586 215.641 693.617 215.648C693.656 215.656 693.695 215.664 693.734 215.672C693.781 215.68 693.824 215.691 693.863 215.707C693.91 215.715 693.957 215.723 694.004 215.73C695.074 215.949 695.965 216.199 696.676 216.48C697.387 216.762 697.977 217.203 698.445 217.805C698.922 218.398 699.16 219.203 699.16 220.219V220.242C699.16 221.281 698.914 222.172 698.422 222.914C697.93 223.648 697.215 224.211 696.277 224.602C695.348 224.984 694.223 225.176 692.902 225.176ZM701.633 223.312H703.32V225L701.633 226.664V223.312ZM716.047 207.961H718.086L724.367 225H722.492L717.066 209.73L711.641 225H709.766L716.047 207.961ZM712.66 219.293H721.625V220.863H712.66V219.293ZM732.277 216.82H737.727C738.391 216.82 738.977 216.668 739.484 216.363C739.992 216.059 740.383 215.633 740.656 215.086C740.938 214.539 741.078 213.906 741.078 213.188C741.078 212.461 740.938 211.824 740.656 211.277C740.383 210.723 739.992 210.293 739.484 209.988C738.977 209.684 738.391 209.531 737.727 209.531H732.277V207.961H737.645C738.66 207.961 739.555 208.18 740.328 208.617C741.102 209.047 741.699 209.656 742.121 210.445C742.551 211.234 742.766 212.148 742.766 213.188C742.766 214.219 742.551 215.129 742.121 215.918C741.699 216.699 741.102 217.309 740.328 217.746C739.555 218.176 738.66 218.391 737.645 218.391H732.277V216.82ZM731.047 207.961H732.734V225H731.047V207.961ZM746 207.961H747.688V225H746V207.961ZM747.16 223.43H756.945V225H747.16V223.43ZM747.16 215.754H755.656V217.324H747.16V215.754ZM747.16 207.961H756.945V209.531H747.16V207.961ZM761.387 216.223H767.199C767.832 216.223 768.387 216.086 768.863 215.812C769.348 215.531 769.719 215.137 769.977 214.629C770.242 214.121 770.379 213.535 770.387 212.871C770.387 212.207 770.254 211.621 769.988 211.113C769.73 210.605 769.359 210.215 768.875 209.941C768.398 209.66 767.84 209.52 767.199 209.52H761.387V207.949H767.105C768.09 207.949 768.953 208.152 769.695 208.559C770.445 208.965 771.023 209.543 771.43 210.293C771.844 211.035 772.051 211.895 772.051 212.871C772.051 213.848 771.844 214.711 771.43 215.461C771.023 216.203 770.445 216.777 769.695 217.184C768.945 217.59 768.082 217.793 767.105 217.793H761.387V216.223ZM760.344 207.949H762.031V225H760.344V207.949ZM766.848 217.266L768.406 216.727L772.766 225H770.75L766.848 217.266ZM778.824 208.652H780.512V225H778.824V208.652ZM773.656 207.961H785.68V209.531H773.656V207.961ZM787.555 207.961H789.242V225H787.555V207.961ZM788.715 223.43H798.5V225H788.715V223.43ZM788.715 215.754H797.211V217.324H788.715V215.754ZM788.715 207.961H798.5V209.531H788.715V207.961ZM807.617 223.43H811.473C813.051 223.43 814.23 223.062 815.012 222.328C815.801 221.586 816.195 220.473 816.195 218.988V213.973C816.195 212.488 815.801 211.379 815.012 210.645C814.23 209.902 813.051 209.531 811.473 209.531H807.617V207.961H811.402C812.848 207.961 814.051 208.188 815.012 208.641C815.973 209.086 816.691 209.762 817.168 210.668C817.645 211.574 817.883 212.707 817.883 214.066V218.895C817.883 220.254 817.641 221.387 817.156 222.293C816.68 223.191 815.961 223.867 815 224.32C814.039 224.773 812.836 225 811.391 225H807.617V223.43ZM806 207.961H807.688V225H806V207.961ZM821.75 207.961H823.438V225H821.75V207.961ZM822.91 223.43H832.695V225H822.91V223.43ZM822.91 215.754H831.406V217.324H822.91V215.754ZM822.91 207.961H832.695V209.531H822.91V207.961ZM838.438 207.961H840.219L845.129 222.609L850.039 207.961H851.82L845.914 225H844.344L838.438 207.961ZM859.789 225.176C858.453 225.176 857.344 224.945 856.461 224.484C855.578 224.023 854.914 223.336 854.469 222.422C854.031 221.5 853.812 220.344 853.812 218.953V207.961H855.5V219.035C855.5 220.527 855.855 221.648 856.566 222.398C857.277 223.141 858.352 223.512 859.789 223.512C861.227 223.512 862.305 223.141 863.023 222.398C863.742 221.648 864.102 220.527 864.102 219.035V207.961H865.789V218.953C865.789 220.344 865.566 221.5 865.121 222.422C864.684 223.336 864.02 224.023 863.129 224.484C862.238 224.945 861.125 225.176 859.789 225.176ZM869.773 207.961H871.461V225H869.773V207.961ZM870.934 223.43H880.719V225H870.934V223.43ZM870.934 215.754H879.43V217.324H870.934V215.754ZM870.934 207.961H880.719V209.531H870.934V207.961Z" fill="#1C5B73"/>
<defs>
<linearGradient id="paint0_linear_261_3" x1="-32.0002" y1="88.7514" x2="261.795" y2="-22.4827" gradientUnits="userSpaceOnUse">
<stop stop-color="#5CA5D1"/>
<stop offset="0.984375" stop-color="#BAE0E9"/>
</linearGradient>
<linearGradient id="paint1_linear_261_3" x1="1072.01" y1="263.746" x2="777.389" y2="374.041" gradientUnits="userSpaceOnUse">
<stop stop-color="#5CA5D1"/>
<stop offset="0.984375" stop-color="#BAE0E9"/>
</linearGradient>
</defs>
</svg>
