<svg width="659" height="354" viewBox="0 0 659 354" fill="none" xmlns="http://www.w3.org/2000/svg">
<path d="M0 0H659V112V352H0V0Z" fill="white"/>
<path d="M659 174.5C659 124.794 659 97.5 659 56C591.997 56.9465 600.616 125.367 600.5 174.974L659 174.5Z" fill="#BAE0E9"/>
<path fill-rule="evenodd" clip-rule="evenodd" d="M659 56C591.997 56.9465 600.616 125.367 600.5 174.974L0.00537109 175.501V135.501C65.5054 60.8211 28.6692 64.3963 146.005 39.8249C154.198 40.2966 42.5499 38.6545 50.9722 39.1347C195.419 47.3692 388.91 18.0971 449 45C506.243 70.6283 504.5 74 553.003 56.073C619.337 31.5553 609.5 42 659 56Z" fill="#BAE0E9"/>
<path d="M0.00545933 0L0.00537109 135.501C65.5054 60.8211 28.6692 64.3963 146.005 39.8249C53.8601 34.5196 19.0348 8.93595 0.00545933 0Z" fill="url(#paint0_linear_290_45)"/>
<path d="M0 175C0 224.706 0 228 0 269.5C49.6338 269.5 5.88373 224.607 6 175H0Z" fill="#BAE0E9"/>
<path fill-rule="evenodd" clip-rule="evenodd" d="M0 269.5C49.6338 269.5 5.88373 224.607 6 175L659 174.507L659 270.006C619.138 332.049 235.511 252.116 170.511 352.116C171.511 352.116 621.491 330.964 613.069 330.483C468.622 322.249 330.09 340.403 270 313.5C212.757 287.872 226.298 308.923 138 314.495C67.4199 318.949 78.1865 279.501 0 269.5Z" fill="#BAE0E9"/>
<path d="M659 353.01V270.006C619.138 332.049 235.511 252.116 170.511 352.116C262.011 352.116 637.005 353.01 659 353.01Z" fill="url(#paint1_linear_290_45)"/>
<path d="M73.9889 142.541C73.2089 142.971 72.3889 143.161 71.5289 143.121C70.6689 143.081 69.8189 142.781 68.9989 142.231L70.9689 139.561C71.2789 139.731 71.5789 139.821 71.8789 139.841C72.1689 139.861 72.4489 139.801 72.6989 139.681C72.9489 139.561 73.1689 139.361 73.3689 139.101C73.7289 138.611 73.8689 138.131 73.7989 137.661C73.7189 137.191 73.4389 136.771 72.9389 136.411L72.6189 136.171C72.0989 135.791 71.6189 135.601 71.1689 135.611C70.7289 135.621 70.3589 135.821 70.0589 136.231L69.2089 137.391L66.7189 135.561L67.5689 134.401C67.8089 134.071 67.8689 133.731 67.7589 133.371C67.6389 133.011 67.3589 132.661 66.9089 132.331L66.6689 132.161C66.2489 131.851 65.8489 131.711 65.4689 131.741C65.0889 131.771 64.7689 131.961 64.5089 132.321C64.3389 132.551 64.2389 132.811 64.2189 133.091C64.1989 133.371 64.2489 133.661 64.3789 133.961C64.5089 134.261 64.7089 134.551 64.9889 134.851L63.0289 137.511C62.2489 136.821 61.6889 136.061 61.3589 135.241C61.0289 134.421 60.9289 133.591 61.0489 132.751C61.1789 131.911 61.5089 131.121 62.0589 130.381C62.9489 129.171 63.9489 128.461 65.0589 128.251C66.1689 128.041 67.2889 128.361 68.4289 129.201L68.8489 129.511C69.4889 129.981 69.9189 130.551 70.1589 131.211C70.3989 131.881 70.4089 132.591 70.2089 133.361C70.8489 132.811 71.5689 132.551 72.3789 132.591C73.1889 132.631 74.0089 132.951 74.8489 133.571L75.2689 133.881C76.0689 134.471 76.6389 135.131 76.9689 135.861C77.2989 136.591 77.3989 137.371 77.2489 138.191C77.0989 139.011 76.7089 139.851 76.0889 140.701C75.4589 141.491 74.7589 142.111 73.9889 142.541Z" fill="#1C5B73"/>
<path d="M82.6788 132.052C81.8588 132.252 81.0388 132.192 80.2388 131.882C79.4288 131.572 78.6689 131.012 77.9389 130.202L77.9288 130.192C77.5188 129.732 77.1388 129.202 76.7888 128.582C76.4388 127.972 76.1388 127.312 75.8888 126.602C75.8488 126.482 75.8089 126.362 75.7589 126.242C75.7189 126.122 75.6788 126.002 75.6488 125.882L73.3188 118.112L76.0188 115.682L78.6488 124.742L77.7688 124.972C77.6688 124.572 77.6888 124.162 77.8288 123.762C77.9688 123.362 78.2288 122.992 78.5988 122.662C79.2988 122.032 80.0288 121.652 80.7888 121.502C81.5488 121.352 82.3088 121.452 83.0788 121.782C83.8489 122.112 84.5889 122.682 85.2989 123.472L85.3088 123.482C86.0388 124.292 86.5188 125.122 86.7488 125.962C86.9788 126.802 86.9588 127.622 86.6688 128.422C86.3888 129.222 85.8488 129.972 85.0688 130.682C84.3088 131.402 83.5088 131.852 82.6788 132.052ZM83.6688 127.152C83.6788 126.702 83.4788 126.242 83.0688 125.792L83.0588 125.782C82.5888 125.262 82.1088 124.962 81.6288 124.882C81.1488 124.802 80.6888 124.962 80.2688 125.342C79.8488 125.722 79.6589 126.152 79.6889 126.642C79.7189 127.142 79.9688 127.642 80.4288 128.162L80.4389 128.172C80.8489 128.622 81.2788 128.872 81.7188 128.912C82.1688 128.952 82.5988 128.782 83.0188 128.402C83.4388 128.022 83.6588 127.602 83.6688 127.152Z" fill="#1C5B73"/>
<path d="M92.2189 123.461C91.0389 123.151 90.0689 122.341 89.3189 121.031L85.4489 114.321C84.6889 112.991 84.4689 111.751 84.7989 110.581C85.1289 109.411 86.0089 108.411 87.4489 107.591C88.8889 106.761 90.1989 106.491 91.3689 106.791C92.5389 107.091 93.5089 107.901 94.2789 109.241L98.1489 115.951C98.9089 117.281 99.1289 118.521 98.7989 119.691C98.4689 120.861 97.5789 121.861 96.1489 122.681C94.7089 123.511 93.3989 123.771 92.2189 123.461ZM95.5089 118.711C95.5489 118.181 95.3689 117.551 94.9489 116.831L91.8989 111.541C91.4889 110.821 91.0389 110.351 90.5489 110.121C90.0689 109.891 89.5389 109.941 88.9789 110.261C88.4189 110.581 88.1089 111.011 88.0689 111.551C88.0289 112.091 88.2089 112.711 88.6189 113.431L91.6689 118.721C92.0789 119.441 92.5289 119.911 93.0189 120.141C93.4989 120.371 94.0289 120.321 94.5889 120.001C95.1689 119.671 95.4689 119.251 95.5089 118.711Z" fill="#1C5B73"/>
<path d="M100.609 107.911C99.8088 107.541 99.2288 106.831 98.8588 105.791C98.4988 104.741 98.5188 103.831 98.9188 103.041C99.3188 102.251 100.079 101.671 101.189 101.291C102.299 100.911 103.249 100.901 104.049 101.271C104.849 101.641 105.429 102.351 105.799 103.401C106.159 104.441 106.139 105.351 105.729 106.141C105.319 106.931 104.569 107.511 103.469 107.891C102.359 108.271 101.409 108.281 100.609 107.911ZM103.299 105.161C103.389 104.911 103.379 104.611 103.259 104.251C103.139 103.911 102.969 103.681 102.739 103.551C102.509 103.421 102.249 103.411 101.949 103.511C101.659 103.611 101.459 103.791 101.369 104.031C101.279 104.271 101.289 104.571 101.409 104.921C101.529 105.271 101.709 105.521 101.929 105.651C102.149 105.781 102.409 105.801 102.709 105.701C102.999 105.581 103.199 105.411 103.299 105.161Z" fill="#1C5B73"/>
<path d="M118.809 101.431L121.209 101.251L122.159 114.001L119.759 114.181L118.809 101.431ZM120.169 106.671L124.599 106.341C124.849 106.321 125.059 106.241 125.229 106.111C125.409 105.971 125.539 105.791 125.629 105.551C125.709 105.311 125.749 105.051 125.729 104.751C125.709 104.451 125.639 104.191 125.519 103.971C125.399 103.751 125.239 103.581 125.049 103.481C124.849 103.371 124.629 103.331 124.379 103.341L119.949 103.671L119.779 101.361L124.409 101.021C125.109 100.971 125.739 101.081 126.289 101.361C126.839 101.641 127.289 102.051 127.619 102.611C127.949 103.161 128.149 103.821 128.209 104.581C128.269 105.341 128.169 106.021 127.919 106.621C127.669 107.221 127.289 107.691 126.779 108.051C126.269 108.401 125.669 108.611 124.969 108.661L120.339 109.001L120.169 106.671ZM122.989 108.391L125.529 107.801L129.409 113.471L126.499 113.691L122.989 108.391Z" fill="#1C5B73"/>
<path d="M134.359 113.392C133.699 112.922 133.229 112.312 132.929 111.562C132.629 110.812 132.529 109.972 132.639 109.032L133.059 105.432C133.169 104.502 133.459 103.702 133.929 103.042C134.399 102.382 134.999 101.902 135.749 101.592C136.499 101.282 137.329 101.192 138.249 101.302C139.169 101.412 139.959 101.702 140.609 102.172C141.269 102.642 141.739 103.252 142.039 104.002C142.339 104.752 142.439 105.592 142.329 106.532L141.909 110.132C141.799 111.062 141.509 111.862 141.039 112.522C140.569 113.182 139.959 113.662 139.219 113.972C138.469 114.272 137.639 114.372 136.719 114.262C135.799 114.152 135.009 113.862 134.359 113.392ZM138.169 111.732C138.519 111.582 138.799 111.352 139.019 111.042C139.239 110.722 139.369 110.342 139.419 109.902L139.859 106.182C139.909 105.742 139.869 105.342 139.729 104.982C139.589 104.622 139.369 104.332 139.069 104.112C138.769 103.892 138.399 103.752 137.969 103.702C137.539 103.652 137.149 103.702 136.799 103.842C136.449 103.992 136.169 104.222 135.949 104.532C135.729 104.852 135.599 105.232 135.549 105.672L135.109 109.392C135.059 109.832 135.099 110.232 135.239 110.592C135.379 110.952 135.599 111.242 135.899 111.462C136.199 111.682 136.569 111.822 136.999 111.872C137.429 111.922 137.819 111.872 138.169 111.732Z" fill="#1C5B73"/>
<path d="M146.689 115.571C146.129 114.991 145.779 114.301 145.619 113.501C145.469 112.701 145.529 111.861 145.809 110.971L146.899 107.521C147.179 106.631 147.609 105.901 148.199 105.341C148.789 104.781 149.469 104.421 150.259 104.261C151.049 104.101 151.889 104.161 152.769 104.441C153.649 104.721 154.369 105.151 154.929 105.731C155.479 106.311 155.839 107.001 155.989 107.801C156.139 108.591 156.079 109.441 155.799 110.331L154.709 113.781C154.429 114.671 153.989 115.401 153.409 115.961C152.829 116.521 152.139 116.881 151.349 117.041C150.559 117.201 149.719 117.141 148.839 116.861C147.969 116.591 147.249 116.161 146.689 115.571ZM150.749 114.651C151.119 114.571 151.439 114.401 151.709 114.131C151.979 113.861 152.189 113.511 152.319 113.091L153.449 109.521C153.579 109.101 153.619 108.691 153.549 108.321C153.479 107.941 153.319 107.621 153.059 107.341C152.799 107.071 152.469 106.861 152.049 106.731C151.639 106.601 151.249 106.571 150.879 106.651C150.509 106.731 150.189 106.901 149.919 107.171C149.649 107.441 149.439 107.791 149.309 108.211L148.179 111.781C148.049 112.201 148.009 112.611 148.079 112.981C148.149 113.361 148.309 113.681 148.569 113.961C148.829 114.231 149.159 114.441 149.579 114.571C149.989 114.701 150.379 114.731 150.749 114.651Z" fill="#1C5B73"/>
<path d="M162.359 108.211L164.489 109.331L158.569 120.651L156.439 119.531L162.359 108.211ZM160.639 113.391L166.439 116.431L165.359 118.491L159.559 115.451L160.639 113.391ZM163.139 108.621L169.799 112.101L168.719 114.161L162.059 110.681L163.139 108.621Z" fill="#1C5B73"/>
<path d="M174.139 116.361L176.079 117.791L169.129 127.241L167.189 125.811L174.139 116.361ZM171.959 113.461L179.509 119.011L178.139 120.881L170.589 115.331L171.959 113.461Z" fill="#1C5B73"/>
<path d="M174.969 131.591C174.759 130.811 174.769 130.041 175.009 129.261C175.249 128.491 175.709 127.771 176.379 127.121L178.969 124.591C179.639 123.941 180.369 123.501 181.149 123.281C181.929 123.061 182.709 123.071 183.479 123.301C184.249 123.531 184.959 123.981 185.609 124.651C186.249 125.311 186.689 126.031 186.899 126.811C187.109 127.591 187.099 128.361 186.859 129.141C186.619 129.911 186.159 130.631 185.489 131.281L182.889 133.801C182.219 134.451 181.489 134.891 180.709 135.111C179.929 135.331 179.149 135.321 178.379 135.091C177.609 134.861 176.899 134.411 176.249 133.741C175.619 133.091 175.189 132.371 174.969 131.591ZM178.979 132.701C179.339 132.811 179.699 132.801 180.069 132.701C180.439 132.591 180.779 132.381 181.099 132.071L183.779 129.461C184.099 129.151 184.319 128.811 184.439 128.451C184.559 128.091 184.569 127.721 184.469 127.361C184.369 127.001 184.169 126.661 183.869 126.351C183.569 126.041 183.239 125.831 182.869 125.721C182.509 125.611 182.139 125.611 181.779 125.721C181.409 125.831 181.069 126.041 180.749 126.351L178.069 128.961C177.749 129.271 177.529 129.611 177.409 129.971C177.289 130.341 177.279 130.701 177.379 131.061C177.479 131.421 177.679 131.761 177.979 132.071C178.279 132.381 178.619 132.591 178.979 132.701Z" fill="#1C5B73"/>
<path d="M192.369 132.621L193.699 134.631L183.049 141.691L181.719 139.681L192.369 132.621ZM188.389 136.581L190.649 139.991C190.809 140.231 190.999 140.401 191.229 140.511C191.459 140.621 191.709 140.661 191.979 140.631C192.249 140.601 192.509 140.501 192.769 140.331C193.029 140.161 193.229 139.951 193.369 139.721C193.509 139.491 193.569 139.241 193.559 138.981C193.549 138.721 193.459 138.471 193.299 138.231L191.039 134.821L192.969 133.541L195.189 136.901C195.629 137.561 195.879 138.241 195.939 138.921C195.999 139.611 195.879 140.251 195.569 140.861C195.259 141.461 194.779 141.981 194.129 142.411C193.479 142.841 192.819 143.081 192.139 143.121C191.459 143.171 190.829 143.031 190.219 142.701C189.619 142.371 189.099 141.881 188.649 141.211L186.429 137.851L188.389 136.581Z" fill="#1C5B73"/>
<path d="M80.4591 223.882L82.1991 225.552L73.3591 234.792L71.6191 233.122L80.4591 223.882ZM77.4791 228.392L80.6891 231.462C80.8691 231.632 81.0691 231.742 81.2891 231.782C81.5091 231.822 81.7391 231.792 81.9691 231.702C82.1991 231.612 82.4191 231.452 82.6291 231.242C82.8391 231.022 82.9791 230.802 83.0691 230.562C83.1491 230.322 83.1691 230.102 83.1191 229.882C83.0691 229.662 82.9491 229.462 82.7691 229.292L79.5591 226.222L81.1591 224.542L84.5091 227.752C85.0191 228.242 85.3591 228.782 85.5191 229.372C85.6891 229.972 85.6791 230.582 85.4891 231.202C85.2991 231.822 84.9491 232.402 84.4191 232.952C83.8891 233.502 83.3191 233.882 82.7091 234.102C82.0991 234.312 81.4891 234.352 80.8791 234.212C80.2691 234.072 79.7191 233.762 79.2091 233.272L75.8591 230.062L77.4791 228.392ZM78.0891 231.642L80.2291 233.132L78.6091 239.812L76.4991 237.792L78.0891 231.642Z" fill="#1C5B73"/>
<path d="M89.779 232.281L91.789 233.601L84.779 244.291L82.769 242.971L89.779 232.281ZM84.769 241.511L91.199 245.731L89.929 247.671L83.499 243.451L84.769 241.511ZM87.609 237.171L93.229 240.861L91.959 242.801L86.339 239.111L87.609 237.171ZM90.509 232.761L96.939 236.981L95.669 238.921L89.239 234.701L90.509 232.761Z" fill="#1C5B73"/>
<path d="M96.6692 250.942C96.1792 250.602 95.7492 250.222 95.3692 249.802C94.9892 249.382 94.6792 248.942 94.4392 248.472L96.2392 247.082C96.5292 247.652 96.9392 248.152 97.4392 248.612C97.9492 249.062 98.5092 249.422 99.1392 249.692C99.8592 250.002 100.479 250.112 100.979 250.042C101.479 249.962 101.829 249.702 102.019 249.252V249.242C102.149 248.932 102.169 248.642 102.069 248.382C101.969 248.122 101.799 247.891 101.549 247.681C101.299 247.471 100.969 247.242 100.549 246.982C100.539 246.972 100.519 246.962 100.509 246.952C100.499 246.942 100.479 246.932 100.469 246.922L100.299 246.822C99.5592 246.362 98.9792 245.932 98.5392 245.522C98.0992 245.112 97.7992 244.602 97.6392 243.982C97.4792 243.362 97.5792 242.622 97.9392 241.762V241.752C98.2592 240.992 98.7092 240.412 99.2792 240.022C99.8492 239.622 100.519 239.422 101.279 239.412C102.049 239.402 102.889 239.592 103.809 239.982C104.229 240.162 104.639 240.392 105.039 240.672C105.439 240.952 105.809 241.282 106.149 241.642C106.489 242.002 106.799 242.392 107.069 242.812L105.329 244.292C105.009 243.792 104.639 243.342 104.219 242.962C103.799 242.582 103.359 242.292 102.909 242.102C102.229 241.812 101.659 241.702 101.189 241.772C100.719 241.842 100.399 242.072 100.229 242.482V242.492C100.089 242.832 100.069 243.142 100.179 243.422C100.289 243.702 100.469 243.952 100.719 244.162C100.969 244.372 101.329 244.642 101.799 244.962C101.819 244.972 101.839 244.992 101.859 245.002C101.879 245.012 101.899 245.022 101.919 245.042C101.949 245.062 101.979 245.082 101.999 245.102C102.029 245.122 102.049 245.142 102.079 245.162C102.759 245.622 103.309 246.062 103.719 246.482C104.129 246.902 104.399 247.412 104.539 248.012C104.679 248.612 104.579 249.312 104.239 250.112L104.229 250.132C103.909 250.882 103.459 251.452 102.889 251.832C102.319 252.212 101.629 252.411 100.839 252.401C100.049 252.391 99.1792 252.192 98.2392 251.792C97.6892 251.572 97.1592 251.282 96.6692 250.942Z" fill="#1C5B73"/>
<path d="M108.889 242.191L117.989 244.411L117.439 246.661L108.339 244.441L108.889 242.191ZM112.029 244.031L114.369 244.601L111.589 256.001L109.249 255.431L112.029 244.031Z" fill="#1C5B73"/>
<path d="M123.459 244.941L124.989 245.051L128.929 258.151L126.339 257.961L123.919 249.031L120.229 257.511L117.649 257.321L123.459 244.941ZM120.309 253.151L127.019 253.641L126.849 255.951L120.139 255.461L120.309 253.151Z" fill="#1C5B73"/>
<path d="M135.659 257.291C134.919 257.001 134.329 256.521 133.889 255.861C133.449 255.201 133.169 254.361 133.049 253.371L132.099 245.271L134.489 244.991L135.439 253.151C135.519 253.881 135.789 254.421 136.219 254.781C136.659 255.141 137.229 255.271 137.939 255.191C138.659 255.111 139.189 254.841 139.529 254.391C139.869 253.941 140.009 253.351 139.919 252.631L138.969 244.471L141.359 244.191L142.309 252.291C142.429 253.291 142.339 254.161 142.059 254.911C141.779 255.661 141.309 256.261 140.659 256.711C140.009 257.161 139.189 257.441 138.209 257.561C137.229 257.681 136.389 257.581 135.659 257.291Z" fill="#1C5B73"/>
<path d="M144.809 243.422L147.099 242.692L150.989 254.872L148.699 255.602L144.809 243.422ZM147.339 248.202L151.579 246.852C151.809 246.782 151.999 246.652 152.139 246.482C152.279 246.312 152.369 246.092 152.389 245.852C152.419 245.602 152.389 245.332 152.299 245.052C152.209 244.772 152.079 244.532 151.909 244.342C151.739 244.152 151.549 244.032 151.329 243.972C151.109 243.912 150.889 243.922 150.649 243.992L146.409 245.342L145.699 243.132L150.119 241.722C150.789 241.512 151.429 241.472 152.029 241.612C152.629 241.752 153.159 242.052 153.619 242.512C154.069 242.972 154.419 243.562 154.649 244.292C154.879 245.022 154.949 245.702 154.839 246.342C154.739 246.982 154.479 247.532 154.059 248.002C153.649 248.462 153.109 248.802 152.439 249.012L148.019 250.422L147.339 248.202ZM150.489 249.212L152.819 248.042L157.909 252.652L155.129 253.542L150.489 249.212Z" fill="#1C5B73"/>
<path d="M159.909 237.491L161.249 236.751L171.679 245.611L169.409 246.861L162.529 240.681L164.039 249.801L161.769 251.051L159.909 237.491ZM161.719 246.091L167.619 242.861L168.739 244.891L162.839 248.121L161.719 246.091Z" fill="#1C5B73"/>
<path d="M167.529 232.951L169.779 231.061L179.719 235.501L179.709 235.811L173.259 228.141L175.019 226.661L183.239 236.441L180.969 238.351L171.139 234.021L171.149 233.711L177.499 241.271L175.739 242.751L167.529 232.951Z" fill="#1C5B73"/>
<path d="M176.329 225.321L182.359 218.151L184.139 219.641L178.109 226.811L176.329 225.321ZM179.369 223.331L180.919 221.491L189.899 229.041L188.349 230.881L179.369 223.331Z" fill="#1C5B73"/>
<path d="M108.199 159.201L129.059 185.581L150.289 159.201H108.199Z" stroke="#1C5B73" stroke-width="2" stroke-miterlimit="10"/>
<path d="M129.059 185.581L129.249 199.781L122.269 208.201H136.089L129.249 199.781" stroke="#1C5B73" stroke-width="2" stroke-miterlimit="10"/>
<path d="M110.139 159.441V150.751H115.469V158.601H116.979V153.941L118.159 150.751L119.659 153.861V159.441H122.049V146.841H126.109V159.441H126.539L127.419 158.721H128.139V159.111H128.699V146.841H132.529V158.211H134.619V159.681H136.259V158.751H137.669V154.721L140.479 153.621L142.839 154.631V158.961H144.249V151.121H148.369V159.681" fill="#1C5B73"/>
<path d="M134.179 158.211V153.571H136.089V158.211" fill="#1C5B73"/>
<path d="M136.929 158.211V151.601H140.209H140.929V158.211" fill="#1C5B73"/>
<path d="M119.659 153.861H120.989V158.211H119.659" fill="#1C5B73"/>
<path d="M126.109 155.601H128.699V158.211H126.109" fill="#1C5B73"/>
<path d="M144.969 166.311H113.819" stroke="#1C5B73" stroke-width="2" stroke-miterlimit="10"/>
<path d="M238.371 163.293C236.717 163.293 235.253 162.993 233.977 162.395C232.701 161.796 231.678 160.923 230.91 159.777C230.155 158.618 229.706 157.238 229.562 155.637H234.348C234.452 156.34 234.667 156.926 234.992 157.395C235.318 157.85 235.741 158.195 236.262 158.43C236.783 158.664 237.388 158.781 238.078 158.781C239.25 158.781 240.155 158.469 240.793 157.844C241.431 157.206 241.75 156.307 241.75 155.148V154.387C241.75 153.137 241.464 152.173 240.891 151.496C240.331 150.806 239.523 150.461 238.469 150.461H236.262V146.008H238.469C239.367 146.008 240.057 145.715 240.539 145.129C241.034 144.53 241.281 143.697 241.281 142.629V141.945C241.281 140.943 241.014 140.174 240.48 139.641C239.96 139.094 239.217 138.82 238.254 138.82C237.668 138.82 237.141 138.944 236.672 139.191C236.216 139.439 235.826 139.816 235.5 140.324C235.174 140.819 234.94 141.431 234.797 142.16H230.031C230.24 140.52 230.715 139.107 231.457 137.922C232.212 136.737 233.176 135.839 234.348 135.227C235.533 134.615 236.867 134.309 238.352 134.309C240.826 134.309 242.74 134.953 244.094 136.242C245.461 137.531 246.145 139.348 246.145 141.691V142.355C246.145 143.723 245.786 144.914 245.07 145.93C244.354 146.945 243.339 147.694 242.023 148.176C243.482 148.501 244.608 149.243 245.402 150.402C246.21 151.548 246.613 153.013 246.613 154.797V155.461C246.613 157.115 246.288 158.527 245.637 159.699C244.999 160.871 244.061 161.763 242.824 162.375C241.587 162.987 240.103 163.293 238.371 163.293ZM259.426 163.293C257.72 163.293 256.262 162.961 255.051 162.297C253.84 161.62 252.915 160.643 252.277 159.367C251.639 158.078 251.32 156.529 251.32 154.719V154.699C251.32 153.658 251.444 152.564 251.691 151.418C251.952 150.259 252.316 149.107 252.785 147.961C252.863 147.766 252.941 147.577 253.02 147.395C253.111 147.199 253.202 147.01 253.293 146.828L259.27 134.602H264.426L257.395 148.762L256.73 148.059C257.056 147.447 257.531 146.971 258.156 146.633C258.781 146.294 259.51 146.125 260.344 146.125C261.854 146.125 263.15 146.457 264.23 147.121C265.311 147.785 266.132 148.755 266.691 150.031C267.264 151.294 267.551 152.818 267.551 154.602V154.621C267.551 156.444 267.232 158.007 266.594 159.309C265.956 160.611 265.025 161.6 263.801 162.277C262.59 162.954 261.132 163.293 259.426 163.293ZM259.426 158.801C260.533 158.801 261.385 158.469 261.984 157.805C262.583 157.141 262.883 156.19 262.883 154.953V154.934C262.883 153.553 262.577 152.492 261.965 151.75C261.353 150.995 260.474 150.617 259.328 150.617C258.26 150.617 257.434 150.995 256.848 151.75C256.275 152.505 255.988 153.573 255.988 154.953V154.973C255.988 156.21 256.288 157.16 256.887 157.824C257.486 158.475 258.332 158.801 259.426 158.801ZM280.754 163.293C278.046 163.293 275.982 162.583 274.562 161.164C273.156 159.745 272.453 157.766 272.453 155.227V142.316C272.453 139.764 273.163 137.785 274.582 136.379C276.001 134.96 278.059 134.25 280.754 134.25C283.462 134.25 285.52 134.953 286.926 136.359C288.345 137.766 289.055 139.751 289.055 142.316V155.227C289.055 157.779 288.345 159.764 286.926 161.184C285.507 162.59 283.449 163.293 280.754 163.293ZM280.754 158.82C282.004 158.82 282.922 158.456 283.508 157.727C284.094 156.984 284.387 155.923 284.387 154.543V143C284.387 141.62 284.094 140.565 283.508 139.836C282.922 139.094 282.004 138.723 280.754 138.723C279.504 138.723 278.586 139.094 278 139.836C277.414 140.565 277.121 141.62 277.121 143V154.543C277.121 155.923 277.414 156.984 278 157.727C278.586 158.456 279.504 158.82 280.754 158.82Z" fill="#1C5B73"/>
<path d="M298.727 161.43H302.582C304.16 161.43 305.34 161.062 306.121 160.328C306.91 159.586 307.305 158.473 307.305 156.988V151.973C307.305 150.488 306.91 149.379 306.121 148.645C305.34 147.902 304.16 147.531 302.582 147.531H298.727V145.961H302.512C303.957 145.961 305.16 146.188 306.121 146.641C307.082 147.086 307.801 147.762 308.277 148.668C308.754 149.574 308.992 150.707 308.992 152.066V156.895C308.992 158.254 308.75 159.387 308.266 160.293C307.789 161.191 307.07 161.867 306.109 162.32C305.148 162.773 303.945 163 302.5 163H298.727V161.43ZM297.109 145.961H298.797V163H297.109V145.961ZM312.859 145.961H314.547V163H312.859V145.961ZM314.02 161.43H323.805V163H314.02V161.43ZM314.02 153.754H322.516V155.324H314.02V153.754ZM314.02 145.961H323.805V147.531H314.02V145.961ZM338.852 154.293V156.801C338.852 158.223 338.629 159.406 338.184 160.352C337.746 161.297 337.086 162.004 336.203 162.473C335.32 162.941 334.215 163.176 332.887 163.176C331.543 163.176 330.422 162.953 329.523 162.508C328.633 162.062 327.965 161.398 327.52 160.516C327.074 159.625 326.852 158.512 326.852 157.176V152.148C326.852 150.727 327.07 149.547 327.508 148.609C327.953 147.664 328.617 146.957 329.5 146.488C330.383 146.02 331.488 145.785 332.816 145.785C333.918 145.785 334.867 145.973 335.664 146.348C336.461 146.723 337.113 147.285 337.621 148.035C338.129 148.777 338.492 149.715 338.711 150.848H336.883C336.68 150.066 336.395 149.418 336.027 148.902C335.668 148.387 335.219 148 334.68 147.742C334.148 147.484 333.527 147.355 332.816 147.355C331.863 147.355 331.07 147.535 330.438 147.895C329.805 148.246 329.328 148.777 329.008 149.488C328.695 150.191 328.539 151.078 328.539 152.148V157.176C328.539 158.168 328.699 158.992 329.02 159.648C329.34 160.297 329.82 160.785 330.461 161.113C331.109 161.441 331.918 161.605 332.887 161.605C333.832 161.605 334.609 161.438 335.219 161.102C335.836 160.766 336.297 160.246 336.602 159.543C336.914 158.84 337.07 157.938 337.07 156.836V155.863H332.945V154.293H338.852ZM343.762 154.223H349.574C350.207 154.223 350.762 154.086 351.238 153.812C351.723 153.531 352.094 153.137 352.352 152.629C352.617 152.121 352.754 151.535 352.762 150.871C352.762 150.207 352.629 149.621 352.363 149.113C352.105 148.605 351.734 148.215 351.25 147.941C350.773 147.66 350.215 147.52 349.574 147.52H343.762V145.949H349.48C350.465 145.949 351.328 146.152 352.07 146.559C352.82 146.965 353.398 147.543 353.805 148.293C354.219 149.035 354.426 149.895 354.426 150.871C354.426 151.848 354.219 152.711 353.805 153.461C353.398 154.203 352.82 154.777 352.07 155.184C351.32 155.59 350.457 155.793 349.48 155.793H343.762V154.223ZM342.719 145.949H344.406V163H342.719V145.949ZM349.223 155.266L350.781 154.727L355.141 163H353.125L349.223 155.266ZM358.375 145.961H360.062V163H358.375V145.961ZM359.535 161.43H369.32V163H359.535V161.43ZM359.535 153.754H368.031V155.324H359.535V153.754ZM359.535 145.961H369.32V147.531H359.535V145.961ZM372.719 145.961H374.406V163H372.719V145.961ZM373.879 161.43H383.664V163H373.879V161.43ZM373.879 153.754H382.375V155.324H373.879V153.754ZM373.879 145.961H383.664V147.531H373.879V145.961ZM392.184 163.176C391.363 163.176 390.586 163.098 389.852 162.941C389.117 162.785 388.43 162.551 387.789 162.238C387.156 161.926 386.562 161.535 386.008 161.066L387.027 159.73C387.738 160.355 388.523 160.824 389.383 161.137C390.242 161.449 391.176 161.605 392.184 161.605C393.645 161.605 394.773 161.316 395.57 160.738C396.375 160.16 396.777 159.348 396.777 158.301V158.289C396.777 157.641 396.602 157.121 396.25 156.73C395.906 156.34 395.457 156.047 394.902 155.852C394.355 155.656 393.648 155.477 392.781 155.312C392.758 155.305 392.73 155.301 392.699 155.301C392.676 155.293 392.648 155.285 392.617 155.277L392.277 155.207C391.082 154.98 390.125 154.746 389.406 154.504C388.688 154.254 388.074 153.836 387.566 153.25C387.066 152.656 386.816 151.836 386.816 150.789V150.777C386.816 149.723 387.051 148.824 387.52 148.082C387.996 147.332 388.688 146.762 389.594 146.371C390.5 145.98 391.59 145.785 392.863 145.785C393.465 145.785 394.059 145.852 394.645 145.984C395.238 146.117 395.82 146.316 396.391 146.582C396.969 146.84 397.539 147.168 398.102 147.566L397.105 148.891C396.371 148.375 395.652 147.992 394.949 147.742C394.246 147.484 393.551 147.355 392.863 147.355C391.473 147.355 390.395 147.648 389.629 148.234C388.863 148.82 388.48 149.645 388.48 150.707V150.719C388.48 151.359 388.672 151.867 389.055 152.242C389.438 152.609 389.91 152.883 390.473 153.062C391.043 153.242 391.82 153.43 392.805 153.625C392.836 153.633 392.867 153.641 392.898 153.648C392.938 153.656 392.977 153.664 393.016 153.672C393.062 153.68 393.105 153.691 393.145 153.707C393.191 153.715 393.238 153.723 393.285 153.73C394.355 153.949 395.246 154.199 395.957 154.48C396.668 154.762 397.258 155.203 397.727 155.805C398.203 156.398 398.441 157.203 398.441 158.219V158.242C398.441 159.281 398.195 160.172 397.703 160.914C397.211 161.648 396.496 162.211 395.559 162.602C394.629 162.984 393.504 163.176 392.184 163.176Z" fill="#1C5B73"/>
<path d="M231.516 193.43H236.191C237.637 193.43 238.688 193.16 239.344 192.621C240.008 192.074 240.34 191.309 240.34 190.324V190.289C240.34 189.617 240.215 189.039 239.965 188.555C239.723 188.07 239.336 187.699 238.805 187.441C238.281 187.176 237.605 187.043 236.777 187.043H231.516V185.473H236.777C237.887 185.473 238.719 185.227 239.273 184.734C239.836 184.242 240.117 183.512 240.117 182.543C240.117 181.535 239.812 180.781 239.203 180.281C238.594 179.781 237.676 179.531 236.449 179.531H231.516V177.961H236.824C237.926 177.961 238.848 178.148 239.59 178.523C240.332 178.898 240.887 179.43 241.254 180.117C241.621 180.805 241.805 181.625 241.805 182.578C241.805 183.156 241.691 183.703 241.465 184.219C241.238 184.727 240.891 185.164 240.422 185.531C239.961 185.898 239.387 186.145 238.699 186.27C239.387 186.371 239.98 186.617 240.48 187.008C240.98 187.391 241.363 187.871 241.629 188.449C241.895 189.027 242.027 189.652 242.027 190.324V190.359C242.027 191.281 241.824 192.094 241.418 192.797C241.012 193.5 240.43 194.043 239.672 194.426C238.914 194.809 238.031 195 237.023 195H231.516V193.43ZM230.109 177.961H231.797V195H230.109V177.961ZM250.242 177.961H252.281L258.562 195H256.688L251.262 179.73L245.836 195H243.961L250.242 177.961ZM246.855 189.293H255.82V190.863H246.855V189.293ZM262.184 186.223H267.996C268.629 186.223 269.184 186.086 269.66 185.812C270.145 185.531 270.516 185.137 270.773 184.629C271.039 184.121 271.176 183.535 271.184 182.871C271.184 182.207 271.051 181.621 270.785 181.113C270.527 180.605 270.156 180.215 269.672 179.941C269.195 179.66 268.637 179.52 267.996 179.52H262.184V177.949H267.902C268.887 177.949 269.75 178.152 270.492 178.559C271.242 178.965 271.82 179.543 272.227 180.293C272.641 181.035 272.848 181.895 272.848 182.871C272.848 183.848 272.641 184.711 272.227 185.461C271.82 186.203 271.242 186.777 270.492 187.184C269.742 187.59 268.879 187.793 267.902 187.793H262.184V186.223ZM261.141 177.949H262.828V195H261.141V177.949ZM267.645 187.266L269.203 186.727L273.562 195H271.547L267.645 187.266ZM280.898 177.961H282.586V195H280.898V177.961ZM282.094 193.43H291.844V195H282.094V193.43ZM300.293 195.176C299.027 195.176 297.945 194.93 297.047 194.438C296.156 193.945 295.477 193.23 295.008 192.293C294.539 191.355 294.305 190.223 294.305 188.895V184.066C294.305 182.738 294.539 181.605 295.008 180.668C295.477 179.73 296.156 179.016 297.047 178.523C297.945 178.031 299.027 177.785 300.293 177.785C301.559 177.785 302.637 178.031 303.527 178.523C304.426 179.016 305.109 179.73 305.578 180.668C306.047 181.605 306.281 182.738 306.281 184.066V188.895C306.281 190.223 306.047 191.355 305.578 192.293C305.109 193.23 304.426 193.945 303.527 194.438C302.637 194.93 301.559 195.176 300.293 195.176ZM300.293 193.605C301.199 193.605 301.973 193.426 302.613 193.066C303.262 192.699 303.754 192.172 304.09 191.484C304.426 190.789 304.594 189.953 304.594 188.977V183.984C304.594 183.008 304.426 182.176 304.09 181.488C303.754 180.793 303.262 180.266 302.613 179.906C301.973 179.539 301.199 179.355 300.293 179.355C299.387 179.355 298.609 179.539 297.961 179.906C297.32 180.266 296.832 180.793 296.496 181.488C296.16 182.176 295.992 183.008 295.992 183.984V188.977C295.992 189.953 296.16 190.789 296.496 191.484C296.832 192.172 297.32 192.699 297.961 193.066C298.609 193.426 299.387 193.605 300.293 193.605ZM315.891 195.176C314.555 195.176 313.445 194.945 312.562 194.484C311.68 194.023 311.016 193.336 310.57 192.422C310.133 191.5 309.914 190.344 309.914 188.953V177.961H311.602V189.035C311.602 190.527 311.957 191.648 312.668 192.398C313.379 193.141 314.453 193.512 315.891 193.512C317.328 193.512 318.406 193.141 319.125 192.398C319.844 191.648 320.203 190.527 320.203 189.035V177.961H321.891V188.953C321.891 190.344 321.668 191.5 321.223 192.422C320.785 193.336 320.121 194.023 319.23 194.484C318.34 194.945 317.227 195.176 315.891 195.176ZM325.875 177.961H327.574L337.465 193.312L336.773 192.844V177.961H338.461V194.988H336.738L326.648 179.52L327.562 180.188V194.988H325.875V177.961ZM354.328 186.293V188.801C354.328 190.223 354.105 191.406 353.66 192.352C353.223 193.297 352.562 194.004 351.68 194.473C350.797 194.941 349.691 195.176 348.363 195.176C347.02 195.176 345.898 194.953 345 194.508C344.109 194.062 343.441 193.398 342.996 192.516C342.551 191.625 342.328 190.512 342.328 189.176V184.148C342.328 182.727 342.547 181.547 342.984 180.609C343.43 179.664 344.094 178.957 344.977 178.488C345.859 178.02 346.965 177.785 348.293 177.785C349.395 177.785 350.344 177.973 351.141 178.348C351.938 178.723 352.59 179.285 353.098 180.035C353.605 180.777 353.969 181.715 354.188 182.848H352.359C352.156 182.066 351.871 181.418 351.504 180.902C351.145 180.387 350.695 180 350.156 179.742C349.625 179.484 349.004 179.355 348.293 179.355C347.34 179.355 346.547 179.535 345.914 179.895C345.281 180.246 344.805 180.777 344.484 181.488C344.172 182.191 344.016 183.078 344.016 184.148V189.176C344.016 190.168 344.176 190.992 344.496 191.648C344.816 192.297 345.297 192.785 345.938 193.113C346.586 193.441 347.395 193.605 348.363 193.605C349.309 193.605 350.086 193.438 350.695 193.102C351.312 192.766 351.773 192.246 352.078 191.543C352.391 190.84 352.547 189.938 352.547 188.836V187.863H348.422V186.293H354.328ZM358.195 177.961H359.883V195H358.195V177.961ZM359.355 193.43H369.141V195H359.355V193.43ZM359.355 185.754H367.852V187.324H359.355V185.754ZM359.355 177.961H369.141V179.531H359.355V177.961ZM376.641 177.961H378.328V195H376.641V177.961ZM377.801 193.43H387.586V195H377.801V193.43ZM377.801 185.754H386.297V187.324H377.801V185.754ZM377.801 177.961H387.586V179.531H377.801V177.961ZM393.809 178.652H395.496V195H393.809V178.652ZM388.641 177.961H400.664V179.531H388.641V177.961ZM407.684 186.223H413.496C414.129 186.223 414.684 186.086 415.16 185.812C415.645 185.531 416.016 185.137 416.273 184.629C416.539 184.121 416.676 183.535 416.684 182.871C416.684 182.207 416.551 181.621 416.285 181.113C416.027 180.605 415.656 180.215 415.172 179.941C414.695 179.66 414.137 179.52 413.496 179.52H407.684V177.949H413.402C414.387 177.949 415.25 178.152 415.992 178.559C416.742 178.965 417.32 179.543 417.727 180.293C418.141 181.035 418.348 181.895 418.348 182.871C418.348 183.848 418.141 184.711 417.727 185.461C417.32 186.203 416.742 186.777 415.992 187.184C415.242 187.59 414.379 187.793 413.402 187.793H407.684V186.223ZM406.641 177.949H408.328V195H406.641V177.949ZM413.145 187.266L414.703 186.727L419.062 195H417.047L413.145 187.266ZM427.934 195.176C426.668 195.176 425.586 194.93 424.688 194.438C423.797 193.945 423.117 193.23 422.648 192.293C422.18 191.355 421.945 190.223 421.945 188.895V184.066C421.945 182.738 422.18 181.605 422.648 180.668C423.117 179.73 423.797 179.016 424.688 178.523C425.586 178.031 426.668 177.785 427.934 177.785C429.199 177.785 430.277 178.031 431.168 178.523C432.066 179.016 432.75 179.73 433.219 180.668C433.688 181.605 433.922 182.738 433.922 184.066V188.895C433.922 190.223 433.688 191.355 433.219 192.293C432.75 193.23 432.066 193.945 431.168 194.438C430.277 194.93 429.199 195.176 427.934 195.176ZM427.934 193.605C428.84 193.605 429.613 193.426 430.254 193.066C430.902 192.699 431.395 192.172 431.73 191.484C432.066 190.789 432.234 189.953 432.234 188.977V183.984C432.234 183.008 432.066 182.176 431.73 181.488C431.395 180.793 430.902 180.266 430.254 179.906C429.613 179.539 428.84 179.355 427.934 179.355C427.027 179.355 426.25 179.539 425.602 179.906C424.961 180.266 424.473 180.793 424.137 181.488C423.801 182.176 423.633 183.008 423.633 183.984V188.977C423.633 189.953 423.801 190.789 424.137 191.484C424.473 192.172 424.961 192.699 425.602 193.066C426.25 193.426 427.027 193.605 427.934 193.605ZM443.426 195.176C442.16 195.176 441.078 194.93 440.18 194.438C439.289 193.945 438.609 193.23 438.141 192.293C437.672 191.355 437.438 190.223 437.438 188.895V184.066C437.438 182.738 437.672 181.605 438.141 180.668C438.609 179.73 439.289 179.016 440.18 178.523C441.078 178.031 442.16 177.785 443.426 177.785C444.691 177.785 445.77 178.031 446.66 178.523C447.559 179.016 448.242 179.73 448.711 180.668C449.18 181.605 449.414 182.738 449.414 184.066V188.895C449.414 190.223 449.18 191.355 448.711 192.293C448.242 193.23 447.559 193.945 446.66 194.438C445.77 194.93 444.691 195.176 443.426 195.176ZM443.426 193.605C444.332 193.605 445.105 193.426 445.746 193.066C446.395 192.699 446.887 192.172 447.223 191.484C447.559 190.789 447.727 189.953 447.727 188.977V183.984C447.727 183.008 447.559 182.176 447.223 181.488C446.887 180.793 446.395 180.266 445.746 179.906C445.105 179.539 444.332 179.355 443.426 179.355C442.52 179.355 441.742 179.539 441.094 179.906C440.453 180.266 439.965 180.793 439.629 181.488C439.293 182.176 439.125 183.008 439.125 183.984V188.977C439.125 189.953 439.293 190.789 439.629 191.484C439.965 192.172 440.453 192.699 441.094 193.066C441.742 193.426 442.52 193.605 443.426 193.605ZM453.281 177.961H454.969V195H453.281V177.961ZM454.453 185.906H462.715V187.477H454.453V185.906ZM454.453 177.961H464.004V179.531H454.453V177.961ZM469.535 178.652H471.223V195H469.535V178.652ZM464.367 177.961H476.391V179.531H464.367V177.961ZM483.902 195.176C482.637 195.176 481.555 194.93 480.656 194.438C479.766 193.945 479.086 193.23 478.617 192.293C478.148 191.355 477.914 190.223 477.914 188.895V184.066C477.914 182.738 478.148 181.605 478.617 180.668C479.086 179.73 479.766 179.016 480.656 178.523C481.555 178.031 482.637 177.785 483.902 177.785C485.168 177.785 486.246 178.031 487.137 178.523C488.035 179.016 488.719 179.73 489.188 180.668C489.656 181.605 489.891 182.738 489.891 184.066V188.895C489.891 190.223 489.656 191.355 489.188 192.293C488.719 193.23 488.035 193.945 487.137 194.438C486.246 194.93 485.168 195.176 483.902 195.176ZM483.902 193.605C484.809 193.605 485.582 193.426 486.223 193.066C486.871 192.699 487.363 192.172 487.699 191.484C488.035 190.789 488.203 189.953 488.203 188.977V183.984C488.203 183.008 488.035 182.176 487.699 181.488C487.363 180.793 486.871 180.266 486.223 179.906C485.582 179.539 484.809 179.355 483.902 179.355C482.996 179.355 482.219 179.539 481.57 179.906C480.93 180.266 480.441 180.793 480.105 181.488C479.77 182.176 479.602 183.008 479.602 183.984V188.977C479.602 189.953 479.77 190.789 480.105 191.484C480.441 192.172 480.93 192.699 481.57 193.066C482.219 193.426 482.996 193.605 483.902 193.605ZM494.988 186.82H500.438C501.102 186.82 501.688 186.668 502.195 186.363C502.703 186.059 503.094 185.633 503.367 185.086C503.648 184.539 503.789 183.906 503.789 183.188C503.789 182.461 503.648 181.824 503.367 181.277C503.094 180.723 502.703 180.293 502.195 179.988C501.688 179.684 501.102 179.531 500.438 179.531H494.988V177.961H500.355C501.371 177.961 502.266 178.18 503.039 178.617C503.812 179.047 504.41 179.656 504.832 180.445C505.262 181.234 505.477 182.148 505.477 183.188C505.477 184.219 505.262 185.129 504.832 185.918C504.41 186.699 503.812 187.309 503.039 187.746C502.266 188.176 501.371 188.391 500.355 188.391H494.988V186.82ZM493.758 177.961H495.445V195H493.758V177.961ZM232.934 207.652H234.621V224H232.934V207.652ZM227.766 206.961H239.789V208.531H227.766V206.961ZM246.07 206.961H248.109L254.391 224H252.516L247.09 208.73L241.664 224H239.789L246.07 206.961ZM242.684 218.293H251.648V219.863H242.684V218.293ZM258.199 215.82H263.648C264.312 215.82 264.898 215.668 265.406 215.363C265.914 215.059 266.305 214.633 266.578 214.086C266.859 213.539 267 212.906 267 212.188C267 211.461 266.859 210.824 266.578 210.277C266.305 209.723 265.914 209.293 265.406 208.988C264.898 208.684 264.312 208.531 263.648 208.531H258.199V206.961H263.566C264.582 206.961 265.477 207.18 266.25 207.617C267.023 208.047 267.621 208.656 268.043 209.445C268.473 210.234 268.688 211.148 268.688 212.188C268.688 213.219 268.473 214.129 268.043 214.918C267.621 215.699 267.023 216.309 266.25 216.746C265.477 217.176 264.582 217.391 263.566 217.391H258.199V215.82ZM256.969 206.961H258.656V224H256.969V206.961ZM275.508 206.961H277.547L283.828 224H281.953L276.527 208.73L271.102 224H269.227L275.508 206.961ZM272.121 218.293H281.086V219.863H272.121V218.293ZM291.176 224.176C290.355 224.176 289.578 224.098 288.844 223.941C288.109 223.785 287.422 223.551 286.781 223.238C286.148 222.926 285.555 222.535 285 222.066L286.02 220.73C286.73 221.355 287.516 221.824 288.375 222.137C289.234 222.449 290.168 222.605 291.176 222.605C292.637 222.605 293.766 222.316 294.562 221.738C295.367 221.16 295.77 220.348 295.77 219.301V219.289C295.77 218.641 295.594 218.121 295.242 217.73C294.898 217.34 294.449 217.047 293.895 216.852C293.348 216.656 292.641 216.477 291.773 216.312C291.75 216.305 291.723 216.301 291.691 216.301C291.668 216.293 291.641 216.285 291.609 216.277L291.27 216.207C290.074 215.98 289.117 215.746 288.398 215.504C287.68 215.254 287.066 214.836 286.559 214.25C286.059 213.656 285.809 212.836 285.809 211.789V211.777C285.809 210.723 286.043 209.824 286.512 209.082C286.988 208.332 287.68 207.762 288.586 207.371C289.492 206.98 290.582 206.785 291.855 206.785C292.457 206.785 293.051 206.852 293.637 206.984C294.23 207.117 294.812 207.316 295.383 207.582C295.961 207.84 296.531 208.168 297.094 208.566L296.098 209.891C295.363 209.375 294.645 208.992 293.941 208.742C293.238 208.484 292.543 208.355 291.855 208.355C290.465 208.355 289.387 208.648 288.621 209.234C287.855 209.82 287.473 210.645 287.473 211.707V211.719C287.473 212.359 287.664 212.867 288.047 213.242C288.43 213.609 288.902 213.883 289.465 214.062C290.035 214.242 290.812 214.43 291.797 214.625C291.828 214.633 291.859 214.641 291.891 214.648C291.93 214.656 291.969 214.664 292.008 214.672C292.055 214.68 292.098 214.691 292.137 214.707C292.184 214.715 292.23 214.723 292.277 214.73C293.348 214.949 294.238 215.199 294.949 215.48C295.66 215.762 296.25 216.203 296.719 216.805C297.195 217.398 297.434 218.203 297.434 219.219V219.242C297.434 220.281 297.188 221.172 296.695 221.914C296.203 222.648 295.488 223.211 294.551 223.602C293.621 223.984 292.496 224.176 291.176 224.176ZM304.945 206.961H306.633V224H304.945V206.961ZM306.105 222.43H315.891V224H306.105V222.43ZM306.105 214.754H314.602V216.324H306.105V214.754ZM306.105 206.961H315.891V208.531H306.105V206.961ZM322.113 207.652H323.801V224H322.113V207.652ZM316.945 206.961H328.969V208.531H316.945V206.961ZM340.523 224.176C339.344 224.176 338.305 223.914 337.406 223.391C336.516 222.867 335.824 222.125 335.332 221.164C334.84 220.203 334.594 219.09 334.594 217.824V213.148C334.594 211.883 334.84 210.77 335.332 209.809C335.824 208.848 336.516 208.105 337.406 207.582C338.305 207.051 339.344 206.785 340.523 206.785C341.5 206.785 342.398 206.984 343.219 207.383C344.039 207.781 344.723 208.348 345.27 209.082C345.824 209.809 346.199 210.652 346.395 211.613H344.707C344.52 210.973 344.211 210.406 343.781 209.914C343.359 209.422 342.863 209.039 342.293 208.766C341.723 208.492 341.133 208.355 340.523 208.355C339.68 208.355 338.938 208.555 338.297 208.953C337.656 209.352 337.16 209.914 336.809 210.641C336.457 211.359 336.281 212.195 336.281 213.148V217.824C336.281 218.777 336.457 219.617 336.809 220.344C337.16 221.062 337.656 221.621 338.297 222.02C338.938 222.41 339.68 222.605 340.523 222.605C341.133 222.605 341.723 222.477 342.293 222.219C342.863 221.961 343.359 221.586 343.781 221.094C344.211 220.602 344.52 220.02 344.707 219.348H346.395C346.199 220.309 345.824 221.156 345.27 221.891C344.715 222.617 344.027 223.18 343.207 223.578C342.387 223.977 341.492 224.176 340.523 224.176ZM355.441 224.176C354.176 224.176 353.094 223.93 352.195 223.438C351.305 222.945 350.625 222.23 350.156 221.293C349.688 220.355 349.453 219.223 349.453 217.895V213.066C349.453 211.738 349.688 210.605 350.156 209.668C350.625 208.73 351.305 208.016 352.195 207.523C353.094 207.031 354.176 206.785 355.441 206.785C356.707 206.785 357.785 207.031 358.676 207.523C359.574 208.016 360.258 208.73 360.727 209.668C361.195 210.605 361.43 211.738 361.43 213.066V217.895C361.43 219.223 361.195 220.355 360.727 221.293C360.258 222.23 359.574 222.945 358.676 223.438C357.785 223.93 356.707 224.176 355.441 224.176ZM355.441 222.605C356.348 222.605 357.121 222.426 357.762 222.066C358.41 221.699 358.902 221.172 359.238 220.484C359.574 219.789 359.742 218.953 359.742 217.977V212.984C359.742 212.008 359.574 211.176 359.238 210.488C358.902 209.793 358.41 209.266 357.762 208.906C357.121 208.539 356.348 208.355 355.441 208.355C354.535 208.355 353.758 208.539 353.109 208.906C352.469 209.266 351.98 209.793 351.645 210.488C351.309 211.176 351.141 212.008 351.141 212.984V217.977C351.141 218.953 351.309 219.789 351.645 220.484C351.98 221.172 352.469 221.699 353.109 222.066C353.758 222.426 354.535 222.605 355.441 222.605ZM370.875 224.176C369.695 224.176 368.656 223.914 367.758 223.391C366.867 222.867 366.176 222.125 365.684 221.164C365.191 220.203 364.945 219.09 364.945 217.824V213.148C364.945 211.883 365.191 210.77 365.684 209.809C366.176 208.848 366.867 208.105 367.758 207.582C368.656 207.051 369.695 206.785 370.875 206.785C371.852 206.785 372.75 206.984 373.57 207.383C374.391 207.781 375.074 208.348 375.621 209.082C376.176 209.809 376.551 210.652 376.746 211.613H375.059C374.871 210.973 374.562 210.406 374.133 209.914C373.711 209.422 373.215 209.039 372.645 208.766C372.074 208.492 371.484 208.355 370.875 208.355C370.031 208.355 369.289 208.555 368.648 208.953C368.008 209.352 367.512 209.914 367.16 210.641C366.809 211.359 366.633 212.195 366.633 213.148V217.824C366.633 218.777 366.809 219.617 367.16 220.344C367.512 221.062 368.008 221.621 368.648 222.02C369.289 222.41 370.031 222.605 370.875 222.605C371.484 222.605 372.074 222.477 372.645 222.219C373.215 221.961 373.711 221.586 374.133 221.094C374.562 220.602 374.871 220.02 375.059 219.348H376.746C376.551 220.309 376.176 221.156 375.621 221.891C375.066 222.617 374.379 223.18 373.559 223.578C372.738 223.977 371.844 224.176 370.875 224.176ZM380.977 218.809L390.316 206.961H392.496L381.68 220.109L380.977 218.809ZM380.156 206.961H381.844V224H380.156V206.961ZM385.781 214.906L386.754 213.16L393.211 224H391.195L385.781 214.906ZM398.379 207.652H400.066V224H398.379V207.652ZM393.211 206.961H405.234V208.531H393.211V206.961ZM411.516 206.961H413.555L419.836 224H417.961L412.535 208.73L407.109 224H405.234L411.516 206.961ZM408.129 218.293H417.094V219.863H408.129V218.293ZM424.453 224H422.766V206.961H424.453V224ZM429.023 206.961H430.711V224H429.023V206.961ZM430.219 222.43H439.969V224H430.219V222.43ZM447.902 224.176C447.082 224.176 446.305 224.098 445.57 223.941C444.836 223.785 444.148 223.551 443.508 223.238C442.875 222.926 442.281 222.535 441.727 222.066L442.746 220.73C443.457 221.355 444.242 221.824 445.102 222.137C445.961 222.449 446.895 222.605 447.902 222.605C449.363 222.605 450.492 222.316 451.289 221.738C452.094 221.16 452.496 220.348 452.496 219.301V219.289C452.496 218.641 452.32 218.121 451.969 217.73C451.625 217.34 451.176 217.047 450.621 216.852C450.074 216.656 449.367 216.477 448.5 216.312C448.477 216.305 448.449 216.301 448.418 216.301C448.395 216.293 448.367 216.285 448.336 216.277L447.996 216.207C446.801 215.98 445.844 215.746 445.125 215.504C444.406 215.254 443.793 214.836 443.285 214.25C442.785 213.656 442.535 212.836 442.535 211.789V211.777C442.535 210.723 442.77 209.824 443.238 209.082C443.715 208.332 444.406 207.762 445.312 207.371C446.219 206.98 447.309 206.785 448.582 206.785C449.184 206.785 449.777 206.852 450.363 206.984C450.957 207.117 451.539 207.316 452.109 207.582C452.688 207.84 453.258 208.168 453.82 208.566L452.824 209.891C452.09 209.375 451.371 208.992 450.668 208.742C449.965 208.484 449.27 208.355 448.582 208.355C447.191 208.355 446.113 208.648 445.348 209.234C444.582 209.82 444.199 210.645 444.199 211.707V211.719C444.199 212.359 444.391 212.867 444.773 213.242C445.156 213.609 445.629 213.883 446.191 214.062C446.762 214.242 447.539 214.43 448.523 214.625C448.555 214.633 448.586 214.641 448.617 214.648C448.656 214.656 448.695 214.664 448.734 214.672C448.781 214.68 448.824 214.691 448.863 214.707C448.91 214.715 448.957 214.723 449.004 214.73C450.074 214.949 450.965 215.199 451.676 215.48C452.387 215.762 452.977 216.203 453.445 216.805C453.922 217.398 454.16 218.203 454.16 219.219V219.242C454.16 220.281 453.914 221.172 453.422 221.914C452.93 222.648 452.215 223.211 451.277 223.602C450.348 223.984 449.223 224.176 447.902 224.176ZM456.633 222.312H458.32V224L456.633 225.664V222.312ZM471.047 206.961H473.086L479.367 224H477.492L472.066 208.73L466.641 224H464.766L471.047 206.961ZM467.66 218.293H476.625V219.863H467.66V218.293ZM487.277 215.82H492.727C493.391 215.82 493.977 215.668 494.484 215.363C494.992 215.059 495.383 214.633 495.656 214.086C495.938 213.539 496.078 212.906 496.078 212.188C496.078 211.461 495.938 210.824 495.656 210.277C495.383 209.723 494.992 209.293 494.484 208.988C493.977 208.684 493.391 208.531 492.727 208.531H487.277V206.961H492.645C493.66 206.961 494.555 207.18 495.328 207.617C496.102 208.047 496.699 208.656 497.121 209.445C497.551 210.234 497.766 211.148 497.766 212.188C497.766 213.219 497.551 214.129 497.121 214.918C496.699 215.699 496.102 216.309 495.328 216.746C494.555 217.176 493.66 217.391 492.645 217.391H487.277V215.82ZM486.047 206.961H487.734V224H486.047V206.961ZM501 206.961H502.688V224H501V206.961ZM502.16 222.43H511.945V224H502.16V222.43ZM502.16 214.754H510.656V216.324H502.16V214.754ZM502.16 206.961H511.945V208.531H502.16V206.961ZM516.387 215.223H522.199C522.832 215.223 523.387 215.086 523.863 214.812C524.348 214.531 524.719 214.137 524.977 213.629C525.242 213.121 525.379 212.535 525.387 211.871C525.387 211.207 525.254 210.621 524.988 210.113C524.73 209.605 524.359 209.215 523.875 208.941C523.398 208.66 522.84 208.52 522.199 208.52H516.387V206.949H522.105C523.09 206.949 523.953 207.152 524.695 207.559C525.445 207.965 526.023 208.543 526.43 209.293C526.844 210.035 527.051 210.895 527.051 211.871C527.051 212.848 526.844 213.711 526.43 214.461C526.023 215.203 525.445 215.777 524.695 216.184C523.945 216.59 523.082 216.793 522.105 216.793H516.387V215.223ZM515.344 206.949H517.031V224H515.344V206.949ZM521.848 216.266L523.406 215.727L527.766 224H525.75L521.848 216.266ZM533.824 207.652H535.512V224H533.824V207.652ZM528.656 206.961H540.68V208.531H528.656V206.961ZM542.555 206.961H544.242V224H542.555V206.961ZM543.715 222.43H553.5V224H543.715V222.43ZM543.715 214.754H552.211V216.324H543.715V214.754ZM543.715 206.961H553.5V208.531H543.715V206.961ZM562.617 222.43H566.473C568.051 222.43 569.23 222.062 570.012 221.328C570.801 220.586 571.195 219.473 571.195 217.988V212.973C571.195 211.488 570.801 210.379 570.012 209.645C569.23 208.902 568.051 208.531 566.473 208.531H562.617V206.961H566.402C567.848 206.961 569.051 207.188 570.012 207.641C570.973 208.086 571.691 208.762 572.168 209.668C572.645 210.574 572.883 211.707 572.883 213.066V217.895C572.883 219.254 572.641 220.387 572.156 221.293C571.68 222.191 570.961 222.867 570 223.32C569.039 223.773 567.836 224 566.391 224H562.617V222.43ZM561 206.961H562.688V224H561V206.961ZM576.75 206.961H578.438V224H576.75V206.961ZM577.91 222.43H587.695V224H577.91V222.43ZM577.91 214.754H586.406V216.324H577.91V214.754ZM577.91 206.961H587.695V208.531H577.91V206.961ZM593.438 206.961H595.219L600.129 221.609L605.039 206.961H606.82L600.914 224H599.344L593.438 206.961ZM614.789 224.176C613.453 224.176 612.344 223.945 611.461 223.484C610.578 223.023 609.914 222.336 609.469 221.422C609.031 220.5 608.812 219.344 608.812 217.953V206.961H610.5V218.035C610.5 219.527 610.855 220.648 611.566 221.398C612.277 222.141 613.352 222.512 614.789 222.512C616.227 222.512 617.305 222.141 618.023 221.398C618.742 220.648 619.102 219.527 619.102 218.035V206.961H620.789V217.953C620.789 219.344 620.566 220.5 620.121 221.422C619.684 222.336 619.02 223.023 618.129 223.484C617.238 223.945 616.125 224.176 614.789 224.176ZM624.773 206.961H626.461V224H624.773V206.961ZM625.934 222.43H635.719V224H625.934V222.43ZM625.934 214.754H634.43V216.324H625.934V214.754ZM625.934 206.961H635.719V208.531H625.934V206.961Z" fill="#1C5B73"/>
<defs>
<linearGradient id="paint0_linear_290_45" x1="-20.2714" y1="88.2461" x2="180.867" y2="39.7158" gradientUnits="userSpaceOnUse">
<stop stop-color="#5CA5D1"/>
<stop offset="0.984375" stop-color="#BAE0E9"/>
</linearGradient>
<linearGradient id="paint1_linear_290_45" x1="679.277" y1="263.254" x2="477.767" y2="311.056" gradientUnits="userSpaceOnUse">
<stop stop-color="#5CA5D1"/>
<stop offset="0.984375" stop-color="#BAE0E9"/>
</linearGradient>
</defs>
</svg>
