<svg width="268" height="20" viewBox="0 0 268 20" fill="none" xmlns="http://www.w3.org/2000/svg">
<path d="M5.6899 18.7299C4.8299 18.5299 4.08989 18.1199 3.47989 17.5099C2.86989 16.8999 2.4399 16.1199 2.1999 15.1499L5.4499 14.4799C5.5699 14.8099 5.72989 15.0899 5.92989 15.2899C6.13989 15.4999 6.37989 15.6399 6.64989 15.7199C6.91989 15.7999 7.21989 15.7999 7.53989 15.7399C8.13989 15.6199 8.55991 15.3599 8.81991 14.9599C9.07991 14.5599 9.1399 14.0599 9.0199 13.4499L8.9399 13.0599C8.8099 12.4199 8.5799 11.9599 8.2399 11.6699C7.9099 11.3799 7.4899 11.2799 6.9999 11.3899L5.58989 11.6799L4.9699 8.64987L6.3799 8.35987C6.7799 8.27987 7.05991 8.06988 7.20991 7.71988C7.3699 7.36988 7.3899 6.92988 7.2799 6.37988L7.2199 6.08988C7.1099 5.57988 6.90989 5.20989 6.61989 4.97989C6.31989 4.74989 5.9499 4.67987 5.5199 4.76987C5.2399 4.82987 4.98989 4.94987 4.78989 5.14987C4.57989 5.33987 4.4299 5.58987 4.3299 5.89987C4.2299 6.20987 4.1799 6.56988 4.1899 6.96988L0.949895 7.62988C0.829895 6.58988 0.929894 5.65987 1.22989 4.82987C1.52989 3.99987 2.0099 3.30988 2.6699 2.77988C3.3299 2.23988 4.09989 1.87989 5.00989 1.69989C6.48989 1.39989 7.7099 1.53988 8.6699 2.12988C9.6299 2.71988 10.2499 3.70988 10.5399 5.08988L10.6399 5.58988C10.7999 6.35988 10.7399 7.07989 10.4699 7.72989C10.1999 8.37989 9.72991 8.92987 9.06991 9.35987C9.90991 9.37987 10.6199 9.66987 11.1899 10.2399C11.7699 10.8099 12.1599 11.5999 12.3699 12.6199L12.4699 13.1199C12.6699 14.0899 12.6499 14.9599 12.4099 15.7299C12.1699 16.4999 11.7199 17.1399 11.0599 17.6499C10.3999 18.1599 9.5499 18.5199 8.5199 18.7299C7.4899 18.9299 6.5499 18.9299 5.6899 18.7299Z" fill="#056F7B"/>
<path d="M19.1799 16.7699C18.4299 16.3699 17.8699 15.7799 17.4799 15.0099C17.0899 14.2399 16.8999 13.3099 16.8999 12.2199V12.2099C16.8999 11.5899 16.9799 10.9399 17.1299 10.2499C17.2799 9.55991 17.4999 8.8699 17.7899 8.1799C17.8399 8.0599 17.8899 7.94989 17.9399 7.8299C17.9899 7.7099 18.0499 7.5999 18.0999 7.4899L21.5799 0.159912L25.2099 0.169922L21.0899 8.65991L20.2799 8.2399C20.4799 7.8699 20.7599 7.58992 21.1399 7.38992C21.5199 7.18992 21.9499 7.0899 22.4499 7.0899C23.3899 7.0899 24.1899 7.28991 24.8499 7.68991C25.5099 8.08991 26.0199 8.6699 26.3599 9.4299C26.6999 10.1899 26.8799 11.1099 26.8699 12.1799V12.1899C26.8699 13.2799 26.6699 14.2199 26.2799 14.9999C25.8899 15.7799 25.3199 16.3699 24.5699 16.7799C23.8199 17.1899 22.9199 17.3799 21.8699 17.3799C20.8199 17.3699 19.9199 17.1699 19.1799 16.7699ZM23.1899 13.7899C23.4999 13.4599 23.6499 12.9899 23.6599 12.3799V12.3699C23.6599 11.6699 23.5099 11.1299 23.1999 10.7499C22.8899 10.3699 22.4499 10.1799 21.8799 10.1799C21.3199 10.1799 20.8799 10.3699 20.5699 10.7599C20.2599 11.1499 20.0999 11.6899 20.0999 12.3799V12.3899C20.0999 12.9999 20.2499 13.4699 20.5599 13.7999C20.8699 14.1299 21.2999 14.2899 21.8699 14.2999C22.4399 14.2899 22.8799 14.1199 23.1899 13.7899Z" fill="#056F7B"/>
<path d="M32.0198 16.7899C31.3498 15.7699 31.1798 14.5199 31.4898 13.0399L33.1098 5.46993C33.4298 3.96993 34.1098 2.89994 35.1398 2.25994C36.1698 1.60994 37.4898 1.46993 39.1098 1.80993C40.7398 2.15993 41.8898 2.83992 42.5598 3.83992C43.2298 4.83992 43.3998 6.09991 43.0798 7.60991L41.4598 15.1799C41.1398 16.6799 40.4598 17.7499 39.4298 18.3899C38.3998 19.0399 37.0798 19.1799 35.4598 18.8399C33.8398 18.4899 32.6898 17.8099 32.0198 16.7899ZM37.6498 15.4699C38.0398 15.0999 38.3198 14.5099 38.4998 13.6999L39.7798 7.72994C39.9498 6.91994 39.9398 6.26992 39.7298 5.76992C39.5198 5.26992 39.1098 4.95994 38.4698 4.81994C37.8398 4.67994 37.3198 4.79994 36.9298 5.16994C36.5398 5.53994 36.2598 6.12993 36.0798 6.93993L34.7998 12.9099C34.6298 13.7199 34.6398 14.3699 34.8498 14.8699C35.0598 15.3699 35.4698 15.6799 36.1098 15.8199C36.7498 15.9499 37.2598 15.8399 37.6498 15.4699Z" fill="#056F7B"/>
<path d="M48.4699 10.81C48.1099 10 48.1499 9.09002 48.5599 8.07002C48.9799 7.04002 49.5999 6.37 50.4199 6.05C51.2399 5.73 52.1899 5.79 53.2799 6.24C54.3699 6.69 55.0799 7.31 55.4399 8.12C55.7999 8.93 55.7599 9.85001 55.3399 10.88C54.9199 11.9 54.2999 12.57 53.4799 12.89C52.6599 13.21 51.7099 13.15 50.6299 12.71C49.5499 12.25 48.8299 11.62 48.4699 10.81ZM52.3099 10.53C52.5499 10.41 52.7399 10.17 52.8799 9.82002C53.0099 9.49002 53.0399 9.20002 52.9599 8.95002C52.8799 8.70002 52.6799 8.52 52.3899 8.4C52.0999 8.28 51.8399 8.28 51.6099 8.4C51.3799 8.52 51.1899 8.75001 51.0599 9.09001C50.9199 9.44001 50.8899 9.73002 50.9599 9.98002C51.0399 10.23 51.2199 10.41 51.5099 10.53C51.8099 10.65 52.0699 10.65 52.3099 10.53Z" fill="#056F7B"/>
<path d="M5.6899 18.7299C4.8299 18.5299 4.08989 18.1199 3.47989 17.5099C2.86989 16.8999 2.4399 16.1199 2.1999 15.1499L5.4499 14.4799C5.5699 14.8099 5.72989 15.0899 5.92989 15.2899C6.13989 15.4999 6.37989 15.6399 6.64989 15.7199C6.91989 15.7999 7.21989 15.7999 7.53989 15.7399C8.13989 15.6199 8.55991 15.3599 8.81991 14.9599C9.07991 14.5599 9.1399 14.0599 9.0199 13.4499L8.9399 13.0599C8.8099 12.4199 8.5799 11.9599 8.2399 11.6699C7.9099 11.3799 7.4899 11.2799 6.9999 11.3899L5.58989 11.6799L4.9699 8.64987L6.3799 8.35987C6.7799 8.27987 7.05991 8.06988 7.20991 7.71988C7.3699 7.36988 7.3899 6.92988 7.2799 6.37988L7.2199 6.08988C7.1099 5.57988 6.90989 5.20989 6.61989 4.97989C6.31989 4.74989 5.9499 4.67987 5.5199 4.76987C5.2399 4.82987 4.98989 4.94987 4.78989 5.14987C4.57989 5.33987 4.4299 5.58987 4.3299 5.89987C4.2299 6.20987 4.1799 6.56988 4.1899 6.96988L0.949895 7.62988C0.829895 6.58988 0.929894 5.65987 1.22989 4.82987C1.52989 3.99987 2.0099 3.30988 2.6699 2.77988C3.3299 2.23988 4.09989 1.87989 5.00989 1.69989C6.48989 1.39989 7.7099 1.53988 8.6699 2.12988C9.6299 2.71988 10.2499 3.70988 10.5399 5.08988L10.6399 5.58988C10.7999 6.35988 10.7399 7.07989 10.4699 7.72989C10.1999 8.37989 9.72991 8.92987 9.06991 9.35987C9.90991 9.37987 10.6199 9.66987 11.1899 10.2399C11.7699 10.8099 12.1599 11.5999 12.3699 12.6199L12.4699 13.1199C12.6699 14.0899 12.6499 14.9599 12.4099 15.7299C12.1699 16.4999 11.7199 17.1399 11.0599 17.6499C10.3999 18.1599 9.5499 18.5199 8.5199 18.7299C7.4899 18.9299 6.5499 18.9299 5.6899 18.7299Z" fill="#056F7B"/>
<path d="M19.1799 16.7699C18.4299 16.3699 17.8699 15.7799 17.4799 15.0099C17.0899 14.2399 16.8999 13.3099 16.8999 12.2199V12.2099C16.8999 11.5899 16.9799 10.9399 17.1299 10.2499C17.2799 9.55991 17.4999 8.8699 17.7899 8.1799C17.8399 8.0599 17.8899 7.94989 17.9399 7.8299C17.9899 7.7099 18.0499 7.5999 18.0999 7.4899L21.5799 0.159912L25.2099 0.169922L21.0899 8.65991L20.2799 8.2399C20.4799 7.8699 20.7599 7.58992 21.1399 7.38992C21.5199 7.18992 21.9499 7.0899 22.4499 7.0899C23.3899 7.0899 24.1899 7.28991 24.8499 7.68991C25.5099 8.08991 26.0199 8.6699 26.3599 9.4299C26.6999 10.1899 26.8799 11.1099 26.8699 12.1799V12.1899C26.8699 13.2799 26.6699 14.2199 26.2799 14.9999C25.8899 15.7799 25.3199 16.3699 24.5699 16.7799C23.8199 17.1899 22.9199 17.3799 21.8699 17.3799C20.8199 17.3699 19.9199 17.1699 19.1799 16.7699ZM23.1899 13.7899C23.4999 13.4599 23.6499 12.9899 23.6599 12.3799V12.3699C23.6599 11.6699 23.5099 11.1299 23.1999 10.7499C22.8899 10.3699 22.4499 10.1799 21.8799 10.1799C21.3199 10.1799 20.8799 10.3699 20.5699 10.7599C20.2599 11.1499 20.0999 11.6899 20.0999 12.3799V12.3899C20.0999 12.9999 20.2499 13.4699 20.5599 13.7999C20.8699 14.1299 21.2999 14.2899 21.8699 14.2999C22.4399 14.2899 22.8799 14.1199 23.1899 13.7899Z" fill="#056F7B"/>
<path d="M32.0198 16.7899C31.3498 15.7699 31.1798 14.5199 31.4898 13.0399L33.1098 5.46993C33.4298 3.96993 34.1098 2.89994 35.1398 2.25994C36.1698 1.60994 37.4898 1.46993 39.1098 1.80993C40.7398 2.15993 41.8898 2.83992 42.5598 3.83992C43.2298 4.83992 43.3998 6.09991 43.0798 7.60991L41.4598 15.1799C41.1398 16.6799 40.4598 17.7499 39.4298 18.3899C38.3998 19.0399 37.0798 19.1799 35.4598 18.8399C33.8398 18.4899 32.6898 17.8099 32.0198 16.7899ZM37.6498 15.4699C38.0398 15.0999 38.3198 14.5099 38.4998 13.6999L39.7798 7.72994C39.9498 6.91994 39.9398 6.26992 39.7298 5.76992C39.5198 5.26992 39.1098 4.95994 38.4698 4.81994C37.8398 4.67994 37.3198 4.79994 36.9298 5.16994C36.5398 5.53994 36.2598 6.12993 36.0798 6.93993L34.7998 12.9099C34.6298 13.7199 34.6398 14.3699 34.8498 14.8699C35.0598 15.3699 35.4698 15.6799 36.1098 15.8199C36.7498 15.9499 37.2598 15.8399 37.6498 15.4699Z" fill="#056F7B"/>
<path d="M48.4699 10.81C48.1099 10 48.1499 9.09002 48.5599 8.07002C48.9799 7.04002 49.5999 6.37 50.4199 6.05C51.2399 5.73 52.1899 5.79 53.2799 6.24C54.3699 6.69 55.0799 7.31 55.4399 8.12C55.7999 8.93 55.7599 9.85001 55.3399 10.88C54.9199 11.9 54.2999 12.57 53.4799 12.89C52.6599 13.21 51.7099 13.15 50.6299 12.71C49.5499 12.25 48.8299 11.62 48.4699 10.81ZM52.3099 10.53C52.5499 10.41 52.7399 10.17 52.8799 9.82002C53.0099 9.49002 53.0399 9.20002 52.9599 8.95002C52.8799 8.70002 52.6799 8.52 52.3899 8.4C52.0999 8.28 51.8399 8.28 51.6099 8.4C51.3799 8.52 51.1899 8.75001 51.0599 9.09001C50.9199 9.44001 50.8899 9.73002 50.9599 9.98002C51.0399 10.23 51.2199 10.41 51.5099 10.53C51.8099 10.65 52.0699 10.65 52.3099 10.53Z" fill="#056F7B"/>
<path d="M77.1201 3.43994H79.5301V16.2299H77.1201V3.43994ZM78.0701 8.76993H82.5201C82.7701 8.76993 82.9801 8.70994 83.1701 8.58994C83.3601 8.46994 83.5001 8.28994 83.6101 8.05994C83.7201 7.82994 83.7701 7.56993 83.7701 7.26993C83.7701 6.96993 83.7201 6.70995 83.6201 6.47995C83.5201 6.24995 83.3701 6.07995 83.1801 5.94995C82.9901 5.81995 82.7701 5.76993 82.5201 5.76993H78.0701V3.44995H82.7101C83.4101 3.44995 84.0301 3.60995 84.5601 3.91995C85.0901 4.22995 85.5101 4.67995 85.8001 5.25995C86.0901 5.83995 86.2401 6.50993 86.2401 7.26993C86.2401 8.02993 86.0901 8.69994 85.8001 9.27994C85.5101 9.85994 85.0901 10.2999 84.5601 10.6199C84.0301 10.9399 83.4101 11.0899 82.7101 11.0899H78.0701V8.76993ZM80.7601 10.6899L83.3401 10.2899L86.7901 16.2299H83.8701L80.7601 10.6899Z" fill="#056F7B"/>
<path d="M90.8001 15.7801C90.0901 15.3901 89.5501 14.8401 89.1601 14.1301C88.7701 13.4201 88.5801 12.5901 88.5801 11.6601V8.0401C88.5801 7.1001 88.7701 6.2801 89.1601 5.5701C89.5501 4.8601 90.0901 4.3101 90.8001 3.9201C91.5101 3.5301 92.3201 3.34009 93.2501 3.34009C94.1801 3.34009 94.9901 3.5301 95.7001 3.9201C96.4101 4.3101 96.9501 4.8601 97.3401 5.5701C97.7301 6.2801 97.9201 7.1101 97.9201 8.0401V11.6601C97.9201 12.6001 97.7301 13.4201 97.3401 14.1301C96.9501 14.8401 96.4101 15.3901 95.7001 15.7801C94.9901 16.1701 94.1801 16.3601 93.2501 16.3601C92.3201 16.3601 91.5101 16.1701 90.8001 15.7801ZM94.4001 13.6801C94.7301 13.5001 94.9801 13.2301 95.1601 12.8901C95.3401 12.5501 95.4301 12.1601 95.4301 11.7101V7.97009C95.4301 7.52009 95.3401 7.1301 95.1601 6.7901C94.9801 6.4501 94.7301 6.19009 94.4001 6.00009C94.0701 5.81009 93.6901 5.72009 93.2601 5.72009C92.8301 5.72009 92.4501 5.81009 92.1201 6.00009C91.7901 6.19009 91.5401 6.4501 91.3601 6.7901C91.1801 7.1301 91.0901 7.52009 91.0901 7.97009V11.7101C91.0901 12.1601 91.1801 12.5501 91.3601 12.8901C91.5401 13.2301 91.7901 13.4901 92.1201 13.6801C92.4501 13.8701 92.8301 13.9601 93.2601 13.9601C93.6901 13.9601 94.0701 13.8601 94.4001 13.6801Z" fill="#056F7B"/>
<path d="M102.42 15.7801C101.71 15.3901 101.17 14.8401 100.78 14.1301C100.39 13.4201 100.2 12.5901 100.2 11.6601V8.0401C100.2 7.1001 100.39 6.2801 100.78 5.5701C101.17 4.8601 101.71 4.3101 102.42 3.9201C103.13 3.5301 103.94 3.34009 104.87 3.34009C105.8 3.34009 106.61 3.5301 107.32 3.9201C108.03 4.3101 108.57 4.8601 108.96 5.5701C109.35 6.2801 109.54 7.1101 109.54 8.0401V11.6601C109.54 12.6001 109.35 13.4201 108.96 14.1301C108.57 14.8401 108.03 15.3901 107.32 15.7801C106.61 16.1701 105.8 16.3601 104.87 16.3601C103.94 16.3601 103.13 16.1701 102.42 15.7801ZM106.01 13.6801C106.34 13.5001 106.59 13.2301 106.77 12.8901C106.95 12.5501 107.04 12.1601 107.04 11.7101V7.97009C107.04 7.52009 106.95 7.1301 106.77 6.7901C106.59 6.4501 106.34 6.19009 106.01 6.00009C105.68 5.81009 105.3 5.72009 104.87 5.72009C104.44 5.72009 104.06 5.81009 103.73 6.00009C103.4 6.19009 103.15 6.4501 102.97 6.7901C102.79 7.1301 102.7 7.52009 102.7 7.97009V11.7101C102.7 12.1601 102.79 12.5501 102.97 12.8901C103.15 13.2301 103.4 13.4901 103.73 13.6801C104.06 13.8701 104.44 13.9601 104.87 13.9601C105.3 13.9601 105.69 13.8601 106.01 13.6801Z" fill="#056F7B"/>
<path d="M112.09 3.4502H114.5V16.2302H112.09V3.4502ZM112.97 3.4502H120.48V5.77017H112.97V3.4502ZM112.97 8.84018H119.52V11.1602H112.97V8.84018Z" fill="#056F7B"/>
<path d="M120.39 3.4502H129.76V5.77017H120.39V3.4502ZM123.87 4.50018H126.28V16.2302H123.87V4.50018Z" fill="#056F7B"/>
<path d="M132.77 15.7801C132.06 15.3901 131.52 14.8401 131.13 14.1301C130.74 13.4201 130.55 12.5901 130.55 11.6601V8.0401C130.55 7.1001 130.74 6.2801 131.13 5.5701C131.52 4.8601 132.06 4.3101 132.77 3.9201C133.48 3.5301 134.29 3.34009 135.22 3.34009C136.15 3.34009 136.96 3.5301 137.67 3.9201C138.38 4.3101 138.92 4.8601 139.31 5.5701C139.7 6.2801 139.89 7.1101 139.89 8.0401V11.6601C139.89 12.6001 139.7 13.4201 139.31 14.1301C138.92 14.8401 138.38 15.3901 137.67 15.7801C136.96 16.1701 136.15 16.3601 135.22 16.3601C134.29 16.3601 133.48 16.1701 132.77 15.7801ZM136.36 13.6801C136.69 13.5001 136.94 13.2301 137.12 12.8901C137.3 12.5501 137.39 12.1601 137.39 11.7101V7.97009C137.39 7.52009 137.3 7.1301 137.12 6.7901C136.94 6.4501 136.69 6.19009 136.36 6.00009C136.03 5.81009 135.65 5.72009 135.22 5.72009C134.79 5.72009 134.41 5.81009 134.08 6.00009C133.75 6.19009 133.5 6.4501 133.32 6.7901C133.14 7.1301 133.05 7.52009 133.05 7.97009V11.7101C133.05 12.1601 133.14 12.5501 133.32 12.8901C133.5 13.2301 133.75 13.4901 134.08 13.6801C134.41 13.8701 134.79 13.9601 135.22 13.9601C135.65 13.9601 136.04 13.8601 136.36 13.6801Z" fill="#056F7B"/>
<path d="M142.44 3.44995H144.85V16.2299H142.44V3.44995ZM143.54 8.94995H147.63C147.92 8.94995 148.17 8.87994 148.39 8.74994C148.61 8.61994 148.78 8.42994 148.9 8.18994C149.02 7.94994 149.08 7.66992 149.08 7.35992C149.08 7.03992 149.02 6.75993 148.9 6.51993C148.78 6.27993 148.61 6.08993 148.39 5.95993C148.17 5.82993 147.91 5.75995 147.62 5.75995H143.53V3.43994H147.56C148.36 3.43994 149.06 3.59993 149.66 3.92993C150.26 4.25993 150.74 4.70994 151.07 5.30994C151.4 5.90994 151.57 6.58993 151.57 7.36993C151.57 8.14993 151.4 8.82995 151.07 9.41995C150.74 10.01 150.27 10.4599 149.66 10.7899C149.05 11.1199 148.35 11.2699 147.56 11.2699H143.53V8.94995H143.54Z" fill="#056F7B"/>
<path d="M158.48 3.43994H160.89V16.2299H158.48V3.43994ZM159.43 8.76993H163.88C164.13 8.76993 164.34 8.70994 164.53 8.58994C164.72 8.46994 164.86 8.28994 164.96 8.05994C165.06 7.82994 165.12 7.56993 165.12 7.26993C165.12 6.96993 165.07 6.70995 164.97 6.47995C164.87 6.24995 164.72 6.07995 164.54 5.94995C164.36 5.81995 164.13 5.76993 163.88 5.76993H159.43V3.44995H164.07C164.77 3.44995 165.39 3.60995 165.92 3.91995C166.45 4.22995 166.87 4.67995 167.16 5.25995C167.45 5.83995 167.6 6.50993 167.6 7.26993C167.6 8.02993 167.45 8.69994 167.16 9.27994C166.87 9.85994 166.45 10.2999 165.92 10.6199C165.39 10.9399 164.77 11.0899 164.07 11.0899H159.43V8.76993ZM162.12 10.6899L164.7 10.2899L168.15 16.2299H165.23L162.12 10.6899Z" fill="#056F7B"/>
<path d="M170.21 3.4502H172.62V16.2302H170.21V3.4502ZM171.08 3.4502H178.77V5.77017H171.08V3.4502ZM171.08 8.72018H177.8V11.0402H171.08V8.72018ZM171.08 13.9102H178.77V16.2302H171.08V13.9102Z" fill="#056F7B"/>
<path d="M183.2 16.1801C182.62 16.0601 182.07 15.8801 181.56 15.6401C181.05 15.4001 180.59 15.1201 180.18 14.7801L181.3 12.7901C181.79 13.1901 182.36 13.5101 183.01 13.7301C183.66 13.9501 184.32 14.0601 185 14.0601C185.79 14.0601 186.39 13.9301 186.83 13.6601C187.27 13.3901 187.48 13.0201 187.48 12.5301V12.5201C187.48 12.18 187.38 11.9101 187.19 11.7101C187 11.5101 186.74 11.3601 186.43 11.2701C186.12 11.18 185.72 11.0901 185.23 11.0201C185.21 11.01 185.2 11.0101 185.18 11.0101C185.16 11.0101 185.15 11.0101 185.13 11.0001L184.94 10.9701C184.08 10.8401 183.38 10.6701 182.81 10.4601C182.24 10.2501 181.77 9.90005 181.38 9.40005C180.99 8.90005 180.79 8.17005 180.79 7.24005V7.23007C180.79 6.40007 180.97 5.70005 181.34 5.11005C181.71 4.52005 182.25 4.08005 182.95 3.77005C183.65 3.46005 184.5 3.31006 185.5 3.31006C185.96 3.31006 186.42 3.36006 186.9 3.47006C187.38 3.58006 187.85 3.73005 188.3 3.93005C188.75 4.13005 189.19 4.37005 189.6 4.65005L188.58 6.69006C188.09 6.35006 187.57 6.09005 187.04 5.90005C186.51 5.71005 185.99 5.62006 185.5 5.62006C184.76 5.62006 184.19 5.74007 183.79 5.98007C183.39 6.22007 183.18 6.56006 183.18 7.00006V7.01007C183.18 7.38007 183.29 7.67007 183.5 7.88007C183.71 8.09007 183.97 8.25007 184.28 8.35007C184.59 8.45007 185.03 8.56007 185.59 8.67007C185.61 8.68007 185.64 8.68005 185.66 8.68005C185.68 8.68005 185.71 8.69006 185.73 8.69006C185.77 8.70006 185.8 8.70005 185.83 8.71005C185.86 8.72005 185.9 8.73007 185.93 8.73007C186.74 8.89007 187.41 9.08006 187.96 9.31006C188.51 9.54006 188.96 9.90005 189.32 10.4001C189.68 10.9001 189.86 11.5901 189.86 12.4501V12.4701C189.86 13.2801 189.67 13.9801 189.29 14.5601C188.91 15.1401 188.35 15.5801 187.62 15.8901C186.89 16.2001 186.01 16.3501 184.99 16.3501C184.38 16.3601 183.78 16.3001 183.2 16.1801Z" fill="#056F7B"/>
<path d="M190.29 3.4502H199.66V5.77017H190.29V3.4502ZM193.77 4.50018H196.18V16.2302H193.77V4.50018Z" fill="#056F7B"/>
<path d="M204.37 3.4502H205.9L210.79 16.2302H208.2L205.14 7.50018L202.08 16.2302H199.49L204.37 3.4502ZM201.83 11.8602H208.55V14.1802H201.83V11.8602Z" fill="#056F7B"/>
<path d="M214.33 15.7999C213.63 15.4299 213.1 14.89 212.74 14.17C212.38 13.45 212.2 12.5999 212.2 11.5999V3.43994H214.61V11.6599C214.61 12.3899 214.81 12.9599 215.2 13.3699C215.59 13.7799 216.15 13.9799 216.86 13.9799C217.58 13.9799 218.14 13.7799 218.53 13.3699C218.93 12.9699 219.12 12.3999 219.12 11.6599V3.43994H221.53V11.5999C221.53 12.5999 221.35 13.46 220.98 14.17C220.61 14.88 220.08 15.4199 219.38 15.7999C218.68 16.1699 217.84 16.3599 216.85 16.3599C215.86 16.3599 215.03 16.1699 214.33 15.7999Z" fill="#056F7B"/>
<path d="M224.17 3.43994H226.58V16.2299H224.17V3.43994ZM225.12 8.76993H229.57C229.82 8.76993 230.03 8.70994 230.22 8.58994C230.41 8.46994 230.55 8.28994 230.65 8.05994C230.75 7.82994 230.81 7.56993 230.81 7.26993C230.81 6.96993 230.76 6.70995 230.66 6.47995C230.56 6.24995 230.41 6.07995 230.22 5.94995C230.03 5.81995 229.81 5.76993 229.56 5.76993H225.11V3.44995H229.75C230.45 3.44995 231.07 3.60995 231.6 3.91995C232.13 4.22995 232.55 4.67995 232.84 5.25995C233.13 5.83995 233.28 6.50993 233.28 7.26993C233.28 8.02993 233.13 8.69994 232.84 9.27994C232.55 9.85994 232.13 10.2999 231.6 10.6199C231.06 10.9399 230.45 11.0899 229.75 11.0899H225.11V8.76993H225.12ZM227.81 10.6899L230.39 10.2899L233.84 16.2299H230.92L227.81 10.6899Z" fill="#056F7B"/>
<path d="M239.55 3.4502H241.08L245.97 16.2302H243.38L240.32 7.50018L237.26 16.2302H234.67L239.55 3.4502ZM237.01 11.8602H243.73V14.1802H237.01V11.8602Z" fill="#056F7B"/>
<path d="M247.55 3.4502H250.49L255.24 13.2402L255.03 13.4702V3.4502H257.33V16.2202H254.37L249.63 6.58017L249.84 6.35019V16.2202H247.54V3.4502H247.55Z" fill="#056F7B"/>
<path d="M258.4 3.4502H267.77V5.77017H258.4V3.4502ZM261.88 4.50018H264.29V16.2302H261.88V4.50018Z" fill="#056F7B"/>
<path d="M77.1201 3.43994H79.5301V16.2299H77.1201V3.43994ZM78.0701 8.76993H82.5201C82.7701 8.76993 82.9801 8.70994 83.1701 8.58994C83.3601 8.46994 83.5001 8.28994 83.6101 8.05994C83.7201 7.82994 83.7701 7.56993 83.7701 7.26993C83.7701 6.96993 83.7201 6.70995 83.6201 6.47995C83.5201 6.24995 83.3701 6.07995 83.1801 5.94995C82.9901 5.81995 82.7701 5.76993 82.5201 5.76993H78.0701V3.44995H82.7101C83.4101 3.44995 84.0301 3.60995 84.5601 3.91995C85.0901 4.22995 85.5101 4.67995 85.8001 5.25995C86.0901 5.83995 86.2401 6.50993 86.2401 7.26993C86.2401 8.02993 86.0901 8.69994 85.8001 9.27994C85.5101 9.85994 85.0901 10.2999 84.5601 10.6199C84.0301 10.9399 83.4101 11.0899 82.7101 11.0899H78.0701V8.76993ZM80.7601 10.6899L83.3401 10.2899L86.7901 16.2299H83.8701L80.7601 10.6899Z" fill="#056F7B"/>
<path d="M90.8001 15.7801C90.0901 15.3901 89.5501 14.8401 89.1601 14.1301C88.7701 13.4201 88.5801 12.5901 88.5801 11.6601V8.0401C88.5801 7.1001 88.7701 6.2801 89.1601 5.5701C89.5501 4.8601 90.0901 4.3101 90.8001 3.9201C91.5101 3.5301 92.3201 3.34009 93.2501 3.34009C94.1801 3.34009 94.9901 3.5301 95.7001 3.9201C96.4101 4.3101 96.9501 4.8601 97.3401 5.5701C97.7301 6.2801 97.9201 7.1101 97.9201 8.0401V11.6601C97.9201 12.6001 97.7301 13.4201 97.3401 14.1301C96.9501 14.8401 96.4101 15.3901 95.7001 15.7801C94.9901 16.1701 94.1801 16.3601 93.2501 16.3601C92.3201 16.3601 91.5101 16.1701 90.8001 15.7801ZM94.4001 13.6801C94.7301 13.5001 94.9801 13.2301 95.1601 12.8901C95.3401 12.5501 95.4301 12.1601 95.4301 11.7101V7.97009C95.4301 7.52009 95.3401 7.1301 95.1601 6.7901C94.9801 6.4501 94.7301 6.19009 94.4001 6.00009C94.0701 5.81009 93.6901 5.72009 93.2601 5.72009C92.8301 5.72009 92.4501 5.81009 92.1201 6.00009C91.7901 6.19009 91.5401 6.4501 91.3601 6.7901C91.1801 7.1301 91.0901 7.52009 91.0901 7.97009V11.7101C91.0901 12.1601 91.1801 12.5501 91.3601 12.8901C91.5401 13.2301 91.7901 13.4901 92.1201 13.6801C92.4501 13.8701 92.8301 13.9601 93.2601 13.9601C93.6901 13.9601 94.0701 13.8601 94.4001 13.6801Z" fill="#056F7B"/>
<path d="M102.42 15.7801C101.71 15.3901 101.17 14.8401 100.78 14.1301C100.39 13.4201 100.2 12.5901 100.2 11.6601V8.0401C100.2 7.1001 100.39 6.2801 100.78 5.5701C101.17 4.8601 101.71 4.3101 102.42 3.9201C103.13 3.5301 103.94 3.34009 104.87 3.34009C105.8 3.34009 106.61 3.5301 107.32 3.9201C108.03 4.3101 108.57 4.8601 108.96 5.5701C109.35 6.2801 109.54 7.1101 109.54 8.0401V11.6601C109.54 12.6001 109.35 13.4201 108.96 14.1301C108.57 14.8401 108.03 15.3901 107.32 15.7801C106.61 16.1701 105.8 16.3601 104.87 16.3601C103.94 16.3601 103.13 16.1701 102.42 15.7801ZM106.01 13.6801C106.34 13.5001 106.59 13.2301 106.77 12.8901C106.95 12.5501 107.04 12.1601 107.04 11.7101V7.97009C107.04 7.52009 106.95 7.1301 106.77 6.7901C106.59 6.4501 106.34 6.19009 106.01 6.00009C105.68 5.81009 105.3 5.72009 104.87 5.72009C104.44 5.72009 104.06 5.81009 103.73 6.00009C103.4 6.19009 103.15 6.4501 102.97 6.7901C102.79 7.1301 102.7 7.52009 102.7 7.97009V11.7101C102.7 12.1601 102.79 12.5501 102.97 12.8901C103.15 13.2301 103.4 13.4901 103.73 13.6801C104.06 13.8701 104.44 13.9601 104.87 13.9601C105.3 13.9601 105.69 13.8601 106.01 13.6801Z" fill="#056F7B"/>
<path d="M112.09 3.4502H114.5V16.2302H112.09V3.4502ZM112.97 3.4502H120.48V5.77017H112.97V3.4502ZM112.97 8.84018H119.52V11.1602H112.97V8.84018Z" fill="#056F7B"/>
<path d="M120.39 3.4502H129.76V5.77017H120.39V3.4502ZM123.87 4.50018H126.28V16.2302H123.87V4.50018Z" fill="#056F7B"/>
<path d="M132.77 15.7801C132.06 15.3901 131.52 14.8401 131.13 14.1301C130.74 13.4201 130.55 12.5901 130.55 11.6601V8.0401C130.55 7.1001 130.74 6.2801 131.13 5.5701C131.52 4.8601 132.06 4.3101 132.77 3.9201C133.48 3.5301 134.29 3.34009 135.22 3.34009C136.15 3.34009 136.96 3.5301 137.67 3.9201C138.38 4.3101 138.92 4.8601 139.31 5.5701C139.7 6.2801 139.89 7.1101 139.89 8.0401V11.6601C139.89 12.6001 139.7 13.4201 139.31 14.1301C138.92 14.8401 138.38 15.3901 137.67 15.7801C136.96 16.1701 136.15 16.3601 135.22 16.3601C134.29 16.3601 133.48 16.1701 132.77 15.7801ZM136.36 13.6801C136.69 13.5001 136.94 13.2301 137.12 12.8901C137.3 12.5501 137.39 12.1601 137.39 11.7101V7.97009C137.39 7.52009 137.3 7.1301 137.12 6.7901C136.94 6.4501 136.69 6.19009 136.36 6.00009C136.03 5.81009 135.65 5.72009 135.22 5.72009C134.79 5.72009 134.41 5.81009 134.08 6.00009C133.75 6.19009 133.5 6.4501 133.32 6.7901C133.14 7.1301 133.05 7.52009 133.05 7.97009V11.7101C133.05 12.1601 133.14 12.5501 133.32 12.8901C133.5 13.2301 133.75 13.4901 134.08 13.6801C134.41 13.8701 134.79 13.9601 135.22 13.9601C135.65 13.9601 136.04 13.8601 136.36 13.6801Z" fill="#056F7B"/>
<path d="M142.44 3.44995H144.85V16.2299H142.44V3.44995ZM143.54 8.94995H147.63C147.92 8.94995 148.17 8.87994 148.39 8.74994C148.61 8.61994 148.78 8.42994 148.9 8.18994C149.02 7.94994 149.08 7.66992 149.08 7.35992C149.08 7.03992 149.02 6.75993 148.9 6.51993C148.78 6.27993 148.61 6.08993 148.39 5.95993C148.17 5.82993 147.91 5.75995 147.62 5.75995H143.53V3.43994H147.56C148.36 3.43994 149.06 3.59993 149.66 3.92993C150.26 4.25993 150.74 4.70994 151.07 5.30994C151.4 5.90994 151.57 6.58993 151.57 7.36993C151.57 8.14993 151.4 8.82995 151.07 9.41995C150.74 10.01 150.27 10.4599 149.66 10.7899C149.05 11.1199 148.35 11.2699 147.56 11.2699H143.53V8.94995H143.54Z" fill="#056F7B"/>
<path d="M158.48 3.43994H160.89V16.2299H158.48V3.43994ZM159.43 8.76993H163.88C164.13 8.76993 164.34 8.70994 164.53 8.58994C164.72 8.46994 164.86 8.28994 164.96 8.05994C165.06 7.82994 165.12 7.56993 165.12 7.26993C165.12 6.96993 165.07 6.70995 164.97 6.47995C164.87 6.24995 164.72 6.07995 164.54 5.94995C164.36 5.81995 164.13 5.76993 163.88 5.76993H159.43V3.44995H164.07C164.77 3.44995 165.39 3.60995 165.92 3.91995C166.45 4.22995 166.87 4.67995 167.16 5.25995C167.45 5.83995 167.6 6.50993 167.6 7.26993C167.6 8.02993 167.45 8.69994 167.16 9.27994C166.87 9.85994 166.45 10.2999 165.92 10.6199C165.39 10.9399 164.77 11.0899 164.07 11.0899H159.43V8.76993ZM162.12 10.6899L164.7 10.2899L168.15 16.2299H165.23L162.12 10.6899Z" fill="#056F7B"/>
<path d="M170.21 3.4502H172.62V16.2302H170.21V3.4502ZM171.08 3.4502H178.77V5.77017H171.08V3.4502ZM171.08 8.72018H177.8V11.0402H171.08V8.72018ZM171.08 13.9102H178.77V16.2302H171.08V13.9102Z" fill="#056F7B"/>
<path d="M183.2 16.1801C182.62 16.0601 182.07 15.8801 181.56 15.6401C181.05 15.4001 180.59 15.1201 180.18 14.7801L181.3 12.7901C181.79 13.1901 182.36 13.5101 183.01 13.7301C183.66 13.9501 184.32 14.0601 185 14.0601C185.79 14.0601 186.39 13.9301 186.83 13.6601C187.27 13.3901 187.48 13.0201 187.48 12.5301V12.5201C187.48 12.18 187.38 11.9101 187.19 11.7101C187 11.5101 186.74 11.3601 186.43 11.2701C186.12 11.18 185.72 11.0901 185.23 11.0201C185.21 11.01 185.2 11.0101 185.18 11.0101C185.16 11.0101 185.15 11.0101 185.13 11.0001L184.94 10.9701C184.08 10.8401 183.38 10.6701 182.81 10.4601C182.24 10.2501 181.77 9.90005 181.38 9.40005C180.99 8.90005 180.79 8.17005 180.79 7.24005V7.23007C180.79 6.40007 180.97 5.70005 181.34 5.11005C181.71 4.52005 182.25 4.08005 182.95 3.77005C183.65 3.46005 184.5 3.31006 185.5 3.31006C185.96 3.31006 186.42 3.36006 186.9 3.47006C187.38 3.58006 187.85 3.73005 188.3 3.93005C188.75 4.13005 189.19 4.37005 189.6 4.65005L188.58 6.69006C188.09 6.35006 187.57 6.09005 187.04 5.90005C186.51 5.71005 185.99 5.62006 185.5 5.62006C184.76 5.62006 184.19 5.74007 183.79 5.98007C183.39 6.22007 183.18 6.56006 183.18 7.00006V7.01007C183.18 7.38007 183.29 7.67007 183.5 7.88007C183.71 8.09007 183.97 8.25007 184.28 8.35007C184.59 8.45007 185.03 8.56007 185.59 8.67007C185.61 8.68007 185.64 8.68005 185.66 8.68005C185.68 8.68005 185.71 8.69006 185.73 8.69006C185.77 8.70006 185.8 8.70005 185.83 8.71005C185.86 8.72005 185.9 8.73007 185.93 8.73007C186.74 8.89007 187.41 9.08006 187.96 9.31006C188.51 9.54006 188.96 9.90005 189.32 10.4001C189.68 10.9001 189.86 11.5901 189.86 12.4501V12.4701C189.86 13.2801 189.67 13.9801 189.29 14.5601C188.91 15.1401 188.35 15.5801 187.62 15.8901C186.89 16.2001 186.01 16.3501 184.99 16.3501C184.38 16.3601 183.78 16.3001 183.2 16.1801Z" fill="#056F7B"/>
<path d="M190.29 3.4502H199.66V5.77017H190.29V3.4502ZM193.77 4.50018H196.18V16.2302H193.77V4.50018Z" fill="#056F7B"/>
<path d="M204.37 3.4502H205.9L210.79 16.2302H208.2L205.14 7.50018L202.08 16.2302H199.49L204.37 3.4502ZM201.83 11.8602H208.55V14.1802H201.83V11.8602Z" fill="#056F7B"/>
<path d="M214.33 15.7999C213.63 15.4299 213.1 14.89 212.74 14.17C212.38 13.45 212.2 12.5999 212.2 11.5999V3.43994H214.61V11.6599C214.61 12.3899 214.81 12.9599 215.2 13.3699C215.59 13.7799 216.15 13.9799 216.86 13.9799C217.58 13.9799 218.14 13.7799 218.53 13.3699C218.93 12.9699 219.12 12.3999 219.12 11.6599V3.43994H221.53V11.5999C221.53 12.5999 221.35 13.46 220.98 14.17C220.61 14.88 220.08 15.4199 219.38 15.7999C218.68 16.1699 217.84 16.3599 216.85 16.3599C215.86 16.3599 215.03 16.1699 214.33 15.7999Z" fill="#056F7B"/>
<path d="M224.17 3.43994H226.58V16.2299H224.17V3.43994ZM225.12 8.76993H229.57C229.82 8.76993 230.03 8.70994 230.22 8.58994C230.41 8.46994 230.55 8.28994 230.65 8.05994C230.75 7.82994 230.81 7.56993 230.81 7.26993C230.81 6.96993 230.76 6.70995 230.66 6.47995C230.56 6.24995 230.41 6.07995 230.22 5.94995C230.03 5.81995 229.81 5.76993 229.56 5.76993H225.11V3.44995H229.75C230.45 3.44995 231.07 3.60995 231.6 3.91995C232.13 4.22995 232.55 4.67995 232.84 5.25995C233.13 5.83995 233.28 6.50993 233.28 7.26993C233.28 8.02993 233.13 8.69994 232.84 9.27994C232.55 9.85994 232.13 10.2999 231.6 10.6199C231.06 10.9399 230.45 11.0899 229.75 11.0899H225.11V8.76993H225.12ZM227.81 10.6899L230.39 10.2899L233.84 16.2299H230.92L227.81 10.6899Z" fill="#056F7B"/>
<path d="M239.55 3.4502H241.08L245.97 16.2302H243.38L240.32 7.50018L237.26 16.2302H234.67L239.55 3.4502ZM237.01 11.8602H243.73V14.1802H237.01V11.8602Z" fill="#056F7B"/>
<path d="M247.55 3.4502H250.49L255.24 13.2402L255.03 13.4702V3.4502H257.33V16.2202H254.37L249.63 6.58017L249.84 6.35019V16.2202H247.54V3.4502H247.55Z" fill="#056F7B"/>
<path d="M258.4 3.4502H267.77V5.77017H258.4V3.4502ZM261.88 4.50018H264.29V16.2302H261.88V4.50018Z" fill="#056F7B"/>
</svg>
