<svg width="58" height="98" viewBox="0 0 58 98" fill="none" xmlns="http://www.w3.org/2000/svg">
<line x1="30" y1="17" x2="41" y2="19" stroke="#2F59ED" stroke-width="2"/>
<line x1="30" y1="17" x2="41" y2="19" stroke="url(#paint0_linear_241_2)" stroke-width="2"/>
<path d="M7.80948 18.5697C6.94948 18.3597 6.20949 17.9597 5.59949 17.3497C4.98949 16.7397 4.55948 15.9597 4.30948 14.9897L7.55948 14.3197C7.67948 14.6597 7.8395 14.9297 8.03949 15.1397C8.2495 15.3497 8.4895 15.4897 8.7595 15.5697C9.0295 15.6497 9.32948 15.6497 9.64948 15.5797C10.2495 15.4597 10.6795 15.1997 10.9295 14.7997C11.1895 14.3997 11.2495 13.8997 11.1295 13.2897L11.0495 12.8997C10.9195 12.2597 10.6895 11.7997 10.3495 11.5097C10.0095 11.2197 9.5995 11.1197 9.1095 11.2197L7.6995 11.5097L7.0795 8.47974L8.48948 8.18974C8.88948 8.10974 9.16949 7.88974 9.31949 7.54974C9.47949 7.19974 9.4995 6.75973 9.3895 6.21973L9.3295 5.92973C9.2195 5.41973 9.01949 5.04973 8.71949 4.81973C8.41949 4.58973 8.05948 4.51973 7.61948 4.60973C7.33948 4.66973 7.0895 4.78974 6.8895 4.98974C6.6895 5.17974 6.52948 5.42974 6.42948 5.73974C6.31948 6.04974 6.27949 6.40974 6.28949 6.80974L3.0495 7.46973C2.9295 6.42973 3.0295 5.49974 3.3295 4.66974C3.6295 3.83974 4.11948 3.14974 4.76948 2.61974C5.42948 2.07974 6.2095 1.71973 7.1095 1.53973C8.5895 1.23973 9.80948 1.37973 10.7695 1.96973C11.7295 2.55973 12.3495 3.54973 12.6395 4.92973L12.7395 5.42973C12.8995 6.19973 12.8395 6.91973 12.5695 7.56973C12.2995 8.21973 11.8295 8.76974 11.1695 9.19974C12.0095 9.21974 12.7195 9.50974 13.2895 10.0797C13.8595 10.6497 14.2595 11.4397 14.4695 12.4597L14.5695 12.9597C14.7695 13.9297 14.7495 14.7997 14.5095 15.5697C14.2695 16.3397 13.8195 16.9797 13.1595 17.4897C12.4995 17.9997 11.6495 18.3597 10.6195 18.5697C9.60948 18.7797 8.66948 18.7797 7.80948 18.5697Z" fill="#1C5B73"/>
<path d="M21.2996 16.61C20.5496 16.21 19.9895 15.62 19.5995 14.85C19.2095 14.08 19.0195 13.15 19.0195 12.06V12.05C19.0195 11.43 19.0995 10.78 19.2495 10.09C19.3995 9.4 19.6195 8.71 19.9095 8.02C19.9495 7.9 20.0095 7.78001 20.0595 7.67001C20.1095 7.55001 20.1595 7.44 20.2195 7.33L23.6996 0L27.3296 0.0100021L23.2095 8.49001L22.3995 8.07C22.5995 7.7 22.8796 7.42 23.2596 7.22C23.6396 7.02 24.0695 6.92001 24.5695 6.92001C25.5095 6.92001 26.3095 7.12 26.9695 7.52C27.6295 7.92 28.1396 8.5 28.4796 9.26C28.8196 10.02 28.9995 10.94 28.9895 12.01V12.02C28.9895 13.11 28.7895 14.05 28.3995 14.83C28.0095 15.61 27.4395 16.2 26.6895 16.61C25.9395 17.01 25.0395 17.22 23.9895 17.21C22.9395 17.22 22.0396 17.02 21.2996 16.61ZM25.3095 13.63C25.6195 13.3 25.7695 12.83 25.7795 12.22V12.21C25.7795 11.51 25.6295 10.97 25.3195 10.59C25.0095 10.21 24.5695 10.02 23.9995 10.02C23.4395 10.02 22.9995 10.21 22.6895 10.6C22.3795 10.99 22.2295 11.53 22.2195 12.22V12.23C22.2195 12.84 22.3695 13.31 22.6795 13.64C22.9895 13.97 23.4196 14.14 23.9796 14.14C24.5596 14.13 24.9995 13.97 25.3095 13.63Z" fill="#1C5B73"/>
<path d="M34.1394 16.63C33.4694 15.61 33.2995 14.36 33.6095 12.88L35.2394 5.31002C35.5594 3.81002 36.2394 2.74002 37.2694 2.10002C38.2994 1.45002 39.6294 1.31002 41.2394 1.65002C42.8694 2.00002 44.0194 2.68001 44.6894 3.68001C45.3594 4.69001 45.5294 5.94002 45.2094 7.45002L43.5795 15.02C43.2595 16.52 42.5795 17.59 41.5495 18.23C40.5195 18.88 39.1895 19.03 37.5795 18.68C35.9595 18.34 34.8094 17.65 34.1394 16.63ZM39.7694 15.31C40.1594 14.94 40.4394 14.35 40.6194 13.54L41.8994 7.57001C42.0694 6.76001 42.0594 6.11001 41.8494 5.61001C41.6394 5.11001 41.2294 4.80002 40.5894 4.66002C39.9594 4.52002 39.4395 4.64002 39.0495 5.01002C38.6595 5.38002 38.3794 5.97002 38.1994 6.78002L36.9194 12.75C36.7494 13.56 36.7594 14.21 36.9694 14.71C37.1794 15.21 37.5894 15.52 38.2294 15.66C38.8694 15.8 39.3794 15.68 39.7694 15.31Z" fill="#1C5B73"/>
<path d="M50.5896 10.6498C50.2296 9.83984 50.2696 8.92984 50.6796 7.90984C51.0996 6.87984 51.7196 6.20984 52.5396 5.88984C53.3596 5.56984 54.3096 5.62984 55.3996 6.07984C56.4796 6.52984 57.1996 7.14984 57.5596 7.95984C57.9196 8.76984 57.8796 9.68984 57.4596 10.7198C57.0396 11.7398 56.4196 12.4098 55.5996 12.7298C54.7796 13.0498 53.8296 12.9898 52.7496 12.5498C51.6696 12.0898 50.9496 11.4598 50.5896 10.6498ZM54.4296 10.3698C54.6696 10.2498 54.8596 10.0098 54.9996 9.65984C55.1396 9.32984 55.1596 9.03984 55.0796 8.78984C54.9896 8.53984 54.7996 8.35984 54.5096 8.23984C54.2196 8.11984 53.9596 8.11984 53.7296 8.23984C53.4996 8.35984 53.3096 8.58984 53.1696 8.92984C53.0296 9.27984 52.9996 9.56984 53.0796 9.81984C53.1596 10.0698 53.3396 10.2498 53.6296 10.3698C53.9196 10.4998 54.1896 10.4998 54.4296 10.3698Z" fill="#1C5B73"/>
<path d="M23.8603 73.9502L24.0503 88.1502L17.0703 96.5702H30.8903L24.0503 88.1502" stroke="#1C5B73" stroke-width="2" stroke-miterlimit="10"/>
<path d="M24.1297 74.1094L24.3197 88.0494L17.4697 96.3194H31.0397L24.3197 88.0494" stroke="#1C5B73" stroke-miterlimit="10"/>
<path d="M3 47.5703L23.86 73.9503L45.09 47.5703H3Z" stroke="#1C5B73" stroke-width="2" stroke-miterlimit="10"/>
<path d="M4.94043 47.81V39.12H10.2704V46.97H11.7804V42.31L12.9604 39.12L14.4604 42.23V47.81H16.8504V35.21H20.9104V47.81H21.3404L22.2204 47.09H22.9404V47.48H23.5004V35.21H27.3304V46.58H29.4204V48.05H31.0604V47.12H32.4704V43.09L35.2804 41.99L37.6404 43V47.33H39.0504V39.49H43.1704V48.05" fill="#1C5B73"/>
<path d="M28.9805 46.5795V41.9395H30.8905V46.5795" fill="#1C5B73"/>
<path d="M31.7305 46.5797V39.9697H35.0105H35.7305V46.5797" fill="#1C5B73"/>
<path d="M14.46 42.2305H15.79V46.5805H14.46" fill="#1C5B73"/>
<path d="M20.9102 43.9697H23.5002V46.5797H20.9102" fill="#1C5B73"/>
<path d="M39.7701 54.6797H8.62012" stroke="#1C5B73" stroke-width="2" stroke-miterlimit="10"/>
<defs>
<linearGradient id="paint0_linear_241_2" x1="35.5" y1="18" x2="35.5" y2="20" gradientUnits="userSpaceOnUse">
<stop stop-color="white"/>
<stop offset="1" stop-color="white" stop-opacity="0"/>
</linearGradient>
</defs>
</svg>
