<svg width="192" height="89" viewBox="0 0 192 89" fill="none" xmlns="http://www.w3.org/2000/svg">
<path d="M82.6401 43.76H85.0501V56.55H82.6401V43.76ZM83.6001 49.09H88.0501C88.3001 49.09 88.5101 49.03 88.7001 48.91C88.8901 48.79 89.0301 48.61 89.1401 48.38C89.2501 48.15 89.3001 47.89 89.3001 47.59C89.3001 47.29 89.2501 47.03 89.1501 46.8C89.0501 46.57 88.9001 46.4 88.7101 46.27C88.5201 46.14 88.3001 46.09 88.0501 46.09H83.6001V43.77H88.2401C88.9401 43.77 89.5601 43.93 90.0901 44.24C90.6201 44.55 91.0401 45 91.3301 45.58C91.6201 46.16 91.7701 46.83 91.7701 47.59C91.7701 48.35 91.6201 49.02 91.3301 49.6C91.0401 50.18 90.6201 50.62 90.0901 50.94C89.5601 51.26 88.9401 51.41 88.2401 51.41H83.6001V49.09ZM86.2901 51.01L88.8701 50.61L92.3201 56.55H89.4001L86.2901 51.01Z" fill="#FFFEFE"/>
<path d="M96.3304 56.0999C95.6204 55.7099 95.0804 55.16 94.6904 54.45C94.3004 53.74 94.1104 52.9099 94.1104 51.9799V48.3599C94.1104 47.4199 94.3004 46.6 94.6904 45.89C95.0804 45.18 95.6204 44.6299 96.3304 44.2399C97.0404 43.8499 97.8504 43.6599 98.7804 43.6599C99.7104 43.6599 100.52 43.8499 101.23 44.2399C101.94 44.6299 102.48 45.18 102.87 45.89C103.26 46.6 103.45 47.4299 103.45 48.3599V51.9799C103.45 52.9199 103.26 53.74 102.87 54.45C102.48 55.16 101.94 55.7099 101.23 56.0999C100.52 56.4899 99.7104 56.6799 98.7804 56.6799C97.8504 56.6799 97.0404 56.4899 96.3304 56.0999ZM99.9204 53.9999C100.25 53.8199 100.5 53.55 100.68 53.21C100.86 52.87 100.95 52.48 100.95 52.03V48.2899C100.95 47.8399 100.86 47.4499 100.68 47.1099C100.5 46.7699 100.25 46.5099 99.9204 46.3199C99.5904 46.1299 99.2104 46.0399 98.7804 46.0399C98.3504 46.0399 97.9704 46.1299 97.6404 46.3199C97.3104 46.5099 97.0604 46.7699 96.8804 47.1099C96.7004 47.4499 96.6104 47.8399 96.6104 48.2899V52.03C96.6104 52.48 96.7004 52.87 96.8804 53.21C97.0604 53.55 97.3104 53.8099 97.6404 53.9999C97.9704 54.1899 98.3504 54.28 98.7804 54.28C99.2104 54.28 99.5904 54.1799 99.9204 53.9999Z" fill="#FFFEFE"/>
<path d="M107.95 56.0999C107.24 55.7099 106.7 55.16 106.31 54.45C105.92 53.74 105.73 52.9099 105.73 51.9799V48.3599C105.73 47.4199 105.92 46.6 106.31 45.89C106.7 45.18 107.24 44.6299 107.95 44.2399C108.66 43.8499 109.47 43.6599 110.4 43.6599C111.33 43.6599 112.14 43.8499 112.85 44.2399C113.56 44.6299 114.1 45.18 114.49 45.89C114.88 46.6 115.07 47.4299 115.07 48.3599V51.9799C115.07 52.9199 114.88 53.74 114.49 54.45C114.1 55.16 113.56 55.7099 112.85 56.0999C112.14 56.4899 111.33 56.6799 110.4 56.6799C109.47 56.6799 108.66 56.4899 107.95 56.0999ZM111.54 53.9999C111.87 53.8199 112.12 53.55 112.3 53.21C112.48 52.87 112.57 52.48 112.57 52.03V48.2899C112.57 47.8399 112.48 47.4499 112.3 47.1099C112.12 46.7699 111.87 46.5099 111.54 46.3199C111.21 46.1299 110.83 46.0399 110.4 46.0399C109.97 46.0399 109.59 46.1299 109.26 46.3199C108.93 46.5099 108.68 46.7699 108.5 47.1099C108.32 47.4499 108.23 47.8399 108.23 48.2899V52.03C108.23 52.48 108.32 52.87 108.5 53.21C108.68 53.55 108.93 53.8099 109.26 53.9999C109.59 54.1899 109.97 54.28 110.4 54.28C110.83 54.28 111.21 54.1799 111.54 53.9999Z" fill="#FFFEFE"/>
<path d="M117.61 43.77H120.02V56.55H117.61V43.77ZM118.49 43.77H126V46.09H118.49V43.77ZM118.49 49.16H125.04V51.48H118.49V49.16Z" fill="#FFFEFE"/>
<path d="M125.92 43.77H135.29V46.09H125.92V43.77ZM129.4 44.82H131.81V56.55H129.4V44.82Z" fill="#FFFEFE"/>
<path d="M138.3 56.0999C137.59 55.7099 137.05 55.16 136.66 54.45C136.27 53.74 136.08 52.9099 136.08 51.9799V48.3599C136.08 47.4199 136.27 46.6 136.66 45.89C137.05 45.18 137.59 44.6299 138.3 44.2399C139.01 43.8499 139.82 43.6599 140.75 43.6599C141.68 43.6599 142.49 43.8499 143.2 44.2399C143.91 44.6299 144.45 45.18 144.84 45.89C145.23 46.6 145.42 47.4299 145.42 48.3599V51.9799C145.42 52.9199 145.23 53.74 144.84 54.45C144.45 55.16 143.91 55.7099 143.2 56.0999C142.49 56.4899 141.68 56.6799 140.75 56.6799C139.82 56.6799 139 56.4899 138.3 56.0999ZM141.89 53.9999C142.22 53.8199 142.47 53.55 142.65 53.21C142.83 52.87 142.92 52.48 142.92 52.03V48.2899C142.92 47.8399 142.83 47.4499 142.65 47.1099C142.47 46.7699 142.22 46.5099 141.89 46.3199C141.56 46.1299 141.18 46.0399 140.75 46.0399C140.32 46.0399 139.94 46.1299 139.61 46.3199C139.28 46.5099 139.03 46.7699 138.85 47.1099C138.67 47.4499 138.58 47.8399 138.58 48.2899V52.03C138.58 52.48 138.67 52.87 138.85 53.21C139.03 53.55 139.28 53.8099 139.61 53.9999C139.94 54.1899 140.32 54.28 140.75 54.28C141.18 54.28 141.56 54.1799 141.89 53.9999Z" fill="#FFFEFE"/>
<path d="M147.96 43.77H150.37V56.55H147.96V43.77ZM149.06 49.27H153.15C153.44 49.27 153.69 49.2 153.91 49.07C154.13 48.94 154.3 48.75 154.42 48.51C154.54 48.27 154.6 47.99 154.6 47.68C154.6 47.36 154.54 47.08 154.42 46.84C154.3 46.6 154.13 46.41 153.91 46.28C153.69 46.15 153.43 46.08 153.14 46.08H149.05V43.76H153.08C153.88 43.76 154.58 43.92 155.19 44.25C155.8 44.58 156.27 45.03 156.6 45.63C156.93 46.23 157.1 46.91 157.1 47.69C157.1 48.47 156.93 49.15 156.6 49.74C156.27 50.33 155.8 50.78 155.19 51.11C154.58 51.44 153.88 51.59 153.08 51.59H149.05V49.27H149.06Z" fill="#FFFEFE"/>
<path d="M82.6401 65.3599H85.0501V78.1499H82.6401V65.3599ZM83.6001 70.6899H88.0501C88.3001 70.6899 88.5101 70.6299 88.7001 70.5099C88.8901 70.3899 89.0301 70.2099 89.1401 69.9799C89.2501 69.7499 89.3001 69.4899 89.3001 69.1899C89.3001 68.8899 89.2501 68.6299 89.1501 68.3999C89.0501 68.1699 88.9001 67.9999 88.7101 67.8699C88.5201 67.7399 88.3001 67.6899 88.0501 67.6899H83.6001V65.3699H88.2401C88.9401 65.3699 89.5601 65.5299 90.0901 65.8399C90.6201 66.1499 91.0401 66.5999 91.3301 67.1799C91.6201 67.7599 91.7701 68.4299 91.7701 69.1899C91.7701 69.9499 91.6201 70.6199 91.3301 71.1999C91.0401 71.7799 90.6201 72.2199 90.0901 72.5399C89.5601 72.8599 88.9401 73.0099 88.2401 73.0099H83.6001V70.6899ZM86.2901 72.6099L88.8701 72.2099L92.3201 78.1499H89.4001L86.2901 72.6099Z" fill="#FFFEFE"/>
<path d="M94.3799 65.3699H96.7899V78.1499H94.3799V65.3699ZM95.2499 65.3699H102.94V67.6899H95.2499V65.3699ZM95.2499 70.6399H101.97V72.9599H95.2499V70.6399ZM95.2499 75.8299H102.94V78.1499H95.2499V75.8299Z" fill="#FFFEFE"/>
<path d="M107.36 78.1C106.78 77.98 106.23 77.8 105.72 77.56C105.21 77.32 104.75 77.04 104.34 76.7L105.46 74.71C105.95 75.11 106.52 75.43 107.17 75.65C107.81 75.87 108.48 75.98 109.16 75.98C109.95 75.98 110.55 75.85 110.99 75.58C111.43 75.31 111.64 74.94 111.64 74.45V74.44C111.64 74.1 111.54 73.83 111.35 73.63C111.16 73.43 110.9 73.28 110.59 73.19C110.28 73.1 109.88 73.01 109.39 72.94C109.37 72.93 109.36 72.93 109.34 72.93C109.32 72.93 109.31 72.93 109.29 72.92L109.1 72.89C108.24 72.76 107.54 72.59 106.97 72.38C106.41 72.18 105.93 71.82 105.54 71.32C105.15 70.82 104.95 70.09 104.95 69.16V69.15C104.95 68.32 105.13 67.62 105.5 67.03C105.87 66.44 106.41 66 107.11 65.69C107.81 65.38 108.66 65.23 109.66 65.23C110.12 65.23 110.58 65.28 111.06 65.39C111.54 65.5 112 65.65 112.46 65.85C112.92 66.05 113.35 66.29 113.76 66.57L112.74 68.61C112.25 68.27 111.73 68.01 111.2 67.82C110.67 67.63 110.15 67.54 109.66 67.54C108.92 67.54 108.35 67.66 107.95 67.9C107.55 68.14 107.34 68.48 107.34 68.92V68.93C107.34 69.3 107.45 69.59 107.66 69.81C107.87 70.03 108.13 70.18 108.44 70.28C108.75 70.38 109.19 70.49 109.75 70.6C109.77 70.61 109.8 70.61 109.82 70.61C109.84 70.61 109.87 70.62 109.89 70.62C109.93 70.63 109.96 70.63 109.99 70.64C110.02 70.65 110.06 70.66 110.09 70.66C110.9 70.82 111.57 71.01 112.12 71.24C112.66 71.47 113.11 71.83 113.48 72.33C113.84 72.83 114.02 73.52 114.02 74.38V74.4C114.02 75.21 113.83 75.91 113.45 76.49C113.07 77.07 112.51 77.51 111.78 77.82C111.05 78.13 110.17 78.28 109.15 78.28C108.54 78.28 107.94 78.22 107.36 78.1Z" fill="#FFFEFE"/>
<path d="M114.46 65.3699H123.83V67.6899H114.46V65.3699ZM117.94 66.4199H120.35V78.1499H117.94V66.4199Z" fill="#FFFEFE"/>
<path d="M128.54 65.3699H130.07L134.96 78.1499H132.37L129.31 69.4199L126.25 78.1499H123.66L128.54 65.3699ZM126 73.7799H132.72V76.0999H126V73.7799Z" fill="#FFFEFE"/>
<path d="M138.5 77.7198C137.8 77.3498 137.27 76.8099 136.91 76.0899C136.55 75.3799 136.37 74.5199 136.37 73.5199V65.3599H138.78V73.5799C138.78 74.3099 138.98 74.8799 139.37 75.2899C139.76 75.6999 140.32 75.8999 141.03 75.8999C141.75 75.8999 142.31 75.6999 142.7 75.2899C143.09 74.8799 143.29 74.3199 143.29 73.5799V65.3599H145.7V73.5199C145.7 74.5199 145.52 75.3799 145.15 76.0899C144.78 76.7999 144.25 77.3398 143.55 77.7198C142.85 78.0998 142.01 78.2799 141.02 78.2799C140.03 78.2799 139.19 78.0998 138.5 77.7198Z" fill="#FFFEFE"/>
<path d="M148.33 65.3599H150.74V78.1499H148.33V65.3599ZM149.29 70.6899H153.74C153.99 70.6899 154.2 70.6299 154.39 70.5099C154.58 70.3899 154.72 70.2099 154.83 69.9799C154.94 69.7499 154.99 69.4899 154.99 69.1899C154.99 68.8899 154.94 68.6299 154.84 68.3999C154.74 68.1699 154.59 67.9999 154.4 67.8699C154.21 67.7399 153.99 67.6899 153.74 67.6899H149.29V65.3699H153.93C154.63 65.3699 155.25 65.5299 155.78 65.8399C156.31 66.1499 156.73 66.5999 157.02 67.1799C157.31 67.7599 157.46 68.4299 157.46 69.1899C157.46 69.9499 157.31 70.6199 157.02 71.1999C156.73 71.7799 156.31 72.2199 155.78 72.5399C155.25 72.8599 154.63 73.0099 153.93 73.0099H149.29V70.6899ZM151.98 72.6099L154.56 72.2099L158.01 78.1499H155.09L151.98 72.6099Z" fill="#FFFEFE"/>
<path d="M163.72 65.3699H165.25L170.14 78.1499H167.55L164.49 69.4199L161.43 78.1499H158.84L163.72 65.3699ZM161.18 73.7799H167.9V76.0999H161.18V73.7799Z" fill="#FFFEFE"/>
<path d="M171.72 65.3699H174.66L179.41 75.1599L179.2 75.3899V65.3699H181.5V78.1399H178.54L173.8 68.4999L174.01 68.2699V78.1399H171.71V65.3699H171.72Z" fill="#FFFEFE"/>
<path d="M182.56 65.3699H191.93V67.6899H182.56V65.3699ZM186.04 66.4199H188.45V78.1499H186.04V66.4199Z" fill="#FFFEFE"/>
<path d="M23.8498 65.1099L24.0398 79.2999L17.0698 87.7198H30.8898L24.0398 79.2999" stroke="white" stroke-width="2" stroke-miterlimit="10"/>
<path d="M24.1302 65.27L24.3102 79.21L17.4702 87.47H31.0402L24.3102 79.21" stroke="white" stroke-miterlimit="10"/>
<path d="M3 38.72L23.85 65.11L45.09 38.72H3Z" stroke="white" stroke-width="2" stroke-miterlimit="10"/>
<path d="M4.93018 38.9599V30.2699H10.2702V38.1299H11.7802V33.4698L12.9502 30.2699L14.4602 33.3799V38.9599H16.8502V26.3599H20.9102V38.9599H21.3402L22.2202 38.2399H22.9402V38.6299H23.5002V26.3599H27.3302V37.7399H29.4202V39.1999H31.0602V38.2699H32.4702V34.2399L35.2802 33.1399L37.6402 34.1599V38.4799H39.0502V30.6499H43.1702V39.1999" fill="white"/>
<path d="M28.98 37.7401V33.1001H30.89V37.7401" fill="#FFFEFE"/>
<path d="M31.7202 37.7399V31.1299H35.0102H35.7202V37.7399" fill="#FFFEFE"/>
<path d="M14.46 33.3799H15.78V37.7399H14.46" fill="white"/>
<path d="M20.9102 35.1299H23.5002V37.7399H20.9102" fill="white"/>
<path d="M39.7701 45.8301H8.62012" stroke="white" stroke-width="2" stroke-miterlimit="10"/>
<path d="M6.91012 18.58C6.05012 18.38 5.31011 17.9699 4.70011 17.3599C4.09011 16.7499 3.66011 15.9699 3.42011 14.9999L6.67011 14.33C6.79011 14.66 6.95011 14.94 7.15011 15.14C7.36011 15.35 7.60011 15.4899 7.87011 15.5699C8.14011 15.6499 8.44011 15.65 8.76011 15.58C9.36011 15.46 9.78011 15.1999 10.0401 14.7999C10.3001 14.3999 10.3601 13.8999 10.2401 13.2899L10.1601 12.9C10.0301 12.27 9.80012 11.8 9.46012 11.51C9.13012 11.22 8.71011 11.1199 8.22011 11.2199L6.81011 11.51L6.19011 8.47992L7.60012 8.18994C8.00012 8.10994 8.2801 7.89993 8.4301 7.54993C8.5901 7.19993 8.61011 6.75991 8.50011 6.21991L8.44011 5.92993C8.33011 5.41993 8.13011 5.04994 7.84011 4.80994C7.54011 4.57994 7.17012 4.50992 6.74012 4.59992C6.46012 4.65992 6.21011 4.77992 6.01011 4.97992C5.80011 5.16992 5.65011 5.41992 5.55011 5.72992C5.45011 6.03992 5.40012 6.39993 5.41012 6.79993L2.17011 7.45996C2.05011 6.41996 2.15011 5.48991 2.45011 4.65991C2.75011 3.82991 3.23011 3.13993 3.89011 2.60993C4.55011 2.06993 5.32011 1.70997 6.23011 1.52997C7.71011 1.22997 8.93011 1.36996 9.89011 1.95996C10.8501 2.54996 11.4701 3.53992 11.7601 4.91992L11.8601 5.41992C12.0201 6.18992 11.9601 6.90994 11.6901 7.55994C11.4201 8.20994 10.9501 8.75994 10.2901 9.18994C11.1301 9.20994 11.8401 9.49995 12.4101 10.0699C12.9901 10.6399 13.3801 11.43 13.5901 12.45L13.6901 12.95C13.8901 13.92 13.8701 14.7899 13.6301 15.5599C13.3901 16.3299 12.9401 16.9699 12.2801 17.4799C11.6201 17.9899 10.7701 18.3499 9.74012 18.5599C8.71012 18.7899 7.77012 18.79 6.91012 18.58Z" fill="#FFFEFE"/>
<path d="M20.4001 16.62C19.6501 16.22 19.0901 15.63 18.7001 14.86C18.3101 14.09 18.1201 13.16 18.1201 12.07V12.06C18.1201 11.44 18.2001 10.79 18.3501 10.1C18.5001 9.40998 18.7201 8.72003 19.0101 8.03003C19.0601 7.91003 19.1101 7.79999 19.1601 7.67999C19.2101 7.55999 19.2701 7.45003 19.3201 7.34003L22.8001 0.0100098L26.4301 0.0200195L22.3101 8.51001L21.5001 8.09003C21.7001 7.72003 21.9801 7.43999 22.3601 7.23999C22.7401 7.03999 23.1701 6.94 23.6701 6.94C24.6101 6.94 25.4101 7.13998 26.0701 7.53998C26.7301 7.93998 27.2401 8.52003 27.5801 9.28003C27.9201 10.04 28.1001 10.96 28.0901 12.03V12.04C28.0901 13.13 27.8901 14.07 27.5001 14.85C27.1101 15.63 26.5401 16.22 25.7901 16.63C25.0401 17.04 24.1401 17.23 23.0901 17.23C22.0401 17.23 21.1401 17.03 20.4001 16.62ZM24.4201 13.64C24.7301 13.31 24.8801 12.84 24.8901 12.23V12.22C24.8901 11.52 24.7401 10.98 24.4301 10.6C24.1201 10.22 23.6801 10.03 23.1101 10.03C22.5501 10.03 22.1101 10.22 21.8001 10.61C21.4901 11 21.3301 11.54 21.3301 12.23V12.24C21.3301 12.85 21.4801 13.32 21.7901 13.65C22.1001 13.98 22.5301 14.14 23.1001 14.15C23.6701 14.14 24.1101 13.98 24.4201 13.64Z" fill="#FFFEFE"/>
<path d="M33.2503 16.6401C32.5803 15.6201 32.4103 14.3701 32.7203 12.8901L34.3403 5.32006C34.6603 3.82006 35.3403 2.75004 36.3703 2.11004C37.4003 1.46004 38.7203 1.32002 40.3403 1.66002C41.9703 2.01002 43.1203 2.69005 43.7903 3.69005C44.4603 4.69005 44.6303 5.95007 44.3103 7.46007L42.6903 15.0301C42.3703 16.5301 41.6903 17.6 40.6603 18.24C39.6303 18.89 38.3103 19.0301 36.6903 18.6901C35.0603 18.3501 33.9103 17.6601 33.2503 16.6401ZM38.8703 15.3201C39.2603 14.9501 39.5403 14.36 39.7203 13.55L41.0003 7.58007C41.1703 6.77007 41.1603 6.12005 40.9503 5.62005C40.7403 5.12005 40.3303 4.81003 39.6903 4.67003C39.0603 4.53003 38.5403 4.65007 38.1503 5.02007C37.7603 5.39007 37.4803 5.98003 37.3003 6.79003L36.0203 12.7601C35.8503 13.5701 35.8603 14.22 36.0703 14.72C36.2803 15.22 36.6903 15.53 37.3303 15.67C37.9703 15.81 38.4803 15.6901 38.8703 15.3201Z" fill="#FFFEFE"/>
<path d="M49.6999 10.66C49.3399 9.85004 49.3799 8.94005 49.7899 7.92005C50.2099 6.89005 50.8299 6.22009 51.6499 5.90009C52.4699 5.58009 53.4199 5.6401 54.5099 6.0901C55.5999 6.5401 56.3099 7.16004 56.6699 7.97004C57.0299 8.78004 56.9899 9.70005 56.5699 10.7301C56.1499 11.7501 55.5299 12.4201 54.7099 12.7401C53.8899 13.0601 52.9399 13.0001 51.8599 12.5601C50.7699 12.1001 50.0499 11.47 49.6999 10.66ZM53.5299 10.3801C53.7699 10.2601 53.9599 10.0201 54.0999 9.67005C54.2299 9.34005 54.2599 9.05006 54.1799 8.80006C54.0999 8.55006 53.8999 8.37007 53.6099 8.25007C53.3199 8.13007 53.0599 8.13007 52.8299 8.25007C52.5999 8.37007 52.4099 8.60007 52.2799 8.94007C52.1399 9.29007 52.1099 9.58009 52.1799 9.83009C52.2599 10.0801 52.4399 10.2601 52.7299 10.3801C53.0299 10.5101 53.2899 10.5101 53.5299 10.3801Z" fill="#FFFEFE"/>
</svg>
